#N canvas 539 48 306 225 12;
#X msg 30 63 0;
#X msg 60 63 1;
#X msg 94 63 0;
#X msg 124 63 1;
#X obj 14 102 spigot;
#X obj 63 102 spigot;
#X obj 63 29 loadbang;
#X obj 9 5 inlet;
#X obj 14 150 outlet;
#X obj 63 150 outlet;
#X obj 14 125 del 1;
#X obj 63 125 del 1;
#X connect 0 0 4 1;
#X connect 1 0 4 1;
#X connect 2 0 5 1;
#X connect 3 0 5 1;
#X connect 4 0 10 0;
#X connect 5 0 11 0;
#X connect 6 0 1 0;
#X connect 6 0 2 0;
#X connect 7 0 4 0;
#X connect 7 0 5 0;
#X connect 10 0 0 0;
#X connect 10 0 3 0;
#X connect 10 0 8 0;
#X connect 11 0 1 0;
#X connect 11 0 2 0;
#X connect 11 0 9 0;
