#N canvas 580 282 1142 515 12;
#X floatatom 23 269 5 0 0 0 - - - 0;
#X floatatom 16 138 5 0 0 0 - - - 0;
#X floatatom 172 148 5 0 0 0 - - - 0;
#X obj 16 114 sigmund~ env pitch peaks -npts 8192 -hop 4096;
#X obj 16 86 *~ 1;
#X obj 16 161 s mic-env;
#X obj 23 221 r mic-env;
#X obj 328 145 s mic-peaks;
#X obj 16 12 catch~ analyse-in;
#X obj 451 22 r mic-peaks;
#X obj 451 46 route 0 1 2 3 4 5 6 7 8 9;
#X obj 451 70 s peak-0;
#X obj 552 259 s peak-9;
#X obj 542 238 s peak-8;
#X obj 532 217 s peak-7;
#X obj 522 196 s peak-6;
#X obj 508 175 s peak-5;
#X obj 498 154 s peak-4;
#X obj 485 133 s peak-3;
#X obj 475 112 s peak-2;
#X obj 461 91 s peak-1;
#X connect 1 0 5 0;
#X connect 3 0 1 0;
#X connect 3 1 2 0;
#X connect 3 2 7 0;
#X connect 4 0 3 0;
#X connect 6 0 0 0;
#X connect 8 0 4 0;
#X connect 9 0 10 0;
#X connect 10 0 11 0;
#X connect 10 1 20 0;
#X connect 10 2 19 0;
#X connect 10 3 18 0;
#X connect 10 4 17 0;
#X connect 10 5 16 0;
#X connect 10 6 15 0;
#X connect 10 7 14 0;
#X connect 10 8 13 0;
#X connect 10 9 12 0;
