#N canvas 580 282 1142 515 12;
#X floatatom 16 183 5 0 0 0 - - - 0;
#X floatatom 172 193 5 0 0 0 - - - 0;
#X obj 16 86 *~ 1;
#X obj 16 12 catch~ analyse-in;
#X obj 451 46 route 0 1 2 3 4 5 6 7 8 9;
#X obj 451 70 s peak-0;
#X obj 552 259 s peak-9;
#X obj 542 238 s peak-8;
#X obj 532 217 s peak-7;
#X obj 522 196 s peak-6;
#X obj 508 175 s peak-5;
#X obj 498 154 s peak-4;
#X obj 485 133 s peak-3;
#X obj 475 112 s peak-2;
#X obj 461 91 s peak-1;
#X obj 172 216 s analysis-pitch;
#X obj 328 190 s analysis-peaks;
#X obj 451 22 r analysis-peaks;
#X obj 16 206 s analysis-env;
#X obj 16 110 hip~ 75;
#X obj 16 134 hip~ 75;
#X obj 16 159 sigmund~ env pitch peaks -npts 8192 -hop 4096 -npeak
10;
#X connect 0 0 18 0;
#X connect 1 0 15 0;
#X connect 2 0 19 0;
#X connect 3 0 2 0;
#X connect 4 0 5 0;
#X connect 4 1 14 0;
#X connect 4 2 13 0;
#X connect 4 3 12 0;
#X connect 4 4 11 0;
#X connect 4 5 10 0;
#X connect 4 6 9 0;
#X connect 4 7 8 0;
#X connect 4 8 7 0;
#X connect 4 9 6 0;
#X connect 17 0 4 0;
#X connect 19 0 20 0;
#X connect 20 0 21 0;
#X connect 21 0 0 0;
#X connect 21 1 1 0;
#X connect 21 2 16 0;
