#N canvas 216 28 1920 976 12;
#X obj 16 12 r~ mic-in;
#X floatatom 23 269 5 0 0 0 - - - 0;
#X floatatom 16 88 5 0 0 0 - - - 0;
#X floatatom 172 98 5 0 0 0 - - - 0;
#X obj 16 64 sigmund~ env pitch peaks -npts 8192 -hop 4096;
#X obj 16 36 *~ 1;
#X obj 16 111 s mic-env;
#X obj 23 221 r mic-env;
#X obj 328 95 s mic-peaks;
#X connect 0 0 5 0;
#X connect 2 0 6 0;
#X connect 4 0 2 0;
#X connect 4 1 3 0;
#X connect 4 2 8 0;
#X connect 5 0 4 0;
#X connect 7 0 1 0;
