#N canvas 2363 198 1710 448 12;
#X obj 133 40 inlet;
#X obj 42 250 inlet~;
#X obj 114 301 *~;
#X obj 218 322 throw~ mixer-1;
#X obj 530 322 throw~ mixer-4;
#X obj 426 322 throw~ mixer-3;
#X obj 322 322 throw~ mixer-2;
#X obj 114 322 throw~ master;
#X obj 218 301 *~;
#X obj 321 301 *~;
#X obj 425 301 *~;
#X obj 530 301 *~;
#X obj 634 301 *~;
#X obj 758 301 *~;
#X obj 869 301 *~;
#X obj 1016 301 *~;
#X obj 634 322 throw~ vocoder-in;
#X obj 759 322 throw~ delay-in;
#X obj 870 322 throw~ swelling-in-1;
#X obj 1016 322 throw~ swelling-in-2;
#X msg 133 211 \$1 10;
#X obj 133 235 line~;
#X msg 236 211 \$1 10;
#X obj 236 235 line~;
#X msg 339 211 \$1 10;
#X obj 339 235 line~;
#X msg 443 211 \$1 10;
#X obj 443 235 line~;
#X msg 548 211 \$1 10;
#X obj 548 235 line~;
#X msg 652 211 \$1 10;
#X obj 652 235 line~;
#X msg 776 211 \$1 10;
#X obj 776 235 line~;
#X msg 887 211 \$1 10;
#X obj 887 235 line~;
#X msg 1034 211 \$1 10;
#X obj 1034 235 line~;
#X msg 1053 64 0;
#X obj 1053 40 r reset;
#X obj 1438 215 print patchbay;
#X msg 1438 192 no such target-connection;
#X obj 1162 301 *~;
#X msg 1180 211 \$1 10;
#X obj 1180 235 line~;
#X obj 1162 322 throw~ analyse-in;
#X obj 133 64 route master mixer-1 mixer-2 mixer-3 mixer-4 vocoder-in
delay-in swelling-in-1 swelling-in-2 analyse-in blur-in, f 120;
#X obj 1288 301 *~;
#X msg 1306 211 \$1 10;
#X obj 1306 235 line~;
#X obj 1288 322 throw~ blur-in;
#X connect 0 0 46 0;
#X connect 1 0 2 0;
#X connect 1 0 8 0;
#X connect 1 0 10 0;
#X connect 1 0 11 0;
#X connect 1 0 13 0;
#X connect 1 0 12 0;
#X connect 1 0 14 0;
#X connect 1 0 15 0;
#X connect 1 0 9 0;
#X connect 1 0 42 0;
#X connect 1 0 47 0;
#X connect 2 0 7 0;
#X connect 8 0 3 0;
#X connect 9 0 6 0;
#X connect 10 0 5 0;
#X connect 11 0 4 0;
#X connect 12 0 16 0;
#X connect 13 0 17 0;
#X connect 14 0 18 0;
#X connect 15 0 19 0;
#X connect 20 0 21 0;
#X connect 21 0 2 1;
#X connect 22 0 23 0;
#X connect 23 0 8 1;
#X connect 24 0 25 0;
#X connect 25 0 9 1;
#X connect 26 0 27 0;
#X connect 27 0 10 1;
#X connect 28 0 29 0;
#X connect 29 0 11 1;
#X connect 30 0 31 0;
#X connect 31 0 12 1;
#X connect 32 0 33 0;
#X connect 33 0 13 1;
#X connect 34 0 35 0;
#X connect 35 0 14 1;
#X connect 36 0 37 0;
#X connect 37 0 15 1;
#X connect 38 0 36 0;
#X connect 38 0 34 0;
#X connect 38 0 32 0;
#X connect 38 0 30 0;
#X connect 38 0 28 0;
#X connect 38 0 26 0;
#X connect 38 0 24 0;
#X connect 38 0 22 0;
#X connect 38 0 20 0;
#X connect 38 0 43 0;
#X connect 38 0 48 0;
#X connect 39 0 38 0;
#X connect 41 0 40 0;
#X connect 42 0 45 0;
#X connect 43 0 44 0;
#X connect 44 0 42 1;
#X connect 46 0 20 0;
#X connect 46 1 22 0;
#X connect 46 2 24 0;
#X connect 46 3 26 0;
#X connect 46 4 28 0;
#X connect 46 5 30 0;
#X connect 46 6 32 0;
#X connect 46 7 34 0;
#X connect 46 8 36 0;
#X connect 46 9 43 0;
#X connect 46 10 48 0;
#X connect 46 11 41 0;
#X connect 47 0 50 0;
#X connect 48 0 49 0;
#X connect 49 0 47 1;
