#N canvas -3 212 1845 491 12;
#X obj 133 40 inlet;
#X obj 42 250 inlet~;
#X obj 114 301 *~;
#X obj 218 322 throw~ mixer-1;
#X obj 530 322 throw~ mixer-4;
#X obj 426 322 throw~ mixer-3;
#X obj 322 322 throw~ mixer-2;
#X obj 114 322 throw~ master;
#X obj 218 301 *~;
#X obj 321 301 *~;
#X obj 425 301 *~;
#X obj 530 301 *~;
#X obj 634 301 *~;
#X obj 758 301 *~;
#X obj 869 301 *~;
#X obj 1016 301 *~;
#X obj 634 322 throw~ vocoder-in;
#X obj 759 322 throw~ delay-in;
#X obj 870 322 throw~ swelling-in-1;
#X obj 1016 322 throw~ swelling-in-2;
#X msg 133 211 \$1 10;
#X obj 133 235 line~;
#X msg 236 211 \$1 10;
#X obj 236 235 line~;
#X msg 339 211 \$1 10;
#X obj 339 235 line~;
#X msg 443 211 \$1 10;
#X obj 443 235 line~;
#X msg 548 211 \$1 10;
#X obj 548 235 line~;
#X msg 652 211 \$1 10;
#X obj 652 235 line~;
#X msg 776 211 \$1 10;
#X obj 776 235 line~;
#X msg 887 211 \$1 10;
#X obj 887 235 line~;
#X msg 1034 211 \$1 10;
#X obj 1034 235 line~;
#X msg 1390 75 0;
#X obj 1390 51 r reset;
#X obj 1597 165 print patchbay;
#X msg 1597 142 no such target-connection;
#X obj 1162 301 *~;
#X msg 1180 211 \$1 10;
#X obj 1180 235 line~;
#X obj 1162 322 throw~ analyse-in;
#X obj 1288 301 *~;
#X msg 1306 211 \$1 10;
#X obj 1306 235 line~;
#X obj 1288 322 throw~ blur-in;
#X obj 1392 301 *~;
#X msg 1410 211 \$1 10;
#X obj 1410 235 line~;
#X obj 1392 322 throw~ grizzle-in;
#X floatatom 174 236 5 0 0 0 - - pb-master-\$1 0;
#X floatatom 277 236 5 0 0 0 - - pb-mixer-1-\$1 0;
#X floatatom 380 236 5 0 0 0 - - pb-mixer-2-\$1 0;
#X floatatom 484 236 5 0 0 0 - - pb-mixer-3-\$1 0;
#X floatatom 589 236 5 0 0 0 - - pb-mixer-4-\$1 0;
#X floatatom 693 236 5 0 0 0 - - pb-vocoder-in-\$1 0;
#X floatatom 817 236 5 0 0 0 - - pb-delay-in-\$1 0;
#X floatatom 928 235 5 0 0 0 - - pb-swelling-in-1-\$1 0;
#X floatatom 1075 236 5 0 0 0 - - pb-swelling-in-2-\$1 0;
#X floatatom 1221 236 5 0 0 0 - - pb-analyse-in-\$1 0;
#X floatatom 1347 236 5 0 0 0 - - pb-blur-in-\$1 0;
#X floatatom 1451 236 5 0 0 0 - - pb-grizzle-in-\$1 0;
#X obj 1517 301 *~;
#X msg 1535 211 \$1 10;
#X obj 1535 235 line~;
#X floatatom 1576 236 5 0 0 0 - - pb-filter-in-\$1 0;
#X obj 133 64 route master mixer-1 mixer-2 mixer-3 mixer-4 vocoder-in
delay-in swelling-in-1 swelling-in-2 analyse-in blur-in grizzle-in
filter-in, f 165;
#X obj 1517 322 throw~ filter-in;
#X connect 0 0 70 0;
#X connect 1 0 2 0;
#X connect 1 0 8 0;
#X connect 1 0 10 0;
#X connect 1 0 11 0;
#X connect 1 0 13 0;
#X connect 1 0 12 0;
#X connect 1 0 14 0;
#X connect 1 0 15 0;
#X connect 1 0 9 0;
#X connect 1 0 42 0;
#X connect 1 0 46 0;
#X connect 1 0 50 0;
#X connect 1 0 66 0;
#X connect 2 0 7 0;
#X connect 8 0 3 0;
#X connect 9 0 6 0;
#X connect 10 0 5 0;
#X connect 11 0 4 0;
#X connect 12 0 16 0;
#X connect 13 0 17 0;
#X connect 14 0 18 0;
#X connect 15 0 19 0;
#X connect 20 0 21 0;
#X connect 21 0 2 1;
#X connect 22 0 23 0;
#X connect 23 0 8 1;
#X connect 24 0 25 0;
#X connect 25 0 9 1;
#X connect 26 0 27 0;
#X connect 27 0 10 1;
#X connect 28 0 29 0;
#X connect 29 0 11 1;
#X connect 30 0 31 0;
#X connect 31 0 12 1;
#X connect 32 0 33 0;
#X connect 33 0 13 1;
#X connect 34 0 35 0;
#X connect 35 0 14 1;
#X connect 36 0 37 0;
#X connect 37 0 15 1;
#X connect 38 0 36 0;
#X connect 38 0 34 0;
#X connect 38 0 32 0;
#X connect 38 0 30 0;
#X connect 38 0 28 0;
#X connect 38 0 26 0;
#X connect 38 0 24 0;
#X connect 38 0 22 0;
#X connect 38 0 20 0;
#X connect 38 0 43 0;
#X connect 38 0 47 0;
#X connect 38 0 51 0;
#X connect 38 0 54 0;
#X connect 38 0 59 0;
#X connect 38 0 58 0;
#X connect 38 0 57 0;
#X connect 38 0 56 0;
#X connect 38 0 55 0;
#X connect 38 0 61 0;
#X connect 38 0 60 0;
#X connect 38 0 62 0;
#X connect 38 0 63 0;
#X connect 38 0 64 0;
#X connect 38 0 65 0;
#X connect 38 0 69 0;
#X connect 38 0 67 0;
#X connect 39 0 38 0;
#X connect 41 0 40 0;
#X connect 42 0 45 0;
#X connect 43 0 44 0;
#X connect 44 0 42 1;
#X connect 46 0 49 0;
#X connect 47 0 48 0;
#X connect 48 0 46 1;
#X connect 50 0 53 0;
#X connect 51 0 52 0;
#X connect 52 0 50 1;
#X connect 66 0 71 0;
#X connect 67 0 68 0;
#X connect 68 0 66 1;
#X connect 70 0 20 0;
#X connect 70 0 54 0;
#X connect 70 1 22 0;
#X connect 70 1 55 0;
#X connect 70 2 24 0;
#X connect 70 2 56 0;
#X connect 70 3 26 0;
#X connect 70 3 57 0;
#X connect 70 4 28 0;
#X connect 70 4 58 0;
#X connect 70 5 30 0;
#X connect 70 5 59 0;
#X connect 70 6 32 0;
#X connect 70 6 60 0;
#X connect 70 7 34 0;
#X connect 70 7 61 0;
#X connect 70 8 36 0;
#X connect 70 8 62 0;
#X connect 70 9 43 0;
#X connect 70 9 63 0;
#X connect 70 10 47 0;
#X connect 70 10 64 0;
#X connect 70 11 51 0;
#X connect 70 11 65 0;
#X connect 70 12 67 0;
#X connect 70 12 69 0;
#X connect 70 13 41 0;
