#N canvas 19 -18 1920 997 12;
#X obj 133 40 inlet;
#X obj 42 148 inlet~;
#X obj 114 199 *~;
#X obj 218 220 throw~ mixer-1;
#X obj 530 220 throw~ mixer-4;
#X obj 426 220 throw~ mixer-3;
#X obj 322 220 throw~ mixer-2;
#X obj 114 220 throw~ master;
#X obj 218 199 *~;
#X obj 321 199 *~;
#X obj 425 199 *~;
#X obj 530 199 *~;
#X obj 634 199 *~;
#X obj 758 199 *~;
#X obj 869 199 *~;
#X obj 1016 199 *~;
#X obj 634 220 throw~ vocoder-in;
#X obj 759 220 throw~ delay-in;
#X obj 870 220 throw~ swelling-in-1;
#X obj 1016 220 throw~ swelling-in-2;
#X obj 133 64 route master mixer-1 mixer-2 mixer-3 mixer-4 vocoder-in
delay-in swelling-in-1 swelling-in-2, f 112;
#X msg 133 109 \$1 10;
#X obj 133 133 line~;
#X msg 236 109 \$1 10;
#X obj 236 133 line~;
#X msg 339 109 \$1 10;
#X obj 339 133 line~;
#X msg 443 109 \$1 10;
#X obj 443 133 line~;
#X msg 548 109 \$1 10;
#X obj 548 133 line~;
#X msg 652 109 \$1 10;
#X obj 652 133 line~;
#X msg 776 109 \$1 10;
#X obj 776 133 line~;
#X msg 887 109 \$1 10;
#X obj 887 133 line~;
#X msg 1034 109 \$1 10;
#X obj 1034 133 line~;
#X msg 1053 64 0;
#X obj 1053 40 r reset;
#X connect 0 0 20 0;
#X connect 1 0 2 0;
#X connect 1 0 8 0;
#X connect 1 0 10 0;
#X connect 1 0 11 0;
#X connect 1 0 13 0;
#X connect 1 0 12 0;
#X connect 1 0 14 0;
#X connect 1 0 15 0;
#X connect 1 0 9 0;
#X connect 2 0 7 0;
#X connect 8 0 3 0;
#X connect 9 0 6 0;
#X connect 10 0 5 0;
#X connect 11 0 4 0;
#X connect 12 0 16 0;
#X connect 13 0 17 0;
#X connect 14 0 18 0;
#X connect 15 0 19 0;
#X connect 20 0 21 0;
#X connect 20 1 23 0;
#X connect 20 2 25 0;
#X connect 20 3 27 0;
#X connect 20 4 29 0;
#X connect 20 5 31 0;
#X connect 20 6 33 0;
#X connect 20 7 35 0;
#X connect 20 8 37 0;
#X connect 21 0 22 0;
#X connect 22 0 2 1;
#X connect 23 0 24 0;
#X connect 24 0 8 1;
#X connect 25 0 26 0;
#X connect 26 0 9 1;
#X connect 27 0 28 0;
#X connect 28 0 10 1;
#X connect 29 0 30 0;
#X connect 30 0 11 1;
#X connect 31 0 32 0;
#X connect 32 0 12 1;
#X connect 33 0 34 0;
#X connect 34 0 13 1;
#X connect 35 0 36 0;
#X connect 36 0 14 1;
#X connect 37 0 38 0;
#X connect 38 0 15 1;
#X connect 39 0 37 0;
#X connect 39 0 35 0;
#X connect 39 0 33 0;
#X connect 39 0 31 0;
#X connect 39 0 29 0;
#X connect 39 0 27 0;
#X connect 39 0 25 0;
#X connect 39 0 23 0;
#X connect 39 0 21 0;
#X connect 40 0 39 0;
