#N canvas 57 -13 1920 997 12;
#X obj 138 45 delwrite~ delay-1 5000;
#X obj 139 195 delread4~ delay-1 1000;
#X obj 138 21 catch~ delay-in;
#X obj 139 145 \$1 10;
#X obj 139 169 line~;
#X msg 139 97 0;
#X text 25 36 0;
#X text 67 35 1000;
#X obj 23 55 bng 19 250 50 0 delay-time-1-0 empty empty 0 -10 0 12
#fcfcfc #000000 #000000;
#X obj 75 56 bng 19 250 50 0 delay-time-1-1000 empty empty 0 -10 0
12 #fcfcfc #000000 #000000;
#X obj 139 74 r delay-time-1-0;
#X obj 189 98 r delay-time-1-1000;
#X obj 517 219 delread4~ delay-1 1000;
#X obj 139 221 s~ delay-out-1;
#X obj 623 13 r analysis-pitch;
#X obj 623 37 moses 10;
#X obj 676 67 mtof;
#X msg 676 120 \$1 100;
#X obj 676 145 line~;
#X obj 676 95 expr (1 / $f1) * 1000;
#X obj 677 219 delread4~ delay-1 1000;
#X obj 837 219 delread4~ delay-1 1000;
#X obj 589 498 s~ delay-out-4;
#X obj 831 86 s fdbpitch;
#X msg 189 120 1000;
#X obj 516 198 *~ 1;
#X obj 677 198 *~ 5;
#X obj 837 198 *~ 13;
#X obj 1018 67 vsl 19 162 0 1 0 0 empty empty empty 0 -9 0 12 #fcfcfc
#000000 #000000 0 1;
#X msg 1018 237 \$1 10;
#X obj 1018 261 line~;
#X obj 1063 67 vsl 19 162 0 1 0 0 empty empty empty 0 -9 0 12 #fcfcfc
#000000 #000000 0 1;
#X msg 1063 237 \$1 10;
#X obj 1063 261 line~;
#X obj 414 240 *~;
#X obj 517 240 *~;
#X obj 904 360 throw~ analyse-in;
#X obj 1108 67 vsl 19 162 0 1 0 0 empty empty empty 0 -9 0 12 #fcfcfc
#000000 #000000 0 1;
#X msg 1108 237 \$1 10;
#X obj 1108 261 line~;
#X obj 676 240 *~;
#X obj 413 219 r~ delay-out-1;
#X obj 1153 67 vsl 19 162 0 1 0 0 empty empty empty 0 -9 0 12 #fcfcfc
#000000 #000000 0 1;
#X msg 1153 237 \$1 10;
#X obj 1153 261 line~;
#X obj 836 240 *~;
#X obj 417 321 r fdbpitch;
#X msg 417 347 \$1 10;
#X obj 417 371 line;
#X obj 380 421 expr~ -$v1;
#X obj 380 445 +~;
#X obj 560 311 +~;
#X floatatom 371 345 5 0 0 0 - - - 0;
#X obj 905 331 spigot~;
#X obj 951 311 tgl 15 0 empty empty empty 17 7 0 10 #fcfcfc #000000
#000000 0 1;
#X obj 380 472 hip~ 1;
#X obj 380 396 bp~ 100 200;
#X obj 381 498 s~ delay-out-2;
#X obj 484 472 hip~ 800;
#X obj 485 498 s~ delay-out-3;
#X msg 856 569 \; patchbay audio-in analyse-in 1 \; patchbay audio-in
delay-in 1 \; patchbay delay-out-3 mixer-2 1 \; enable-stablizer 1
\; stablizer 0.1 \; fader-2 0.8 \; fader-0 1 \;, f 52;
#X connect 1 0 13 0;
#X connect 2 0 0 0;
#X connect 3 0 4 0;
#X connect 4 0 1 0;
#X connect 5 0 3 0;
#X connect 10 0 5 0;
#X connect 11 0 24 0;
#X connect 12 0 35 0;
#X connect 14 0 15 0;
#X connect 15 1 16 0;
#X connect 16 0 19 0;
#X connect 16 0 23 0;
#X connect 17 0 18 0;
#X connect 18 0 25 0;
#X connect 18 0 26 0;
#X connect 18 0 27 0;
#X connect 19 0 17 0;
#X connect 20 0 40 0;
#X connect 21 0 45 0;
#X connect 24 0 3 0;
#X connect 25 0 12 0;
#X connect 26 0 20 0;
#X connect 27 0 21 0;
#X connect 28 0 29 0;
#X connect 29 0 30 0;
#X connect 30 0 34 1;
#X connect 31 0 32 0;
#X connect 32 0 33 0;
#X connect 33 0 35 1;
#X connect 34 0 51 0;
#X connect 35 0 51 0;
#X connect 37 0 38 0;
#X connect 38 0 39 0;
#X connect 39 0 40 1;
#X connect 40 0 51 0;
#X connect 41 0 34 0;
#X connect 42 0 43 0;
#X connect 43 0 44 0;
#X connect 44 0 45 1;
#X connect 45 0 51 0;
#X connect 46 0 47 0;
#X connect 46 0 52 0;
#X connect 47 0 48 0;
#X connect 48 0 56 1;
#X connect 49 0 50 0;
#X connect 50 0 55 0;
#X connect 50 0 58 0;
#X connect 51 0 53 0;
#X connect 51 0 50 1;
#X connect 51 0 56 0;
#X connect 51 0 22 0;
#X connect 53 0 36 0;
#X connect 54 0 53 1;
#X connect 55 0 57 0;
#X connect 56 0 49 0;
#X connect 58 0 59 0;
#X coords 0 -1 1 1 115 70 1 10 10;
