#N canvas 233 223 1623 696 12;
#X obj 192 46 delwrite~ delay-1 5000;
#X obj 200 216 delread4~ delay-1 1000;
#X obj 192 22 catch~ delay-in;
#X obj 200 166 \$1 10;
#X obj 200 190 line~;
#X msg 200 118 0;
#X text 25 36 0;
#X text 67 35 1000;
#X obj 23 55 bng 19 250 50 0 delay-time-1-0 empty empty 0 -10 0 12
#fcfcfc #000000 #000000;
#X obj 75 56 bng 19 250 50 0 delay-time-1-1000 empty empty 0 -10 0
12 #fcfcfc #000000 #000000;
#X obj 200 95 r delay-time-1-0;
#X obj 250 119 r delay-time-1-1000;
#X obj 405 270 delread4~ delay-1 1000;
#X obj 404 296 s~ delay-out-2;
#X obj 200 242 s~ delay-out-1;
#X obj 595 7 r analysis-pitch;
#X obj 595 31 moses 10;
#X obj 648 61 mtof;
#X msg 648 114 \$1 100;
#X obj 648 139 line~;
#X obj 648 89 expr (1 / $f1) * 1000;
#X obj 577 264 delread4~ delay-1 1000;
#X obj 740 266 delread4~ delay-1 1000;
#X obj 577 290 s~ delay-out-3;
#X obj 740 292 s~ delay-out-4;
#X msg 250 141 1;
#X obj 577 236 *~ 2;
#X obj 740 237 *~ 3;
#X obj 404 242 *~ 1;
#X obj 803 80 s fdbpitch;
#X connect 1 0 14 0;
#X connect 2 0 0 0;
#X connect 3 0 4 0;
#X connect 4 0 1 0;
#X connect 5 0 3 0;
#X connect 10 0 5 0;
#X connect 11 0 25 0;
#X connect 12 0 13 0;
#X connect 15 0 16 0;
#X connect 16 1 17 0;
#X connect 17 0 20 0;
#X connect 17 0 29 0;
#X connect 18 0 19 0;
#X connect 19 0 26 0;
#X connect 19 0 27 0;
#X connect 19 0 28 0;
#X connect 20 0 18 0;
#X connect 21 0 23 0;
#X connect 22 0 24 0;
#X connect 25 0 3 0;
#X connect 26 0 21 0;
#X connect 27 0 22 0;
#X connect 28 0 12 0;
#X coords 0 -1 1 1 115 70 1 10 10;
