#N canvas -12 -16 1920 997 12;
#X obj 138 45 delwrite~ delay-1 5000;
#X obj 139 195 delread4~ delay-1 1000;
#X obj 138 21 catch~ delay-in;
#X obj 139 145 \$1 10;
#X obj 139 169 line~;
#X msg 139 97 0;
#X text 25 36 0;
#X text 67 35 1000;
#X obj 23 55 bng 19 250 50 0 delay-time-1-0 empty empty 0 -10 0 12
#fcfcfc #000000 #000000;
#X obj 75 56 bng 19 250 50 0 delay-time-1-1000 empty empty 0 -10 0
12 #fcfcfc #000000 #000000;
#X obj 139 74 r delay-time-1-0;
#X obj 189 98 r delay-time-1-1000;
#X obj 517 234 delread4~ delay-1 1000;
#X obj 139 221 s~ delay-out-1;
#X obj 623 7 r analysis-pitch;
#X obj 623 31 moses 10;
#X obj 676 56 mtof;
#X obj 676 176 line~;
#X obj 676 126 expr (1 / $f1) * 1000;
#X obj 677 234 delread4~ delay-1 1000;
#X obj 837 234 delread4~ delay-1 1000;
#X obj 589 513 s~ delay-out-4;
#X obj 676 78 s fdbpitch;
#X msg 189 120 1000;
#X obj 1018 82 vsl 19 162 0 1 0 0 empty delay-1-slider empty 0 -9 0
12 #fcfcfc #000000 #000000 0 1;
#X msg 1018 252 \$1 10;
#X obj 1018 276 line~;
#X obj 1063 82 vsl 19 162 0 1 0 0 empty delay-2-slider empty 0 -9 0
12 #fcfcfc #000000 #000000 0 1;
#X msg 1063 252 \$1 10;
#X obj 1063 276 line~;
#X obj 414 255 *~;
#X obj 517 255 *~;
#X obj 1108 82 vsl 19 162 0 1 0 0 empty delay-3-slider empty 0 -9 0
12 #fcfcfc #000000 #000000 0 1;
#X msg 1108 252 \$1 10;
#X obj 1108 276 line~;
#X obj 676 255 *~;
#X obj 413 234 r~ delay-out-1;
#X obj 1153 82 vsl 19 162 0 1 0 0 empty delay-4-slider empty 0 -9 0
12 #fcfcfc #000000 #000000 0 1;
#X msg 1153 252 \$1 10;
#X obj 1153 276 line~;
#X obj 836 255 *~;
#X obj 417 336 r fdbpitch;
#X msg 417 362 \$1 10;
#X obj 417 386 line;
#X obj 380 436 expr~ -$v1;
#X obj 380 460 +~;
#X obj 560 326 +~;
#X floatatom 371 360 5 0 0 0 - - - 0;
#X obj 380 487 hip~ 1;
#X obj 380 411 bp~ 100 200;
#X obj 381 513 s~ delay-out-2;
#X msg 676 151 \$1 200;
#X obj 516 213 *~;
#X msg 460 160 \$1 10;
#X obj 460 184 line~;
#X floatatom 399 143 5 0 0 0 - - - 0;
#X obj 677 213 *~ 5;
#X obj 460 136 r del-line-mult;
#N canvas 234 234 574 406 sliders 0;
#X obj 10 5 phasor~ 0.2;
#X obj 10 29 unsig~ 10;
#X obj 10 207 expr 0.5+ (0.5 * sin(2 * 3.1415 * $f1));
#X obj 25 143 expr 0.5+ (0.5 * sin(2 * 3.1415 * $f1));
#X obj 80 78 expr 0.5+ (0.5 * sin(2 * 3.1415 * $f1));
#X obj 25 122 + 0.33;
#X obj 80 56 + 0.66;
#X obj 10 251 s delay-2-slider;
#X obj 80 122 s delay-4-slider;
#X obj 25 185 s delay-3-slider;
#X obj 80 100 spigot;
#X obj 25 164 spigot;
#X obj 10 229 spigot;
#X obj 345 127 tgl 15 0 empty delay-slider-automation empty 17 7 0
10 #fcfcfc #000000 #000000 0 1;
#X connect 0 0 1 0;
#X connect 1 0 2 0;
#X connect 1 0 5 0;
#X connect 1 0 6 0;
#X connect 2 0 12 0;
#X connect 3 0 11 0;
#X connect 4 0 10 0;
#X connect 5 0 3 0;
#X connect 6 0 4 0;
#X connect 10 0 8 0;
#X connect 11 0 9 0;
#X connect 12 0 7 0;
#X connect 13 0 10 1;
#X connect 13 0 11 1;
#X connect 13 0 12 1;
#X coords 0 -1 1 1 115 70 1 300 100;
#X restore 1197 126 pd sliders;
#X obj 676 103 r fdbpitch;
#X obj 837 213 *~ 7;
#X obj 459 468 r hipass-freq;
#X obj 254 511 s~ delay-out-3;
#X connect 1 0 13 0;
#X connect 2 0 0 0;
#X connect 3 0 4 0;
#X connect 4 0 1 0;
#X connect 5 0 3 0;
#X connect 10 0 5 0;
#X connect 11 0 23 0;
#X connect 12 0 31 0;
#X connect 14 0 15 0;
#X connect 15 1 16 0;
#X connect 16 0 22 0;
#X connect 17 0 52 0;
#X connect 18 0 51 0;
#X connect 19 0 35 0;
#X connect 20 0 40 0;
#X connect 23 0 3 0;
#X connect 24 0 25 0;
#X connect 25 0 26 0;
#X connect 26 0 30 1;
#X connect 27 0 28 0;
#X connect 28 0 29 0;
#X connect 29 0 31 1;
#X connect 30 0 46 0;
#X connect 31 0 46 0;
#X connect 32 0 33 0;
#X connect 33 0 34 0;
#X connect 34 0 35 1;
#X connect 35 0 46 0;
#X connect 36 0 30 0;
#X connect 37 0 38 0;
#X connect 38 0 39 0;
#X connect 39 0 40 1;
#X connect 40 0 46 0;
#X connect 41 0 42 0;
#X connect 41 0 47 0;
#X connect 42 0 43 0;
#X connect 43 0 49 1;
#X connect 44 0 45 0;
#X connect 45 0 48 0;
#X connect 46 0 45 1;
#X connect 46 0 21 0;
#X connect 46 0 49 0;
#X connect 48 0 50 0;
#X connect 49 0 44 0;
#X connect 49 0 62 0;
#X connect 51 0 17 0;
#X connect 52 0 12 0;
#X connect 52 0 56 0;
#X connect 52 0 60 0;
#X connect 53 0 54 0;
#X connect 54 0 52 1;
#X connect 56 0 19 0;
#X connect 57 0 53 0;
#X connect 57 0 55 0;
#X connect 59 0 18 0;
#X connect 60 0 20 0;
#X connect 61 0 48 1;
#X coords 0 -1 1 1 115 70 1 10 10;
