#N canvas 277 167 1473 638 12;
#X obj 192 46 delwrite~ delay-1 5000;
#X obj 200 216 delread4~ delay-1 1000;
#X obj 192 22 catch~ delay-in;
#X obj 200 166 \$1 10;
#X obj 200 190 line~;
#X msg 200 118 0;
#X msg 250 141 1000;
#X text 25 36 0;
#X text 67 35 1000;
#X obj 23 55 bng 19 250 50 0 delay-time-1-0 empty empty 0 -10 0 12 #fcfcfc #000000 #000000;
#X obj 75 56 bng 19 250 50 0 delay-time-1-1000 empty empty 0 -10 0 12 #fcfcfc #000000 #000000;
#X obj 200 95 r delay-time-1-0;
#X obj 250 119 r delay-time-1-1000;
#X obj 404 216 delread4~ delay-1 1000;
#X obj 404 166 \$1 10;
#X obj 404 190 line~;
#X msg 404 118 0;
#X msg 454 141 1000;
#X obj 404 95 r delay-time-1-0;
#X obj 454 119 r delay-time-1-1000;
#X obj 404 242 s~ delay-out-2;
#X obj 200 242 s~ delay-out-1;
#X connect 1 0 21 0;
#X connect 2 0 0 0;
#X connect 3 0 4 0;
#X connect 4 0 1 0;
#X connect 5 0 3 0;
#X connect 6 0 3 0;
#X connect 11 0 5 0;
#X connect 12 0 6 0;
#X connect 13 0 20 0;
#X connect 14 0 15 0;
#X connect 15 0 13 0;
#X connect 16 0 14 0;
#X connect 17 0 14 0;
#X connect 18 0 16 0;
#X connect 19 0 17 0;
#X coords 0 -1 1 1 115 70 1 10 10;
