#N canvas 564 307 459 319 10;
#X obj 82 30 inlet~;
#X obj 187 30 inlet~;
#X obj 171 213 outlet~;
#X obj 186 149 *~;
#X obj 141 140 *~;
#X obj 170 186 +~;
#X text 16 30 dry audio;
#X text 126 32 wet audio;
#X obj 264 30 inlet;
#X obj 264 81 expr 1 - $f1;
#X msg 202 77 \$1 10;
#X obj 202 98 line~;
#X msg 264 102 \$1 10;
#X obj 264 123 line~;
#X obj 326 35 loadbang;
#X msg 326 56 1;
#X connect 0 0 4 0;
#X connect 1 0 3 0;
#X connect 3 0 5 1;
#X connect 4 0 5 0;
#X connect 5 0 2 0;
#X connect 8 0 9 0;
#X connect 8 0 10 0;
#X connect 9 0 12 0;
#X connect 10 0 11 0;
#X connect 11 0 3 1;
#X connect 12 0 13 0;
#X connect 13 0 4 1;
#X connect 14 0 15 0;
#X connect 15 0 9 0;
#X connect 15 0 10 0;
