#N canvas 1183 348 664 477 10;
#X obj 124 82 inlet~;
#X obj 230 82 inlet~;
#X obj 204 374 outlet~;
#X obj 263 201 *~;
#X obj 177 201 *~;
#X obj 223 294 +~;
#X text 58 82 dry audio;
#X text 169 84 wet audio;
#X obj 317 53 inlet;
#X floatatom 317 74 5 0 0 0 - - -;
#X obj 349 137 cyclone/rminus 1;
#X floatatom 349 158 5 0 0 0 - - -;
#X connect 0 0 4 0;
#X connect 1 0 3 0;
#X connect 3 0 5 1;
#X connect 4 0 5 0;
#X connect 5 0 2 0;
#X connect 8 0 9 0;
#X connect 8 0 10 0;
#X connect 9 0 3 1;
#X connect 10 0 4 1;
#X connect 10 0 11 0;
