#N canvas 237 196 746 505 10;
#X obj 1 2 cnv 15 380 500 empty empty empty 20 12 0 14 #e0e0e0 #404040
0;
#X obj 537 164 cnv 15 118 17 empty empty empty 20 12 0 14 #fc8000 #404040
0;
#N canvas 114 158 552 576 control-messages 0;
#X obj 88 539 outlet;
#X msg 202 206 compression \$1;
#X msg 202 291 expansion \$1;
#X msg 202 381 gain \$1;
#X msg 202 464 dry/wet \$1;
#X msg 202 423 lookahead \$1;
#X floatatom 202 145 5 -100 0 0 - - - 0;
#X floatatom 202 187 5 0 0 0 - - - 0;
#X floatatom 202 272 5 0 0 0 - - - 0;
#X floatatom 202 359 5 0 0 0 - - - 0;
#X floatatom 202 444 5 0 0 0 - - - 0;
#X floatatom 202 403 5 0 0 0 - - - 0;
#X text 260 381 makeup gain(db);
#X text 288 422 lookahead delay in samples;
#X text 237 444 %;
#X text 239 269 %;
#X text 239 186 %;
#X msg 119 89 attack \$1;
#X msg 127 132 release \$1;
#X floatatom 119 70 5 0 1e+10 0 - - - 0;
#X floatatom 127 111 5 0 1e+11 0 - - - 0;
#X text 126 19 envelope detection method;
#X text 195 99 attack/release time(msec.);
#X msg 202 164 threshold-compress \$1;
#X text 335 165 compression threshold level(db);
#X floatatom 202 227 5 -100 0 0 - - - 0;
#X msg 202 247 threshold-expand \$1;
#X text 326 249 expansion threshold level(db);
#X msg 87 11 rms;
#X msg 99 36 peak;
#X floatatom 202 313 5 0 100 0 - - - 0;
#X text 239 310 %;
#X msg 202 333 smooth \$1;
#X obj 201 497 cnv 16 87 16 empty empty empty 20 12 0 14 #fc8000 #404040
0;
#N canvas 864 246 634 307 save&recall 0;
#X obj 93 233 outlet;
#X msg 93 60 0;
#X msg 125 60 1;
#X msg 158 60 2;
#X msg 93 99 save \$1;
#X text 185 63 ...;
#X msg 207 60 20;
#X msg 149 154 0;
#X msg 181 154 1;
#X msg 214 154 2;
#X text 241 157 ...;
#X msg 263 154 20;
#X msg 149 193 recall \$1;
#X text 249 93 save & recall up to 20 presets \, presets will be saved
with the parrent patch;
#X connect 1 0 4 0;
#X connect 2 0 4 0;
#X connect 3 0 4 0;
#X connect 4 0 0 0;
#X connect 6 0 4 0;
#X connect 7 0 12 0;
#X connect 8 0 12 0;
#X connect 9 0 12 0;
#X connect 11 0 12 0;
#X connect 12 0 0 0;
#X restore 201 496 pd save&recall;
#X connect 1 0 0 0;
#X connect 2 0 0 0;
#X connect 3 0 0 0;
#X connect 4 0 0 0;
#X connect 5 0 0 0;
#X connect 6 0 23 0;
#X connect 7 0 1 0;
#X connect 8 0 2 0;
#X connect 9 0 3 0;
#X connect 10 0 4 0;
#X connect 11 0 5 0;
#X connect 17 0 0 0;
#X connect 18 0 0 0;
#X connect 19 0 17 0;
#X connect 20 0 18 0;
#X connect 23 0 0 0;
#X connect 25 0 26 0;
#X connect 26 0 0 0;
#X connect 28 0 0 0;
#X connect 29 0 0 0;
#X connect 30 0 32 0;
#X connect 32 0 0 0;
#X connect 34 0 0 0;
#X restore 537 164 pd control-messages;
#X text 90 104 1:(~)signal;
#X text 32 105 Inlets:;
#X text 32 145 Outlets:;
#X obj 12 20 cnv 15 10 10 empty empty pp.dynamics~ 0 0 2 16 #e0e0e0
#fcfcfc 0;
#X obj 5 477 cnv 15 81 17 empty empty empty 20 12 0 14 #fc8000 #404040
0;
#N canvas 599 176 505 104 references 0;
#X obj 2 1 cnv 15 500 100 empty empty empty 20 12 0 14 #000000 #404040
0;
#X obj 3 2 cnv 15 498 98 empty empty empty 20 12 0 14 #e0e0e0 #404040
0;
#X text 21 76 http://yehar.com/blog/?p=368;
#X text 21 61 http://www.katjaas.nl/hilbert/hilbert.html;
#X text 20 23 this abstraction uses Olli Niemitalo's quadrature transform
coefficients that katja intruduced in her blog instead of [hilbert~]
;
#X restore 5 477 pd references;
#N canvas 251 299 699 351 testsignal 0;
#X obj 162 320 outlet~;
#X obj 43 146 line~;
#X obj 43 168 pow~ 4;
#X obj 44 205 bp~ 100 100;
#X msg 43 123 1 \, 0 2;
#X obj 44 226 *~ 250;
#X obj 175 181 noise~;
#X obj 43 99 metro 700;
#X obj 43 53 loadbang;
#X obj 43 74 tgl 15 0 empty empty empty 17 7 0 10 #fcfcfc #000000 #000000
0 1;
#X obj 175 204 *~ 0.01;
#X obj 161 276 +~;
#X connect 1 0 2 0;
#X connect 2 0 3 0;
#X connect 3 0 5 0;
#X connect 4 0 1 0;
#X connect 5 0 11 0;
#X connect 6 0 10 0;
#X connect 7 0 4 0;
#X connect 8 0 9 0;
#X connect 9 0 7 0;
#X connect 10 0 11 1;
#X connect 11 0 0 0;
#X restore 389 46 pd testsignal;
#X text 90 145 1:(~)signal;
#X text 90 157 2:(~)sidechain;
#X text 90 169 3:message;
#X text 30 70 Creation arguments:none;
#X text 19 43 compressor/expander;
#X text 548 206 <-- click to open GUI;
#X text 90 117 2:control-messages;
#N canvas 0 50 450 250 (subpatch) 0;
#X array \$0-wf 48000 float 2;
#X coords 0 1 48000 -1 250 120 1 0 0;
#X restore 33 212 graph;
#N canvas 269 230 450 300 stuff 0;
#X obj 82 14 loadbang;
#X obj 82 74 samplerate~;
#X obj 82 97 pack 44100 \$0;
#X msg 82 120 \; \$2-wf resize \$1 \; \$2-env resize \$1;
#X obj 213 76 tgl 15 0 empty empty empty 17 7 0 10 #fcfcfc #000000
#000000 0 1;
#X obj 213 99 metro 1000;
#X obj 213 122 s \$0-draw;
#X connect 0 0 1 0;
#X connect 0 0 4 0;
#X connect 1 0 2 0;
#X connect 2 0 3 0;
#X connect 4 0 5 0;
#X connect 5 0 6 0;
#X restore 324 8 pd stuff;
#N canvas 0 50 450 250 (subpatch) 0;
#X array \$0-env 48000 float 2;
#X coords 0 1 48000 0 250 120 1 0 0;
#X restore 33 347 graph;
#X obj 463 339 tabwrite~ \$0-env;
#X obj 505 318 r \$0-draw;
#X obj 405 98 tabwrite~ \$0-wf;
#X obj 442 77 r \$0-draw;
#N canvas 893 371 414 180 message-out 0;
#X obj 20 20 inlet;
#X msg 20 47 threshold-compress -1 \, threshold-expand -100 \, attack
0 \, release 70 \, compression 100 \, expansion 0 \, smooth 0 \, gain
0 \, dry/wet 100 \, lookahead 64 \, 0 \,;
#X connect 0 0 1 0;
#X restore 537 239 pd message-out;
#X obj 391 472 dac~;
#X obj 389 192 dynamics~;
#A saved;
#A saved;
#A saved;
#A saved;
#A saved;
#A saved;
#A saved;
#A saved;
#A saved;
#A saved;
#A saved;
#A saved;
#A saved;
#A saved;
#A saved;
#A saved;
#A saved;
#A saved;
#A saved;
#A saved;
#A saved;
#X connect 2 0 26 1;
#X connect 9 0 22 0;
#X connect 9 0 26 0;
#X connect 21 0 20 0;
#X connect 23 0 22 0;
#X connect 26 0 25 0;
#X connect 26 0 25 1;
#X connect 26 1 20 0;
#X connect 26 2 24 0;
