#N canvas 571 451 450 300 12;
#X obj 4 9 catch~ filter-in;
#X obj 4 87 bob~;
#X obj 95 42 r filter-freq;
#X obj 192 42 r filter-q;
#X obj 4 111 s~ filter-out;
#X floatatom 114 140 5 0 0 2 freq - - 0;
#X floatatom 161 140 5 0 0 2 Q - - 0;
#X connect 0 0 1 0;
#X connect 1 0 4 0;
#X connect 2 0 5 0;
#X connect 3 0 6 0;
#X connect 5 0 1 1;
#X connect 6 0 1 2;
#X coords 0 -1 1 1 115 70 1 100 100;
