#N canvas 289 511 1178 269 12;
#X obj 110 18 s init;
#X msg 215 60 0;
#X obj 9 153 samplerate~;
#X obj 9 177 s samplerate;
#X obj 403 89 s enable-stablizer;
#X msg 403 60 1;
#X obj 215 84 s vocoder-mix;
#X obj 123 84 s fader-0;
#X obj 123 105 s fader-1;
#X obj 123 126 s fader-2;
#X obj 123 147 s fader-3;
#X obj 123 168 s fader-4;
#X obj 9 20 s reset;
#X obj 9 41 r reset;
#X obj 9 -1 loadbang;
#X msg 123 60 0;
#X obj 622 41 s auto-level-target;
#X text 583 -3 auto-level target;
#X obj 770 41 s feedback-multiplier;
#X msg 770 18 1;
#X text 768 -2 feedback multiplier;
#X msg 543 60 1;
#X obj 543 84 s blur-mix;
#X msg 71 210 10000;
#X obj 71 234 s filter-freq;
#X obj 123 202 s filter-q;
#X msg 315 60 1;
#X obj 315 84 s vocoder-q;
#X obj 215 148 s vocoder-speed;
#X msg 215 106 100;
#X obj 215 127 s vocoder-speed-t;
#X obj 215 186 s delay-slider-automation;
#X msg 622 60 \; sweller-1 line 0 \, osc-freq 1 \, osc-amp 0 \; sweller-2
line 0 \, osc-freq 1 \, osc-amp 0 \; reset-1 bang \; reset-2 bang \;
reset-sample-1 bang \; reset-sample-2 bang \;;
#X msg 622 18 80;
#X obj 403 186 s del-line-mult;
#X connect 1 0 6 0;
#X connect 1 0 31 0;
#X connect 2 0 3 0;
#X connect 5 0 4 0;
#X connect 5 0 34 0;
#X connect 13 0 15 0;
#X connect 13 0 1 0;
#X connect 13 0 2 0;
#X connect 13 0 5 0;
#X connect 13 0 21 0;
#X connect 13 0 32 0;
#X connect 13 0 23 0;
#X connect 13 0 26 0;
#X connect 13 0 29 0;
#X connect 14 0 12 0;
#X connect 14 0 0 0;
#X connect 14 0 33 0;
#X connect 14 0 19 0;
#X connect 15 0 7 0;
#X connect 15 0 8 0;
#X connect 15 0 9 0;
#X connect 15 0 10 0;
#X connect 15 0 11 0;
#X connect 15 0 25 0;
#X connect 19 0 18 0;
#X connect 21 0 22 0;
#X connect 23 0 24 0;
#X connect 26 0 27 0;
#X connect 29 0 28 0;
#X connect 29 0 30 0;
#X connect 33 0 16 0;
