#N canvas 552 222 913 472 12;
#X text 304 26 mic-in;
#X text 356 26 midi-in;
#X obj 372 52 bng 19 250 50 0 empty show-midi-in empty 0 -10 0 12 #fcfcfc
#000000 #000000;
#X floatatom 19 120 5 0 0 0 - - - 0;
#X obj 19 167 s mic-in-true;
#X obj 321 52 tgl 19 0 empty mic-in-true empty 0 -10 0 12 #fcfcfc #000000
#000000 0 1;
#X obj 96 114 s~ mic-in;
#X obj 364 115 r~ mic-in;
#X obj 364 201 s~ audio-in;
#X obj 484 200 s~ patch-in;
#X obj 19 96 env~;
#X obj 276 195 unsig~;
#X obj 276 219 rmstodb;
#X obj 276 243 s mic-to-auto-level;
#X obj 276 171 RMS~ 0.5;
#N canvas 650 328 880 349 mic-level 0;
#X obj 20 16 inlet~;
#X obj 20 162 outlet~;
#X obj 20 91 *~;
#X obj 111 1 loadbang;
#X obj 111 72 line~;
#X floatatom 210 101 5 0 0 0 - - - 0;
#X msg 111 48 \$1 100;
#X msg 111 25 1;
#X obj 210 29 r auto-mic-level;
#X connect 0 0 2 0;
#X connect 2 0 1 0;
#X connect 3 0 7 0;
#X connect 4 0 2 1;
#X connect 6 0 4 0;
#X connect 7 0 6 0;
#X connect 8 0 6 0;
#X connect 8 0 5 0;
#X coords 0 -1 1 1 150 20 1 100 100;
#X restore 95 87 pd mic-level;
#X obj 392 169 catch~ feedback-patch-in;
#X obj 18 12 adc~ 1 2;
#X obj 87 277 bonk~;
#X obj 87 305 bng 15 250 50 0 empty empty empty 17 7 0 10 #fcfcfc #000000
#000000;
#X msg 99 248 minvel 15;
#X obj 363 143 hip~ 20;
#X obj 159 13 ctlin;
#X obj 159 37 s show-midi-in;
#X obj 205 13 notein;
#X obj 19 143 > 30;
#X connect 3 0 25 0;
#X connect 7 0 14 0;
#X connect 7 0 21 0;
#X connect 10 0 3 0;
#X connect 11 0 12 0;
#X connect 12 0 13 0;
#X connect 14 0 11 0;
#X connect 15 0 6 0;
#X connect 16 0 9 0;
#X connect 16 0 8 0;
#X connect 17 0 10 0;
#X connect 17 0 15 0;
#X connect 17 0 18 0;
#X connect 17 1 10 0;
#X connect 17 1 15 0;
#X connect 18 0 19 0;
#X connect 20 0 18 0;
#X connect 21 0 8 0;
#X connect 22 0 23 0;
#X connect 24 0 23 0;
#X connect 25 0 4 0;
#X coords 0 -1 1 1 115 70 1 300 10;
