#N canvas 806 305 773 531 12;
#X obj 20 18 inlet~;
#X floatatom 256 211 5 0 0 0 - - - 0;
#X msg 472 54 10;
#X obj 256 173 expr (($f1 - $f3) / $f2) - $f1 + $f3;
#X obj 472 29 loadbang;
#X obj 221 74 env~ 1024;
#X floatatom 256 149 5 0 0 0 - - - 0;
#X text 510 52 Limitierungs- Faktor;
#X text 274 34 Schwelle / Referenz;
#X obj 256 296 dbtorms;
#X floatatom 256 330 12 0 0 0 - - - 0;
#X floatatom 256 272 5 0 0 0 - - - 0;
#X obj 256 245 expr 100 + $f1;
#X text 361 322 Korrekturfaktor für rms-Wert des Eingangssignals;
#X text 382 280 Umrechnung;
#X obj 20 482 outlet~;
#X obj 20 455 *~;
#X obj 67 437 line~;
#X text 117 412 attack: 20 ms;
#X obj 221 125 moses;
#X floatatom 221 100 5 0 0 0 - - - 0;
#X text 303 210 Wert \, um den Signal gemindert werden muss;
#X msg 221 297 1;
#X obj 221 150 bng 15 250 50 0 empty empty empty 0 -6 0 8 #fcfcfc #000000
#000000;
#X msg 66 360 \$1 20;
#X text 116 360 release: 20 ms;
#X obj 20 151 delread~ comp;
#X text 260 457 Johannes Kreidler;
#X text 256 481 www.pd-tutorial.com;
#X obj 20 79 delwrite~ comp 50;
#X obj 20 109 loadbang;
#X msg 20 130 50;
#X msg 325 71 95;
#X msg 67 413 \$1 15;
#X connect 0 0 5 0;
#X connect 0 0 29 0;
#X connect 1 0 12 0;
#X connect 2 0 3 1;
#X connect 3 0 1 0;
#X connect 4 0 2 0;
#X connect 4 0 32 0;
#X connect 5 0 20 0;
#X connect 6 0 3 0;
#X connect 9 0 10 0;
#X connect 10 0 33 0;
#X connect 11 0 9 0;
#X connect 12 0 11 0;
#X connect 16 0 15 0;
#X connect 17 0 16 1;
#X connect 19 0 23 0;
#X connect 19 1 6 0;
#X connect 20 0 19 0;
#X connect 22 0 24 0;
#X connect 23 0 22 0;
#X connect 24 0 17 0;
#X connect 26 0 16 0;
#X connect 30 0 31 0;
#X connect 31 0 26 0;
#X connect 32 0 3 2;
#X connect 32 0 19 1;
#X connect 33 0 17 0;
