#N canvas 100 421 580 282 12;
#X obj 20 27 inlet;
#X obj 101 77 f \$1;
#X obj 37 155 line;
#X msg 101 98 \$1;
#X msg 20 108 \$1 \$2;
#X obj 37 204 s \$4;
#X obj 20 87 pack \$2 \$3;
#X obj 37 179 expr pow((($f1 - \$1) / (\$2 - \$1)) \, if (\$5==0 \, 1 \, \$5)) * (\$2 - \$1) + \$1, f 71;
#X text 298 58 creation arguments: \; 1 start-val \; 2 target \; 3 time \; 4 send \; 5 exponent \; 6 don't use startval \;;
#X obj 154 77 f \$6;
#X obj 101 124 spigot 1;
#X obj 154 99 == 0;
#X obj 20 47 t b b b;
#X connect 0 0 12 0;
#X connect 1 0 3 0;
#X connect 2 0 7 0;
#X connect 3 0 10 0;
#X connect 4 0 2 0;
#X connect 6 0 4 0;
#X connect 7 0 5 0;
#X connect 9 0 11 0;
#X connect 10 0 2 0;
#X connect 11 0 10 1;
#X connect 12 0 6 0;
#X connect 12 1 1 0;
#X connect 12 2 9 0;
