#N canvas 160 449 821 367 12;
#X obj 72 31 inlet;
#X obj 153 81 f \$1;
#X obj 89 159 line;
#X msg 153 102 \$1;
#X msg 72 112 \$1 \$2;
#X obj 89 208 s \$4;
#X obj 72 91 pack \$2 \$3;
#X obj 89 183 expr pow((($f1 - \$1) / (\$2 - \$1)) \, if (\$5==0 \,
1 \, \$5)) * (\$2 - \$1) + \$1, f 71;
#X obj 206 81 f \$6;
#X obj 153 128 spigot 1;
#X obj 206 103 == 0;
#X obj 72 51 t b b b;
#X obj 265 80 r \$4;
#X obj 247 103 f 0;
#X obj 235 132 spigot 0;
#X text 536 19 creation arguments: \; 1 start-val \; 2 target \; 3
time \; 4 send \; 5 exponent \; 6 0 or 1 = don't use startval \;;
#X obj 6 104 r reset;
#X msg 6 128 stop;
#X connect 0 0 11 0;
#X connect 1 0 3 0;
#X connect 2 0 7 0;
#X connect 3 0 9 0;
#X connect 4 0 2 0;
#X connect 6 0 4 0;
#X connect 7 0 5 0;
#X connect 8 0 10 0;
#X connect 8 0 14 1;
#X connect 9 0 2 0;
#X connect 10 0 9 1;
#X connect 11 0 6 0;
#X connect 11 1 1 0;
#X connect 11 1 13 0;
#X connect 11 2 8 0;
#X connect 12 0 13 1;
#X connect 13 0 14 0;
#X connect 14 0 2 0;
#X connect 16 0 17 0;
#X connect 17 0 2 0;
