#N canvas 863 364 450 300 12;
#X obj 20 27 inlet;
#X obj 20 48 bang;
#X obj 20 69 f \$1;
#X obj 37 186 line;
#X msg 20 90 \$1;
#X msg 47 159 \$1 \$2;
#X obj 37 207 s \$4;
#X obj 47 138 pack \$2 \$3;
#X obj 47 117 bang;
#X connect 0 0 1 0;
#X connect 1 0 2 0;
#X connect 2 0 4 0;
#X connect 3 0 6 0;
#X connect 4 0 3 0;
#X connect 4 0 8 0;
#X connect 5 0 3 0;
#X connect 7 0 5 0;
#X connect 8 0 7 0;
