#N canvas 696 161 450 300 12;
#X obj 63 108 log 2;
#X obj 63 85 /;
#X obj 25 36 select 0;
#X msg 63 62 1;
#X msg 25 61 0;
#X obj 63 131 expr pow(10 \, -(($f1 * 10) / 20));
#X obj 25 8 inlet;
#X obj 25 155 outlet;
#X connect 0 0 5 0;
#X connect 1 0 0 0;
#X connect 2 0 4 0;
#X connect 2 1 1 1;
#X connect 2 1 3 0;
#X connect 3 0 1 0;
#X connect 4 0 7 0;
#X connect 5 0 7 0;
#X connect 6 0 2 0;
