#N canvas 2222 255 1083 537 12;
#X obj 37 212 *~;
#X obj 12 39 vsl 15 128 0 1 0 0 empty empty empty 0 -9 0 10 #fcfcfc
#000000 #000000 0 1;
#X obj 37 268 env~;
#X obj 36 128 inlet~;
#X obj 37 294 - 100;
#X floatatom 37 320 5 0 0 0 - - - 0;
#X obj 90 107 log 2;
#X obj 90 84 /;
#X obj 55 36 select 0;
#X msg 89 61 1;
#X msg 55 61 0;
#X obj 318 66 loadbang;
#X obj 37 245 *~;
#X msg 449 172 0;
#X msg 410 172 1;
#X obj 449 85 r mute-\$1;
#X obj 410 225 line~;
#X msg 410 200 \$1 10;
#X msg 55 156 \$1 10;
#X obj 55 182 line~;
#X obj 449 109 select 0;
#X obj 142 264 outlet~;
#X obj 12 10 r fader-\$1;
#X obj 37 344 s meter-\$1;
#X obj 82 207 s~ volume-\$1;
#X floatatom 200 177 5 0 0 0 - - - 0;
#X obj 90 130 expr pow(10 \, -(($f1 * 10) / 20));
#X connect 0 0 12 0;
#X connect 1 0 8 0;
#X connect 2 0 4 0;
#X connect 3 0 0 0;
#X connect 4 0 5 0;
#X connect 5 0 23 0;
#X connect 6 0 26 0;
#X connect 7 0 6 0;
#X connect 8 0 10 0;
#X connect 8 1 7 1;
#X connect 8 1 9 0;
#X connect 9 0 7 0;
#X connect 10 0 18 0;
#X connect 11 0 14 0;
#X connect 12 0 2 0;
#X connect 12 0 21 0;
#X connect 13 0 17 0;
#X connect 14 0 17 0;
#X connect 15 0 20 0;
#X connect 16 0 12 1;
#X connect 17 0 16 0;
#X connect 18 0 19 0;
#X connect 19 0 0 1;
#X connect 19 0 24 0;
#X connect 20 0 13 0;
#X connect 20 1 14 0;
#X connect 22 0 1 0;
#X connect 26 0 18 0;
#X connect 26 0 25 0;
