#N canvas 2084 -19 1920 997 12;
#X obj 8 6 inputs;
#X obj 8 222 outputs;
#X obj 8 78 delays;
#X obj 8 150 record;
#X obj 1545 870 throw~ delay-in;
#X obj 1545 846 r~ patch-in;
#X obj 491 6 speaker-test;
#X obj 491 78 auto-level;
#X text 621 114 Patch einrichten \; 1) Mikro mit Orgel Pegeln \; 2)
auto-level MIC (während Orgel laut ist) \; 3) auto-level OUT (während
es ruhig ist) \;;
#X obj 1026 533 throw~ delay-in;
#X obj 1444 458 vsl 19 162 0 1 0 0 empty empty empty 0 -9 0 12 #fcfcfc
#000000 #000000 0 1;
#X msg 1444 628 \$1 10;
#X obj 1444 652 line~;
#X obj 1497 461 vsl 19 162 0 1 0 0 empty empty empty 0 -9 0 12 #fcfcfc
#000000 #000000 0 1;
#X msg 1497 631 \$1 10;
#X obj 1497 655 line~;
#X obj 1570 461 vsl 19 162 0 1 0 0 empty empty empty 0 -9 0 12 #fcfcfc
#000000 #000000 0 1;
#X msg 1570 631 \$1 10;
#X obj 1570 655 line~;
#X obj 1200 471 *~;
#X obj 1313 474 *~;
#X obj 1199 518 *~;
#X obj 1056 625 throw~ analyse-in;
#X obj 1619 460 vsl 19 162 0 1 0 0 empty empty empty 0 -9 0 12 #fcfcfc
#000000 #000000 0 1;
#X msg 1619 630 \$1 10;
#X obj 1619 654 line~;
#X obj 1330 520 *~;
#X obj 1313 450 r~ delay-out-3;
#X obj 1331 498 r~ delay-out-4;
#X text 621 9 TODO \; build delays \; compressor for vocoder?? \; feedback
über eigenen dac;
#X obj 1199 447 r~ delay-out-1;
#X obj 1675 461 vsl 19 162 0 1 0 0 empty empty empty 0 -9 0 12 #fcfcfc
#000000 #000000 0 1;
#X msg 1675 631 \$1 10;
#X obj 1675 655 line~;
#X obj 1327 691 *~;
#X obj 1326 650 r~ delay-out-2;
#X obj 1353 824 delread4~ test 0;
#X msg 1451 744 0;
#X msg 1507 750 1000;
#X obj 1033 720 r fdbpitch;
#X msg 1046 746 \$1 10;
#X obj 1046 770 line;
#X obj 1009 820 expr~ -$v1;
#X obj 1009 844 +~;
#X obj 1009 796 bp~ 100 200;
#X msg 128 670 \; freq-1 \$1 \;;
#X obj 30 609 line;
#X msg 30 587 \$1 1000;
#X obj 30 564 / 64;
#X msg 30 670 \; vol-1 \$1 \;;
#X obj 30 632 expr 1 / $f1;
#X obj 128 610 line;
#X msg 128 588 \$1 1000;
#X obj 129 542 r~ mic-in;
#X obj 128 565 env~;
#X obj 128 632 expr 100 /$f1;
#X obj 1055 432 r~ feedback-mic-insert;
#X obj 1010 892 throw~ feedback-mic-insert;
#X obj 125 6 trigger-parts;
#X obj 519 271 rauschen;
#X obj 519 292 analyse;
#X obj 125 78 vocoder;
#N canvas 364 338 1051 463 direct-feedback 0;
#X obj 232 283 *~;
#X obj 18 64 hsl 100 15 0 1 0 0 feedback-from-mic feedback-from-mic
empty -2 -10 0 12 #fcfcfc #000000 #000000 0 1;
#X text 14 44 from-mic;
#X obj 18 125 hsl 100 15 0 1.2 0 0 feedback-from-patch feedback-from-patch
empty -2 -10 0 12 #fcfcfc #000000 #000000 0 1;
#X text 14 105 in patch;
#X obj 260 221 r feedback-from-mic;
#X msg 260 243 \$1 10;
#X obj 260 265 line~;
#X obj 499 283 *~;
#X msg 530 243 \$1 10;
#X obj 530 265 line~;
#X obj 530 221 r feedback-from-patch;
#X obj 498 57 r~ patch-in;
#X obj 498 177 *~;
#X obj 544 107 catch~ feedback-patch-insert;
#X obj 544 83 s~ feedback-patch-insert;
#X obj 658 136 env~;
#X obj 658 158 == 0;
#X obj 231 177 *~;
#X obj 391 136 env~;
#X obj 391 158 == 0;
#X obj 277 83 s~ feedback-mic-insert;
#X obj 277 107 catch~ feedback-mic-insert;
#X obj 231 57 r~ mic-in;
#X obj 334 325 *~;
#X obj 334 368 throw~ feedback-out;
#X obj 768 243 r feedback-multiplier;
#X obj 697 282 loadbang;
#X msg 697 306 1;
#X connect 0 0 24 0;
#X connect 5 0 6 0;
#X connect 6 0 7 0;
#X connect 7 0 0 1;
#X connect 8 0 24 0;
#X connect 9 0 10 0;
#X connect 10 0 8 1;
#X connect 11 0 9 0;
#X connect 12 0 13 0;
#X connect 12 0 15 0;
#X connect 13 0 8 0;
#X connect 14 0 16 0;
#X connect 14 0 8 0;
#X connect 16 0 17 0;
#X connect 17 0 13 1;
#X connect 18 0 0 0;
#X connect 19 0 20 0;
#X connect 20 0 18 1;
#X connect 22 0 19 0;
#X connect 22 0 0 0;
#X connect 23 0 21 0;
#X connect 23 0 18 0;
#X connect 24 0 25 0;
#X connect 26 0 24 1;
#X connect 27 0 28 0;
#X connect 28 0 24 1;
#X coords 0 -1 1 1 115 142 1 10 10;
#X restore 359 78 pd direct-feedback;
#X obj 125 150 replay;
#X obj 519 355 program;
#X obj 519 313 swellers;
#X obj 519 334 patchbay;
#X obj 1009 869 hip~ 800;
#X obj 519 376 grizzles;
#X obj 242 150 blur;
#X obj 30 542 r fdbpitch;
#X text 37 518 grizzle modulation:;
#X text 1083 383 FEEDBACK TESTS;
#X obj 442 29 init;
#X obj 1258 787 delwrite~ test 10000;
#X obj 1238 756 +~;
#X msg 559 607 \; patchbay audio-in analyse-in 1 \, rauschen vocoder-in
1 \, vocoder-out mixer-1 1 \, audio-in mixer-2 1 \;;
#X msg 562 673 \; patchbay audio-in analyse-in 1 \;;
#X msg 569 745 \; replay-1 2 0 20 \;;
#X obj 1017 483 *~;
#X obj 1059 473 tgl 15 0 empty empty empty 17 7 0 10 #fcfcfc #000000
#000000 0 1;
#X obj 519 397 filter;
#X connect 5 0 4 0;
#X connect 10 0 11 0;
#X connect 11 0 12 0;
#X connect 12 0 21 1;
#X connect 13 0 14 0;
#X connect 14 0 15 0;
#X connect 15 0 19 1;
#X connect 16 0 17 0;
#X connect 17 0 18 0;
#X connect 18 0 20 1;
#X connect 19 0 75 0;
#X connect 20 0 75 0;
#X connect 21 0 75 0;
#X connect 23 0 24 0;
#X connect 24 0 25 0;
#X connect 25 0 26 1;
#X connect 26 0 75 0;
#X connect 27 0 20 0;
#X connect 28 0 26 0;
#X connect 30 0 19 0;
#X connect 31 0 32 0;
#X connect 32 0 33 0;
#X connect 33 0 34 1;
#X connect 34 0 75 0;
#X connect 35 0 34 0;
#X connect 36 0 43 1;
#X connect 36 0 44 0;
#X connect 37 0 36 0;
#X connect 38 0 36 0;
#X connect 39 0 40 0;
#X connect 40 0 41 0;
#X connect 41 0 44 1;
#X connect 42 0 43 0;
#X connect 43 0 67 0;
#X connect 44 0 42 0;
#X connect 46 0 50 0;
#X connect 47 0 46 0;
#X connect 48 0 47 0;
#X connect 51 0 55 0;
#X connect 52 0 51 0;
#X connect 53 0 54 0;
#X connect 54 0 52 0;
#X connect 56 0 21 0;
#X connect 56 0 79 0;
#X connect 67 0 57 0;
#X connect 70 0 48 0;
#X connect 75 0 74 0;
#X connect 75 0 22 0;
#X connect 79 0 9 0;
#X connect 80 0 79 1;
