#N canvas 35 -22 1920 997 12;
#X obj 8 6 inputs;
#X obj 8 222 outputs;
#X obj 8 78 delays;
#X obj 8 150 record;
#X obj 491 6 speaker-test;
#X obj 491 78 auto-level;
#X text 621 114 Patch einrichten \; 1) Mikro mit Orgel Pegeln \; 2)
auto-level MIC (während Orgel laut ist) \; 3) auto-level OUT (während
es ruhig ist) \;;
#X text 621 9 TODO \; build delays \; compressor for vocoder?? \; feedback
über eigenen dac;
#X obj 125 6 trigger-parts;
#X obj 519 271 rauschen;
#X obj 519 292 analyse;
#X obj 125 78 vocoder;
#N canvas 364 338 1051 463 direct-feedback 0;
#X obj 232 283 *~;
#X obj 18 64 hsl 100 15 0 1 0 0 feedback-from-mic feedback-from-mic
empty -2 -10 0 12 #fcfcfc #000000 #000000 0 1;
#X text 14 44 from-mic;
#X obj 18 125 hsl 100 15 0 1.2 0 0 feedback-from-patch feedback-from-patch
empty -2 -10 0 12 #fcfcfc #000000 #000000 0 1;
#X text 14 105 in patch;
#X obj 260 221 r feedback-from-mic;
#X msg 260 243 \$1 10;
#X obj 260 265 line~;
#X obj 499 283 *~;
#X msg 530 243 \$1 10;
#X obj 530 265 line~;
#X obj 530 221 r feedback-from-patch;
#X obj 498 57 r~ patch-in;
#X obj 498 177 *~;
#X obj 544 107 catch~ feedback-patch-insert;
#X obj 544 83 s~ feedback-patch-insert;
#X obj 658 136 env~;
#X obj 658 158 == 0;
#X obj 231 177 *~;
#X obj 391 136 env~;
#X obj 391 158 == 0;
#X obj 277 83 s~ feedback-mic-insert;
#X obj 277 107 catch~ feedback-mic-insert;
#X obj 231 57 r~ mic-in;
#X obj 334 325 *~;
#X obj 334 368 throw~ feedback-out;
#X obj 768 243 r feedback-multiplier;
#X obj 697 282 loadbang;
#X msg 697 306 1;
#X connect 0 0 24 0;
#X connect 5 0 6 0;
#X connect 6 0 7 0;
#X connect 7 0 0 1;
#X connect 8 0 24 0;
#X connect 9 0 10 0;
#X connect 10 0 8 1;
#X connect 11 0 9 0;
#X connect 12 0 13 0;
#X connect 12 0 15 0;
#X connect 13 0 8 0;
#X connect 14 0 16 0;
#X connect 14 0 8 0;
#X connect 16 0 17 0;
#X connect 17 0 13 1;
#X connect 18 0 0 0;
#X connect 19 0 20 0;
#X connect 20 0 18 1;
#X connect 22 0 19 0;
#X connect 22 0 0 0;
#X connect 23 0 21 0;
#X connect 23 0 18 0;
#X connect 24 0 25 0;
#X connect 26 0 24 1;
#X connect 27 0 28 0;
#X connect 28 0 24 1;
#X coords 0 -1 1 1 115 142 1 10 10;
#X restore 359 78 pd direct-feedback;
#X obj 125 150 replay;
#X obj 519 355 program;
#X obj 519 334 patchbay;
#X obj 519 376 grizzles;
#X obj 242 150 blur;
#X obj 442 29 init;
#X msg 754 644 \; replay-1 2 0 20 \;;
#X obj 519 397 filter;
#X obj 693 631 vsl 15 128 0 1 0 0 empty empty empty 0 -9 0 10 #fcfcfc
#000000 #000000 0 1;
#X obj 655 692 vsl 15 128 2 8 0 0 empty empty empty 0 -9 0 10 #fcfcfc
#000000 #000000 0 1;
#X msg 655 828 \; freq-1 \$1 \;;
#X msg 474 735 \; pulse-1 bang \;;
#X obj 440 701 vsl 15 128 0 1 0 0 empty empty empty 0 -9 0 10 #fcfcfc
#000000 #000000 0 1;
#X msg 440 837 \; duty-cycle-1 \$1 \; duty-cycle-2 \$1 \;;
#X msg 693 767 \; width-1 \$1 \; width-2 \$1 \;;
#X obj 519 313 swellers;
#X msg 1138 539 \; patchbay replay-out master 1 \; sweller-1 line 0
20000 \, osc-freq 0.2 10000 \, osc-amp 0.4 1000 \; replay-2 1005 0
29 0.25 \;, f 47;
#X msg 1145 665 \; replay-1 1005 0 29 0.25 \;, f 47;
#X connect 21 0 27 0;
#X connect 22 0 23 0;
#X connect 25 0 26 0;
