#N canvas 64 -8 1920 997 12;
#X obj 8 6 inputs;
#X obj 8 294 outputs;
#X obj 8 78 delays;
#X obj 8 150 record;
#X obj 1152 418 throw~ mixer-4;
#X obj 520 20 r~ replay-out;
#X obj 519 53 grizzle_slim 1;
#X obj 921 53 grizzle_slim 2;
#X obj 1180 819 throw~ analyse-in;
#X msg 1534 845 10;
#X obj 1534 869 s record;
#X obj 1600 868 s replay-1;
#X obj 1689 868 s replay-2;
#X obj 1617 891 r~ replay-out;
#X obj 1617 919 throw~ mixer-3;
#X obj 1181 877 throw~ delay-in;
#X obj 1181 853 r~ patch-in;
#X obj 1512 656 speaker-test;
#X obj 1512 514 auto-level;
#X text 1493 441 Patch einrichten \; 1) Mikro mit Orgel Pegeln \; 2)
auto-level MIC (während Orgel laut ist) \; 3) auto-level OUT (während
es ruhig ist) \;;
#X msg 1679 814 11 100 3;
#X msg 1627 813 0 0 7;
#X obj 787 484 throw~ delay-in;
#X obj 1176 462 vsl 19 162 0 1 0 0 empty empty empty 0 -9 0 12 #fcfcfc
#000000 #000000 0 1;
#X msg 1176 632 \$1 10;
#X obj 1176 656 line~;
#X obj 1229 465 vsl 19 162 0 1 0 0 empty empty empty 0 -9 0 12 #fcfcfc
#000000 #000000 0 1;
#X msg 1229 635 \$1 10;
#X obj 1229 659 line~;
#X obj 1302 465 vsl 19 162 0 1 0 0 empty empty empty 0 -9 0 12 #fcfcfc
#000000 #000000 0 1;
#X msg 1302 635 \$1 10;
#X obj 1302 659 line~;
#X obj 932 475 *~;
#X obj 1045 478 *~;
#X obj 931 522 *~;
#X obj 691 547 throw~ analyse-in;
#X obj 1351 464 vsl 19 162 0 1 0 0 empty empty empty 0 -9 0 12 #fcfcfc
#000000 #000000 0 1;
#X msg 1351 634 \$1 10;
#X obj 1351 658 line~;
#X obj 1062 524 *~;
#X obj 1045 454 r~ delay-out-3;
#X obj 1063 502 r~ delay-out-4;
#X text 828 554 TODO \; build delays \; compressor for vocoder?? \;
feedback über eigenen dac;
#X obj 931 451 r~ delay-out-1;
#X obj 1407 465 vsl 19 162 0 1 0 0 empty empty empty 0 -9 0 12 #fcfcfc
#000000 #000000 0 1;
#X msg 1407 635 \$1 10;
#X obj 1407 659 line~;
#X obj 1059 695 *~;
#X obj 1058 654 r~ delay-out-2;
#X obj 1085 815 delread4~ test 0;
#X msg 1183 748 0;
#X msg 1239 754 1000;
#X obj 969 760 delwrite~ test 10000;
#X obj 544 784 r fdbpitch;
#X msg 544 808 \$1 10;
#X obj 544 832 line;
#X obj 741 824 expr~ -$v1;
#X obj 741 848 +~;
#X obj 741 800 bp~ 100 200;
#X obj 343 944 s grizzle_slim;
#X msg 339 882 \; freq-1 \$1 \;;
#X obj 410 816 line;
#X msg 1557 786 8 0 20;
#X msg 1429 799 20;
#X msg 130 770 \; open-sample-1 buffer8.wav \;;
#X msg 410 792 \$1 1000;
#X obj 415 767 / 64;
#X msg 527 900 \; vol-1 \$1 \;;
#X obj 483 861 expr 1 / $f1;
#X obj 325 696 line;
#X msg 325 672 \$1 1000;
#X obj 293 610 r~ mic-in;
#X obj 302 638 env~;
#X obj 325 720 expr 100 /$f1;
#X obj 787 436 r~ feedback-mic-insert;
#X obj 932 883 throw~ feedback-mic-insert;
#X obj 125 6 trigger-parts;
#N canvas -345 82 1920 997 init 0;
#X obj 110 18 s init;
#X msg 215 60 0;
#X obj 9 153 samplerate~;
#X obj 9 177 s samplerate;
#X obj 348 89 s enable-stablizer;
#X msg 348 60 1;
#X obj 215 84 s vocoder-mix;
#X obj 123 84 s fader-0;
#X obj 123 105 s fader-1;
#X obj 123 126 s fader-2;
#X obj 123 147 s fader-3;
#X obj 123 168 s fader-4;
#X obj 9 20 s reset;
#X obj 9 41 r reset;
#X obj 9 -1 loadbang;
#X msg 123 60 0;
#X obj 622 41 s auto-level-target;
#X text 583 -3 auto-level target;
#X msg 622 18 90;
#X obj 770 41 s feedback-multiplier;
#X msg 770 18 1;
#X text 768 -2 feedback multiplier;
#X msg 488 60 1;
#X obj 488 84 s blur-mix;
#X connect 1 0 6 0;
#X connect 2 0 3 0;
#X connect 5 0 4 0;
#X connect 13 0 15 0;
#X connect 13 0 1 0;
#X connect 13 0 2 0;
#X connect 13 0 5 0;
#X connect 13 0 22 0;
#X connect 14 0 12 0;
#X connect 14 0 0 0;
#X connect 14 0 18 0;
#X connect 14 0 20 0;
#X connect 15 0 7 0;
#X connect 15 0 8 0;
#X connect 15 0 9 0;
#X connect 15 0 10 0;
#X connect 15 0 11 0;
#X connect 18 0 16 0;
#X connect 20 0 19 0;
#X connect 22 0 23 0;
#X restore 434 31 pd init;
#X obj 277 188 rauschen;
#X obj 279 158 analyse;
#X obj 125 78 vocoder;
#N canvas 150 127 1051 463 direct-feedback 0;
#X obj 232 283 *~;
#X obj 18 64 hsl 100 15 0 1 0 0 feedback-from-mic feedback-from-mic
empty -2 -10 0 12 #fcfcfc #000000 #000000 0 1;
#X text 14 44 from-mic;
#X obj 18 125 hsl 100 15 0 1.2 0 0 feedback-from-patch feedback-from-patch
empty -2 -10 0 12 #fcfcfc #000000 #000000 0 1;
#X text 14 105 in patch;
#X obj 260 221 r feedback-from-mic;
#X msg 260 243 \$1 10;
#X obj 260 265 line~;
#X obj 499 283 *~;
#X msg 530 243 \$1 10;
#X obj 530 265 line~;
#X obj 530 221 r feedback-from-patch;
#X obj 498 57 r~ patch-in;
#X obj 498 177 *~;
#X obj 544 107 catch~ feedback-patch-insert;
#X obj 544 83 s~ feedback-patch-insert;
#X obj 658 136 env~;
#X obj 658 158 == 0;
#X obj 231 177 *~;
#X obj 391 136 env~;
#X obj 391 158 == 0;
#X obj 277 83 s~ feedback-mic-insert;
#X obj 277 107 catch~ feedback-mic-insert;
#X obj 231 57 r~ mic-in;
#X obj 334 325 *~;
#X obj 334 349 throw~ feedback-out;
#X obj 768 243 r feedback-multiplier;
#X obj 697 282 loadbang;
#X msg 697 306 1;
#X connect 0 0 24 0;
#X connect 5 0 6 0;
#X connect 6 0 7 0;
#X connect 7 0 0 1;
#X connect 8 0 24 0;
#X connect 9 0 10 0;
#X connect 10 0 8 1;
#X connect 11 0 9 0;
#X connect 12 0 13 0;
#X connect 12 0 15 0;
#X connect 13 0 8 0;
#X connect 14 0 16 0;
#X connect 14 0 8 0;
#X connect 16 0 17 0;
#X connect 17 0 13 1;
#X connect 18 0 0 0;
#X connect 19 0 20 0;
#X connect 20 0 18 1;
#X connect 22 0 19 0;
#X connect 22 0 0 0;
#X connect 23 0 18 0;
#X connect 23 0 21 0;
#X connect 24 0 25 0;
#X connect 26 0 24 1;
#X connect 27 0 28 0;
#X connect 28 0 24 1;
#X coords 0 -1 1 1 115 140 1 10 10;
#X restore 357 78 pd direct-feedback;
#X obj 125 150 replay;
#X obj 281 240 program;
#X obj 279 213 swellers;
#X obj 203 240 patchbay;
#X obj 741 873 hip~ 800;
#X obj 8 222 blur;
#X msg 632 607 \; patchbay replay-out blur-in 1 \; patchbay blur-out
mixer-1 1 \;;
#X connect 5 0 6 0;
#X connect 5 0 7 0;
#X connect 6 0 4 0;
#X connect 7 0 4 0;
#X connect 9 0 10 0;
#X connect 13 0 14 0;
#X connect 16 0 15 0;
#X connect 20 0 12 0;
#X connect 21 0 11 0;
#X connect 21 0 12 0;
#X connect 23 0 24 0;
#X connect 24 0 25 0;
#X connect 25 0 34 1;
#X connect 26 0 27 0;
#X connect 27 0 28 0;
#X connect 28 0 32 1;
#X connect 29 0 30 0;
#X connect 30 0 31 0;
#X connect 31 0 33 1;
#X connect 32 0 52 0;
#X connect 33 0 52 0;
#X connect 34 0 52 0;
#X connect 36 0 37 0;
#X connect 37 0 38 0;
#X connect 38 0 39 1;
#X connect 39 0 52 0;
#X connect 40 0 33 0;
#X connect 41 0 39 0;
#X connect 43 0 32 0;
#X connect 44 0 45 0;
#X connect 45 0 46 0;
#X connect 46 0 47 1;
#X connect 47 0 52 0;
#X connect 48 0 47 0;
#X connect 49 0 57 1;
#X connect 49 0 58 0;
#X connect 50 0 49 0;
#X connect 51 0 49 0;
#X connect 53 0 54 0;
#X connect 53 0 66 0;
#X connect 54 0 55 0;
#X connect 55 0 58 1;
#X connect 56 0 57 0;
#X connect 57 0 86 0;
#X connect 58 0 56 0;
#X connect 60 0 59 0;
#X connect 61 0 68 0;
#X connect 62 0 11 0;
#X connect 63 0 10 0;
#X connect 64 0 59 0;
#X connect 65 0 61 0;
#X connect 66 0 65 0;
#X connect 67 0 59 0;
#X connect 68 0 67 0;
#X connect 69 0 73 0;
#X connect 70 0 69 0;
#X connect 71 0 72 0;
#X connect 72 0 70 0;
#X connect 73 0 60 0;
#X connect 74 0 35 0;
#X connect 74 0 22 0;
#X connect 74 0 34 0;
#X connect 86 0 75 0;
