#N canvas 48 -27 1920 997 12;
#X obj 8 6 inputs;
#X obj 125 6 trigger-parts;
#X obj 7 266 outputs;
#N canvas 110 -18 1920 997 init 0;
#X obj 110 18 s init;
#X msg 215 60 0;
#X obj 9 153 samplerate~;
#X obj 9 177 s samplerate;
#X obj 348 89 s enable-stablizer;
#X msg 348 60 1;
#X obj 215 84 s vocoder-mix;
#X obj 123 84 s fader-0;
#X obj 123 105 s fader-1;
#X obj 123 126 s fader-2;
#X obj 123 147 s fader-3;
#X obj 123 168 s fader-4;
#X obj 9 20 s reset;
#X obj 9 41 r reset;
#X obj 9 -1 loadbang;
#X msg 123 60 0;
#X obj 622 42 s auto-level-target;
#X text 583 -3 auto-level target;
#X msg 622 18 70;
#X connect 1 0 6 0;
#X connect 2 0 3 0;
#X connect 5 0 4 0;
#X connect 13 0 15 0;
#X connect 13 0 1 0;
#X connect 13 0 2 0;
#X connect 13 0 5 0;
#X connect 14 0 12 0;
#X connect 14 0 0 0;
#X connect 14 0 18 0;
#X connect 15 0 7 0;
#X connect 15 0 8 0;
#X connect 15 0 9 0;
#X connect 15 0 10 0;
#X connect 15 0 11 0;
#X connect 18 0 16 0;
#X restore 434 31 pd init;
#X obj 277 188 rauschen;
#X obj 8 78 delays;
#X obj 279 158 analyse;
#X obj 125 78 vocoder;
#X obj 1144 802 throw~ analyse-in;
#N canvas -45 -17 1920 976 direct-feedback 0;
#X obj 148 101 *~;
#X obj 18 64 hsl 100 15 0 1 0 0 feedback-from-mic feedback-from-mic
empty -2 -10 0 12 #fcfcfc #000000 #000000 0 1;
#X text 14 44 from-mic;
#X obj 18 125 hsl 100 15 0 1.2 0 0 feedback-from-patch feedback-from-patch
empty -2 -10 0 12 #fcfcfc #000000 #000000 0 1;
#X text 14 105 in patch;
#X obj 198 68 r feedback-from-mic;
#X msg 198 92 \$1 10;
#X obj 198 116 line~;
#X obj 374 101 *~;
#X msg 424 92 \$1 10;
#X obj 424 116 line~;
#X obj 424 68 r feedback-from-patch;
#X obj 147 35 catch~ feedback-mic-in;
#X obj 373 35 catch~ feedback-patch-in;
#X obj 374 177 s~ feedback-patch-out;
#X obj 149 176 s~ feedback-mic-out;
#X connect 0 0 15 0;
#X connect 5 0 6 0;
#X connect 6 0 7 0;
#X connect 7 0 0 1;
#X connect 8 0 14 0;
#X connect 9 0 10 0;
#X connect 10 0 8 1;
#X connect 11 0 9 0;
#X connect 12 0 0 0;
#X connect 13 0 8 0;
#X coords 0 -1 1 1 115 140 1 10 10;
#X restore 357 78 pd direct-feedback;
#X obj 8 150 record;
#X msg 1498 828 10;
#X obj 1498 852 s record;
#X obj 125 150 replay;
#X obj 1564 851 s replay-1;
#X obj 1653 851 s replay-2;
#X obj 1581 874 r~ replay-out;
#X obj 281 240 program;
#X obj 1581 902 throw~ mixer-3;
#X obj 279 213 swellers;
#X obj 1145 860 throw~ delay-in;
#X obj 1145 836 r~ patch-in;
#X obj 203 240 patchbay;
#X obj 1133 626 speaker-test;
#X obj 1133 484 auto-level;
#X text 1114 411 Patch einrichten \; 1) Mikro mit Orgel Pegeln \; 2)
auto-level MIC (während Orgel laut ist) \; 3) auto-level OUT (während
es ruhig ist) \;;
#X msg 1643 797 11 100 3;
#X obj 922 379 throw~ mixer-4;
#X obj 520 20 r~ replay-out;
#X text 598 515 TODO \; build delays \; compressor for vocoder?? \;
;
#X msg 1591 796 0 0 7;
#X obj 519 53 grizzle_slim 1;
#X obj 921 53 grizzle_slim 2;
#X connect 11 0 12 0;
#X connect 16 0 18 0;
#X connect 21 0 20 0;
#X connect 26 0 15 0;
#X connect 28 0 31 0;
#X connect 28 0 32 0;
#X connect 30 0 14 0;
#X connect 30 0 15 0;
#X connect 31 0 27 0;
#X connect 32 0 27 0;
