#N canvas -22 -25 1920 976 12;
#X obj 8 6 inputs;
#X obj 125 6 trigger-parts;
#X obj 7 273 outputs;
#N canvas 897 197 450 300 init 0;
#X obj 9 9 loadbang;
#X obj 9 30 s init;
#X obj 123 52 s init-fader;
#X msg 123 28 0.5;
#X msg 215 28 0;
#X obj 215 52 s vocoder-mi;
#X obj 9 121 samplerate~;
#X obj 9 145 s samplerate;
#X connect 0 0 1 0;
#X connect 0 0 3 0;
#X connect 0 0 4 0;
#X connect 0 0 6 0;
#X connect 3 0 2 0;
#X connect 4 0 5 0;
#X connect 6 0 7 0;
#X restore 434 31 pd init;
#X obj 277 195 rauschen;
#X obj 8 78 delays;
#X obj 279 165 analyse;
#X obj 125 78 vocoder;
#X obj 634 315 throw~ master;
#X obj 787 224 r~ rauschen;
#X obj 779 292 r~ vocoder-out;
#X obj 787 248 throw~ vocoder-in;
#X obj 566 183 throw~ analyse-in;
#X obj 567 132 throw~ delay-in;
#X obj 277 224 swelling;
#X obj 634 268 throw~ swelling-in;
#X obj 634 291 r~ swelling-out;
#N canvas -136 180 1920 976 direct-feedback 0;
#X obj 148 101 *~;
#X obj 18 64 hsl 100 15 0 1 0 0 feedback-from-mic feedback-from-mic empty -2 -10 0 12 #fcfcfc #000000 #000000 0 1;
#X text 14 44 from-mic;
#X obj 18 125 hsl 100 15 0 1.2 0 0 feedback-from-patch feedback-from-patch empty -2 -10 0 12 #fcfcfc #000000 #000000 0 1;
#X text 14 105 in patch;
#X obj 198 68 r feedback-from-mic;
#X msg 198 92 \$1 10;
#X obj 198 116 line~;
#X obj 374 101 *~;
#X msg 424 92 \$1 10;
#X obj 424 116 line~;
#X obj 424 68 r feedback-from-patch;
#X obj 147 35 catch~ feedback-mic-in;
#X obj 373 35 catch~ feedback-patch-in;
#X obj 374 177 s~ feedback-patch-out;
#X obj 149 176 s~ feedback-mic-out;
#X connect 0 0 15 0;
#X connect 5 0 6 0;
#X connect 6 0 7 0;
#X connect 7 0 0 1;
#X connect 8 0 14 0;
#X connect 9 0 10 0;
#X connect 10 0 8 1;
#X connect 11 0 9 0;
#X connect 12 0 0 0;
#X connect 13 0 8 0;
#X coords 0 -1 1 1 115 140 1 10 10;
#X restore 357 78 pd direct-feedback;
#X obj 543 212 throw~ feedback-mic-in;
#X obj 521 14 r~ feedback-mic-out;
#X obj 521 59 throw~ master;
#X obj 671 41 r~ feedback-patch-out;
#X obj 567 108 r~ audio-in;
#X obj 8 150 record;
#X obj 7 488;
#X msg 7 512;
#X msg 756 116 10;
#X obj 756 140 s record;
#X obj 566 157 r~ delay-out-1;
#X obj 125 150 replay;
#X obj 634 420 s replay-1;
#X obj 723 420 s replay-2;
#X obj 530 248 r~ replay-out;
#X obj 787 333 r~ replay-out;
#X msg 661 365 0 3 1;
#X connect 9 0 11 0;
#X connect 10 0 8 0;
#X connect 16 0 8 0;
#X connect 19 0 20 0;
#X connect 21 0 20 0;
#X connect 22 0 13 0;
#X connect 24 0 25 0;
#X connect 26 0 27 0;
#X connect 28 0 12 0;
#X connect 28 0 18 0;
#X connect 32 0 8 0;
#X connect 33 0 8 0;
#X connect 34 0 30 0;
#X connect 34 0 31 0;
