#N canvas 171 171 1920 976 12;
#X text 14 41 Master;
#X text 193 40 2;
#X obj 44 71 vu 15 120 meter-0 empty -1 -8 0 10 #404040 #000000 1 0;
#X obj 18 63 vsl 15 128 0 1 0 0 fader-0 init-fader empty 0 -9 0 10 #fcfcfc #000000 #000000 0 1;
#X obj 131 70 vu 15 120 meter-1 empty -1 -8 0 10 #404040 #000000 1 0;
#X obj 106 63 vsl 15 128 0 1 0 0 fader-1 init-fader empty 0 -9 0 10 #fcfcfc #000000 #000000 0 1;
#X obj 219 70 vu 15 120 meter-2 empty -1 -8 0 10 #404040 #000000 1 0;
#X obj 194 63 vsl 15 128 0 1 0 0 fader-2 init-fader empty 0 -9 0 10 #fcfcfc #000000 #000000 0 1;
#X obj 307 70 vu 15 120 meter-3 empty -1 -8 0 10 #404040 #000000 1 0;
#X obj 282 63 vsl 15 128 0 1 0 0 fader-3 init-fader empty 0 -9 0 10 #fcfcfc #000000 #000000 0 1;
#X obj 395 70 vu 15 120 meter-4 empty -1 -8 0 10 #404040 #000000 1 0;
#X obj 370 63 vsl 15 128 0 1 0 0 fader-4 init-fader empty 0 -9 0 10 #fcfcfc #000000 #000000 0 1;
#X obj 18 200 tgl 15 0 mute-0 init empty 17 7 0 10 #fcfcfc #000000 #000000 0 1;
#X obj 106 200 tgl 15 0 mute-1 init empty 17 7 0 10 #fcfcfc #000000 #000000 0 1;
#X obj 194 200 tgl 15 0 mute-2 init empty 17 7 0 10 #fcfcfc #000000 #000000 0 1;
#X obj 282 200 tgl 15 0 mute-3 init empty 17 7 0 10 #fcfcfc #000000 #000000 0 1;
#X obj 370 200 tgl 15 0 mute-4 init empty 17 7 0 10 #fcfcfc #000000 #000000 0 1;
#X text 283 40 3;
#X text 370 40 4;
#X obj 9 230 catch~ master;
#X obj 9 306 dac~;
#X obj 9 282 mixer 0;
#X obj 118 306 throw~ master;
#X obj 229 306 throw~ master;
#X obj 333 306 throw~ master;
#X obj 437 305 throw~ master;
#X obj 229 230 catch~ layer-2;
#X obj 333 230 catch~ layer-3;
#X obj 437 230 catch~ layer-4;
#X obj 118 282 mixer 1;
#X obj 229 282 mixer 2;
#X obj 333 282 mixer 3;
#X obj 437 281 mixer 4;
#X obj 118 230 catch~ rauschen;
#X text 99 40 rauschen;
#X connect 19 0 21 0;
#X connect 21 0 20 0;
#X connect 26 0 30 0;
#X connect 27 0 31 0;
#X connect 28 0 32 0;
#X connect 29 0 22 0;
#X connect 30 0 23 0;
#X connect 31 0 24 0;
#X connect 32 0 25 0;
#X connect 33 0 29 0;
#X coords 0 -1 1 1 500 210 1 10 10;
