#N canvas 247 253 1250 447 12;
#X text 31 41 Master;
#X obj 61 71 vu 15 120 meter-0 empty -1 -8 0 10 #404040 #000000 1 0
;
#X obj 35 63 vsl 15 128 0 1 0 0 fader-0 fader-0 empty 0 -9 0 10 #fcfcfc
#000000 #000000 0 1;
#X obj 148 70 vu 15 120 meter-1 empty -1 -8 0 10 #404040 #000000 1
0;
#X obj 123 63 vsl 15 128 0 1 0 0 fader-1 fader-1 empty 0 -9 0 10 #fcfcfc
#000000 #000000 0 1;
#X obj 236 70 vu 15 120 meter-2 empty -1 -8 0 10 #404040 #000000 1
0;
#X obj 211 63 vsl 15 128 0 1 0 0 fader-2 fader-2 empty 0 -9 0 10 #fcfcfc
#000000 #000000 0 1;
#X obj 324 70 vu 15 120 meter-3 empty -1 -8 0 10 #404040 #000000 1
0;
#X obj 299 63 vsl 15 128 0 1 0 0 fader-3 fader-3 empty 0 -9 0 10 #fcfcfc
#000000 #000000 0 1;
#X obj 412 70 vu 15 120 meter-4 empty -1 -8 0 10 #404040 #000000 1
0;
#X obj 387 63 vsl 15 128 0 1 0 0 fader-4 fader-4 empty 0 -9 0 10 #fcfcfc
#000000 #000000 0 1;
#X obj 35 200 tgl 15 0 mute-0 init empty 17 7 0 10 #fcfcfc #000000
#000000 0 1;
#X obj 123 200 tgl 15 0 mute-1 init empty 17 7 0 10 #fcfcfc #000000
#000000 0 1;
#X obj 211 200 tgl 15 0 mute-2 init empty 17 7 0 10 #fcfcfc #000000
#000000 0 1;
#X obj 299 200 tgl 15 0 mute-3 init empty 17 7 0 10 #fcfcfc #000000
#000000 0 1;
#X obj 387 200 tgl 15 0 mute-4 init empty 17 7 0 10 #fcfcfc #000000
#000000 0 1;
#X obj 9 230 catch~ master;
#X obj 9 457 dac~;
#X obj 9 322 mixer 0;
#X obj 363 305 throw~ master;
#X obj 474 305 throw~ master;
#X obj 578 305 throw~ master;
#X obj 682 304 throw~ master;
#X obj 363 281 mixer 1;
#X obj 474 281 mixer 2;
#X obj 578 281 mixer 3;
#X obj 682 280 mixer 4;
#N canvas 276 247 1055 665 stabilize 0;
#X obj 39 37 inlet~;
#X obj 39 256 outlet~;
#X obj 40 209 *~;
#X obj 518 104 pow~ 2;
#X obj 518 154 +~ 1;
#X obj 518 130 *~ 99;
#X obj 519 32 r stable;
#X msg 519 56 \$1 10;
#X obj 519 80 line~;
#X obj 126 107 expr~ pow((1 - min(1 \, $v1)) \, $v2);
#X obj 239 128 r enable-stablizer;
#X obj 126 131 *~;
#X obj 239 176 line~;
#X obj 239 200 expr~ 1 - $v1;
#X obj 126 155 +~;
#X obj 126 179 unsig~;
#X floatatom 126 203 5 0 0 0 - - - 0;
#X msg 239 152 \$1 100;
#X obj 126 79 RMS~ 0.01;
#X connect 0 0 2 0;
#X connect 0 0 18 0;
#X connect 2 0 1 0;
#X connect 3 0 5 0;
#X connect 4 0 9 1;
#X connect 5 0 4 0;
#X connect 6 0 7 0;
#X connect 7 0 8 0;
#X connect 8 0 3 0;
#X connect 9 0 11 0;
#X connect 10 0 17 0;
#X connect 11 0 14 0;
#X connect 12 0 11 1;
#X connect 12 0 13 0;
#X connect 13 0 14 1;
#X connect 14 0 2 1;
#X connect 14 0 15 0;
#X connect 15 0 16 0;
#X connect 17 0 12 0;
#X connect 18 0 9 0;
#X restore 150 270 pd stabilize;
#X obj 474 229 catch~ mixer-2;
#X obj 363 229 catch~ mixer-1;
#X text 116 40 mixer-1;
#X text 210 40 mixer-2;
#X text 300 40 mixer-3;
#X obj 578 229 catch~ mixer-3;
#X obj 194 18 hsl 230 15 0 1 0 0 stable stablizer empty -2 -10 0 12
#fcfcfc #000000 #000000 0 1;
#X text 121 14 stablizer;
#X obj 149 300 throw~ feedback-patch-in;
#X obj 100 16 tgl 19 0 enable-stablizer enable-stablizer empty 0 -10
0 12 #fcfcfc #000000 #000000 0 1;
#X obj 9 411 expr~ max(min($v1 \, 1) \, -1);
#X obj 682 229 catch~ mixer-4;
#N canvas 332 264 880 349 leveling 0;
#X obj 20 16 inlet~;
#X obj 20 162 outlet~;
#X obj 20 91 *~;
#X obj 111 1 loadbang;
#X obj 111 72 line~;
#X floatatom 210 101 5 0 0 0 - - - 0;
#X msg 111 25 0.25;
#X msg 111 48 \$1 100;
#X obj 210 29 r auto-out-level;
#X connect 0 0 2 0;
#X connect 2 0 1 0;
#X connect 3 0 6 0;
#X connect 4 0 2 1;
#X connect 6 0 7 0;
#X connect 7 0 4 0;
#X connect 8 0 7 0;
#X connect 8 0 5 0;
#X coords 0 -1 1 1 150 20 1 100 100;
#X restore 9 380 pd leveling;
#N canvas 731 219 1055 665 stabilize 0;
#X obj 39 37 inlet~;
#X obj 39 256 outlet~;
#X obj 40 209 *~;
#X obj 518 104 pow~ 2;
#X obj 518 154 +~ 1;
#X obj 518 130 *~ 99;
#X obj 519 32 r stable;
#X msg 519 56 \$1 10;
#X obj 519 80 line~;
#X obj 126 107 expr~ pow((1 - min(1 \, $v1)) \, $v2);
#X obj 239 128 r enable-stablizer;
#X obj 126 131 *~;
#X obj 239 176 line~;
#X obj 239 200 expr~ 1 - $v1;
#X obj 126 155 +~;
#X obj 126 179 unsig~;
#X floatatom 126 203 5 0 0 0 - - - 0;
#X msg 239 152 \$1 100;
#X obj 126 79 RMS~ 0.01;
#X connect 0 0 2 0;
#X connect 0 0 18 0;
#X connect 2 0 1 0;
#X connect 3 0 5 0;
#X connect 4 0 9 1;
#X connect 5 0 4 0;
#X connect 6 0 7 0;
#X connect 7 0 8 0;
#X connect 8 0 3 0;
#X connect 9 0 11 0;
#X connect 10 0 17 0;
#X connect 11 0 14 0;
#X connect 12 0 11 1;
#X connect 12 0 13 0;
#X connect 13 0 14 1;
#X connect 14 0 2 1;
#X connect 14 0 15 0;
#X connect 15 0 16 0;
#X connect 17 0 12 0;
#X connect 18 0 9 0;
#X restore 8 350 pd stabilize;
#X obj 150 231 catch~ feedback-out;
#X text 550 45 Master init:;
#X obj 547 66 r init-master;
#X obj 547 88 bang;
#X msg 547 110 0.5;
#X text 579 110 <- change this to change the master init value;
#X obj 547 132 s fader-0;
#X text 387 40 mixer-4;
#X obj 15 120 bng 15 250 50 0 init-master empty empty 17 7 0 10 #fcfcfc
#000000 #000000;
#X connect 16 0 18 0;
#X connect 18 0 41 0;
#X connect 23 0 19 0;
#X connect 24 0 20 0;
#X connect 25 0 21 0;
#X connect 26 0 22 0;
#X connect 27 0 36 0;
#X connect 27 0 18 0;
#X connect 28 0 24 0;
#X connect 29 0 23 0;
#X connect 33 0 25 0;
#X connect 38 0 17 1;
#X connect 38 0 17 0;
#X connect 39 0 26 0;
#X connect 40 0 38 0;
#X connect 41 0 40 0;
#X connect 42 0 27 0;
#X connect 44 0 45 0;
#X connect 45 0 46 0;
#X connect 46 0 48 0;
#X coords 0 -1 1 1 500 210 1 10 10;
