#N canvas 6 -15 1920 997 12;
#X obj 54 44 inlet;
#X obj 154 52 r patchbay;
#X obj 169 227 anse;
#X obj 224 261 anse;
#X obj 293 283 anse;
#X obj 293 252 r~ vocoder-out;
#X obj 412 242 anse;
#X obj 481 264 anse;
#X obj 412 211 r~ swelling-out-1;
#X obj 481 232 r~ swelling-out-2;
#X obj 169 196 r~ replay-out;
#X obj 224 230 r~ delay-out-1;
#X obj 612 248 anse;
#X obj 667 282 anse;
#X obj 736 304 anse;
#X obj 612 217 r~ delay-out-2;
#X obj 667 251 r~ delay-out-3;
#X obj 736 273 r~ delay-out-4;
#N canvas -99 -9 1920 976 anse 0;
#X obj 133 40 inlet;
#X obj 114 199 *~;
#X obj 218 220 throw~ mixer-1;
#X obj 530 220 throw~ mixer-4;
#X obj 426 220 throw~ mixer-3;
#X obj 322 220 throw~ mixer-2;
#X obj 114 220 throw~ master;
#X obj 218 199 *~;
#X obj 321 199 *~;
#X obj 425 199 *~;
#X obj 530 199 *~;
#X obj 634 199 *~;
#X obj 758 199 *~;
#X obj 869 199 *~;
#X obj 1016 199 *~;
#X obj 634 220 throw~ vocoder-in;
#X obj 759 220 throw~ delay-in;
#X obj 870 220 throw~ swelling-in-1;
#X obj 1016 220 throw~ swelling-in-2;
#X obj 133 64 route master mixer-1 mixer-2 mixer-3 mixer-4 vocoder-in
delay-in swelling-in-1 swelling-in-2, f 112;
#X msg 133 109 \$1 10;
#X obj 133 133 line~;
#X msg 236 109 \$1 10;
#X obj 236 133 line~;
#X msg 339 109 \$1 10;
#X obj 339 133 line~;
#X msg 443 109 \$1 10;
#X obj 443 133 line~;
#X msg 548 109 \$1 10;
#X obj 548 133 line~;
#X msg 652 109 \$1 10;
#X obj 652 133 line~;
#X msg 776 109 \$1 10;
#X obj 776 133 line~;
#X msg 887 109 \$1 10;
#X obj 887 133 line~;
#X msg 1034 109 \$1 10;
#X obj 1034 133 line~;
#X obj 43 158 r~ rauschen;
#X msg 1158 68 0;
#X obj 1158 44 r reset;
#X connect 0 0 19 0;
#X connect 1 0 6 0;
#X connect 7 0 2 0;
#X connect 8 0 5 0;
#X connect 9 0 4 0;
#X connect 10 0 3 0;
#X connect 11 0 15 0;
#X connect 12 0 16 0;
#X connect 13 0 17 0;
#X connect 14 0 18 0;
#X connect 19 0 20 0;
#X connect 19 1 22 0;
#X connect 19 2 24 0;
#X connect 19 3 26 0;
#X connect 19 4 28 0;
#X connect 19 5 30 0;
#X connect 19 6 32 0;
#X connect 19 7 34 0;
#X connect 19 8 36 0;
#X connect 20 0 21 0;
#X connect 21 0 1 1;
#X connect 22 0 23 0;
#X connect 23 0 7 1;
#X connect 24 0 25 0;
#X connect 25 0 8 1;
#X connect 26 0 27 0;
#X connect 27 0 9 1;
#X connect 28 0 29 0;
#X connect 29 0 10 1;
#X connect 30 0 31 0;
#X connect 31 0 11 1;
#X connect 32 0 33 0;
#X connect 33 0 12 1;
#X connect 34 0 35 0;
#X connect 35 0 13 1;
#X connect 36 0 37 0;
#X connect 37 0 14 1;
#X connect 38 0 1 0;
#X connect 38 0 7 0;
#X connect 38 0 8 1;
#X connect 38 0 9 0;
#X connect 38 0 10 0;
#X connect 38 0 12 0;
#X connect 38 0 11 0;
#X connect 38 0 13 0;
#X connect 38 0 14 1;
#X connect 39 0 36 0;
#X connect 39 0 34 0;
#X connect 39 0 32 0;
#X connect 39 0 30 0;
#X connect 39 0 28 0;
#X connect 39 0 26 0;
#X connect 39 0 24 0;
#X connect 39 0 22 0;
#X connect 39 0 20 0;
#X connect 40 0 39 0;
#X restore 125 308 pd anse rauschen;
#X obj 125 148 route rauschen replay-out delay-out-1 vocoder-out swelling-out-1
swelling-out-2 delay-out-2 delay-out-3 delay-out-4 audio-in, f 127
;
#X obj 1048 227 print patchbay;
#X obj 910 270 anse;
#X obj 910 239 r~ audio-in;
#X msg 1048 204 no such source connection: \$1;
#X connect 0 0 19 0;
#X connect 1 0 19 0;
#X connect 5 0 4 0;
#X connect 8 0 6 0;
#X connect 9 0 7 0;
#X connect 10 0 2 0;
#X connect 11 0 3 0;
#X connect 15 0 12 0;
#X connect 16 0 13 0;
#X connect 17 0 14 0;
#X connect 19 0 18 0;
#X connect 19 1 2 1;
#X connect 19 2 3 1;
#X connect 19 3 4 1;
#X connect 19 4 6 1;
#X connect 19 5 7 1;
#X connect 19 6 12 1;
#X connect 19 7 13 1;
#X connect 19 8 14 1;
#X connect 19 9 21 1;
#X connect 19 10 23 0;
#X connect 22 0 21 0;
#X connect 23 0 20 0;
