#N canvas 155 289 998 426 12;
#X floatatom 137 42 5 0 0 0 - pb-master-0 - 0;
#X floatatom 176 42 5 0 0 0 - pb-mixer-1-0 - 0;
#X floatatom 215 42 5 0 0 0 - pb-mixer-2-0 - 0;
#X floatatom 254 42 5 0 0 0 - pb-mixer-3-0 - 0;
#X floatatom 293 42 5 0 0 0 - pb-mixer-4-0 - 0;
#X floatatom 332 42 5 0 0 0 - pb-vocoder-in-0 - 0;
#X floatatom 371 42 5 0 0 0 - pb-delay-in-0 - 0;
#X floatatom 410 42 5 0 0 0 - pb-swelling-in-1-0 - 0;
#X floatatom 449 42 5 0 0 0 - pb-swelling-in-2-0 - 0;
#X floatatom 488 42 5 0 0 0 - pb-analyse-in-0 - 0;
#X floatatom 527 42 5 0 0 0 - pb-blur-in-0 - 0;
#X floatatom 566 42 5 0 0 0 - pb-grizzle-in-0 - 0;
#N canvas 139 53 1540 467 routing 0;
#X obj 125 119 r patchbay;
#X obj 293 252 r~ vocoder-out;
#X obj 412 211 r~ swelling-out-1;
#X obj 481 232 r~ swelling-out-2;
#X obj 169 196 r~ replay-out;
#X obj 224 230 r~ delay-out-1;
#X obj 612 217 r~ delay-out-2;
#X obj 667 251 r~ delay-out-3;
#X obj 736 273 r~ delay-out-4;
#X obj 1172 250 print patchbay;
#X obj 910 239 r~ audio-in;
#X msg 1172 227 no such source connection: \$1;
#X obj 1004 218 r~ blur-out;
#X obj 125 148 route rauschen replay-out delay-out-1 vocoder-out swelling-out-1
swelling-out-2 delay-out-2 delay-out-3 delay-out-4 audio-in blur-out
grizzle-out, f 150;
#X obj 1059 268 r~ grizzle-out;
#X obj 169 227 anse 1;
#X obj 86 260 r~ rauschen;
#X obj 86 291 anse 0;
#X obj 224 261 anse 2;
#X obj 293 283 anse 3;
#X obj 412 242 anse 4;
#X obj 481 264 anse 5;
#X obj 612 248 anse 6;
#X obj 667 282 anse 7;
#X obj 736 304 anse 8;
#X obj 910 270 anse 9;
#X obj 1004 249 anse 10;
#X obj 1059 299 anse 11;
#X connect 0 0 13 0;
#X connect 1 0 19 0;
#X connect 2 0 20 0;
#X connect 3 0 21 0;
#X connect 4 0 15 0;
#X connect 5 0 18 0;
#X connect 6 0 22 0;
#X connect 7 0 23 0;
#X connect 8 0 24 0;
#X connect 10 0 25 0;
#X connect 11 0 9 0;
#X connect 12 0 26 0;
#X connect 13 0 17 1;
#X connect 13 1 15 1;
#X connect 13 2 18 1;
#X connect 13 3 19 1;
#X connect 13 4 20 1;
#X connect 13 5 21 1;
#X connect 13 6 22 1;
#X connect 13 7 23 1;
#X connect 13 8 24 1;
#X connect 13 9 25 1;
#X connect 13 10 26 1;
#X connect 13 11 27 1;
#X connect 13 12 11 0;
#X connect 14 0 27 0;
#X connect 16 0 17 0;
#X restore 799 184 pd routing;
#X obj 14 17 cnv 15 1 1 empty empty OUTS 20 12 0 20 #ffffff #202020
0;
#X text 31 43 rauschen;
#X text 31 65 replay-out;
#X text 31 88 delay-out-1;
#X text 31 111 vocoder-out;
#X text 31 134 swelling-out-1;
#X text 31 157 swelling-out-2;
#X text 31 180 delay-out-2;
#X text 31 203 delay-out-3;
#X text 31 226 delay-out-4;
#X text 31 249 audio-in;
#X text 31 272 blur-out;
#X text 31 295 grizzle-out;
#X floatatom 137 65 5 0 0 0 - pb-master-1 - 0;
#X floatatom 176 65 5 0 0 0 - pb-mixer-1-1 - 0;
#X floatatom 215 65 5 0 0 0 - pb-mixer-2-1 - 0;
#X floatatom 254 65 5 0 0 0 - pb-mixer-3-1 - 0;
#X floatatom 293 65 5 0 0 0 - pb-mixer-4-1 - 0;
#X floatatom 332 65 5 0 0 0 - pb-vocoder-in-1 - 0;
#X floatatom 371 65 5 0 0 0 - pb-delay-in-1 - 0;
#X floatatom 410 65 5 0 0 0 - pb-swelling-in-1-1 - 0;
#X floatatom 449 65 5 0 0 0 - pb-swelling-in-2-1 - 0;
#X floatatom 488 65 5 0 0 0 - pb-analyse-in-1 - 0;
#X floatatom 527 65 5 0 0 0 - pb-blur-in-1 - 0;
#X floatatom 566 65 5 0 0 0 - pb-grizzle-in-1 - 0;
#X floatatom 137 88 5 0 0 0 - pb-master-2 - 0;
#X floatatom 176 88 5 0 0 0 - pb-mixer-1-2 - 0;
#X floatatom 215 88 5 0 0 0 - pb-mixer-2-2 - 0;
#X floatatom 254 88 5 0 0 0 - pb-mixer-3-2 - 0;
#X floatatom 293 88 5 0 0 0 - pb-mixer-4-2 - 0;
#X floatatom 332 88 5 0 0 0 - pb-vocoder-in-2 - 0;
#X floatatom 371 88 5 0 0 0 - pb-delay-in-2 - 0;
#X floatatom 410 88 5 0 0 0 - pb-swelling-in-1-2 - 0;
#X floatatom 449 88 5 0 0 0 - pb-swelling-in-2-2 - 0;
#X floatatom 488 88 5 0 0 0 - pb-analyse-in-2 - 0;
#X floatatom 527 88 5 0 0 0 - pb-blur-in-2 - 0;
#X floatatom 566 88 5 0 0 0 - pb-grizzle-in-2 - 0;
#X floatatom 137 111 5 0 0 0 - pb-master-3 - 0;
#X floatatom 176 111 5 0 0 0 - pb-mixer-1-3 - 0;
#X floatatom 215 111 5 0 0 0 - pb-mixer-2-3 - 0;
#X floatatom 254 111 5 0 0 0 - pb-mixer-3-3 - 0;
#X floatatom 293 111 5 0 0 0 - pb-mixer-4-3 - 0;
#X floatatom 332 111 5 0 0 0 - pb-vocoder-in-3 - 0;
#X floatatom 371 111 5 0 0 0 - pb-delay-in-3 - 0;
#X floatatom 410 111 5 0 0 0 - pb-swelling-in-1-3 - 0;
#X floatatom 449 111 5 0 0 0 - pb-swelling-in-2-3 - 0;
#X floatatom 488 111 5 0 0 0 - pb-analyse-in-3 - 0;
#X floatatom 527 111 5 0 0 0 - pb-blur-in-3 - 0;
#X floatatom 566 111 5 0 0 0 - pb-grizzle-in-3 - 0;
#X floatatom 137 134 5 0 0 0 - pb-master-4 - 0;
#X floatatom 176 134 5 0 0 0 - pb-mixer-1-4 - 0;
#X floatatom 215 134 5 0 0 0 - pb-mixer-2-4 - 0;
#X floatatom 254 134 5 0 0 0 - pb-mixer-3-4 - 0;
#X floatatom 293 134 5 0 0 0 - pb-mixer-4-4 - 0;
#X floatatom 332 134 5 0 0 0 - pb-vocoder-in-4 - 0;
#X floatatom 371 134 5 0 0 0 - pb-delay-in-4 - 0;
#X floatatom 410 134 5 0 0 0 - pb-swelling-in-1-4 - 0;
#X floatatom 449 134 5 0 0 0 - pb-swelling-in-2-4 - 0;
#X floatatom 488 134 5 0 0 0 - pb-analyse-in-4 - 0;
#X floatatom 527 134 5 0 0 0 - pb-blur-in-4 - 0;
#X floatatom 566 134 5 0 0 0 - pb-grizzle-in-4 - 0;
#X floatatom 137 157 5 0 0 0 - pb-master-5 - 0;
#X floatatom 176 157 5 0 0 0 - pb-mixer-1-5 - 0;
#X floatatom 215 157 5 0 0 0 - pb-mixer-2-5 - 0;
#X floatatom 254 157 5 0 0 0 - pb-mixer-3-5 - 0;
#X floatatom 293 157 5 0 0 0 - pb-mixer-4-5 - 0;
#X floatatom 332 157 5 0 0 0 - pb-vocoder-in-5 - 0;
#X floatatom 371 157 5 0 0 0 - pb-delay-in-5 - 0;
#X floatatom 410 157 5 0 0 0 - pb-swelling-in-1-5 - 0;
#X floatatom 449 157 5 0 0 0 - pb-swelling-in-2-5 - 0;
#X floatatom 488 157 5 0 0 0 - pb-analyse-in-5 - 0;
#X floatatom 527 157 5 0 0 0 - pb-blur-in-5 - 0;
#X floatatom 566 157 5 0 0 0 - pb-grizzle-in-5 - 0;
#X floatatom 137 180 5 0 0 0 - pb-master-6 - 0;
#X floatatom 176 180 5 0 0 0 - pb-mixer-1-6 - 0;
#X floatatom 215 180 5 0 0 0 - pb-mixer-2-6 - 0;
#X floatatom 254 180 5 0 0 0 - pb-mixer-3-6 - 0;
#X floatatom 293 180 5 0 0 0 - pb-mixer-4-6 - 0;
#X floatatom 332 180 5 0 0 0 - pb-vocoder-in-6 - 0;
#X floatatom 371 180 5 0 0 0 - pb-delay-in-6 - 0;
#X floatatom 410 180 5 0 0 0 - pb-swelling-in-1-6 - 0;
#X floatatom 449 180 5 0 0 0 - pb-swelling-in-2-6 - 0;
#X floatatom 488 180 5 0 0 0 - pb-analyse-in-6 - 0;
#X floatatom 527 180 5 0 0 0 - pb-blur-in-6 - 0;
#X floatatom 566 180 5 0 0 0 - pb-grizzle-in-6 - 0;
#X floatatom 137 203 5 0 0 0 - pb-master-7 - 0;
#X floatatom 176 203 5 0 0 0 - pb-mixer-1-7 - 0;
#X floatatom 215 203 5 0 0 0 - pb-mixer-2-7 - 0;
#X floatatom 254 203 5 0 0 0 - pb-mixer-3-7 - 0;
#X floatatom 293 203 5 0 0 0 - pb-mixer-4-7 - 0;
#X floatatom 332 203 5 0 0 0 - pb-vocoder-in-7 - 0;
#X floatatom 371 203 5 0 0 0 - pb-delay-in-7 - 0;
#X floatatom 410 203 5 0 0 0 - pb-swelling-in-1-7 - 0;
#X floatatom 449 203 5 0 0 0 - pb-swelling-in-2-7 - 0;
#X floatatom 488 203 5 0 0 0 - pb-analyse-in-7 - 0;
#X floatatom 527 203 5 0 0 0 - pb-blur-in-7 - 0;
#X floatatom 566 203 5 0 0 0 - pb-grizzle-in-7 - 0;
#X floatatom 137 226 5 0 0 0 - pb-master-8 - 0;
#X floatatom 176 226 5 0 0 0 - pb-mixer-1-8 - 0;
#X floatatom 215 226 5 0 0 0 - pb-mixer-2-8 - 0;
#X floatatom 254 226 5 0 0 0 - pb-mixer-3-8 - 0;
#X floatatom 293 226 5 0 0 0 - pb-mixer-4-8 - 0;
#X floatatom 332 226 5 0 0 0 - pb-vocoder-in-8 - 0;
#X floatatom 371 226 5 0 0 0 - pb-delay-in-8 - 0;
#X floatatom 410 226 5 0 0 0 - pb-swelling-in-1-8 - 0;
#X floatatom 449 226 5 0 0 0 - pb-swelling-in-2-8 - 0;
#X floatatom 488 226 5 0 0 0 - pb-analyse-in-8 - 0;
#X floatatom 527 226 5 0 0 0 - pb-blur-in-8 - 0;
#X floatatom 566 226 5 0 0 0 - pb-grizzle-in-8 - 0;
#X floatatom 137 249 5 0 0 0 - pb-master-9 - 0;
#X floatatom 176 249 5 0 0 0 - pb-mixer-1-9 - 0;
#X floatatom 215 249 5 0 0 0 - pb-mixer-2-9 - 0;
#X floatatom 254 249 5 0 0 0 - pb-mixer-3-9 - 0;
#X floatatom 293 249 5 0 0 0 - pb-mixer-4-9 - 0;
#X floatatom 332 249 5 0 0 0 - pb-vocoder-in-9 - 0;
#X floatatom 371 249 5 0 0 0 - pb-delay-in-9 - 0;
#X floatatom 410 249 5 0 0 0 - pb-swelling-in-1-9 - 0;
#X floatatom 449 249 5 0 0 0 - pb-swelling-in-2-9 - 0;
#X floatatom 488 249 5 0 0 0 - pb-analyse-in-9 - 0;
#X floatatom 527 249 5 0 0 0 - pb-blur-in-9 - 0;
#X floatatom 566 249 5 0 0 0 - pb-grizzle-in-9 - 0;
#X floatatom 137 272 5 0 0 0 - pb-master-10 - 0;
#X floatatom 176 272 5 0 0 0 - pb-mixer-1-10 - 0;
#X floatatom 215 272 5 0 0 0 - pb-mixer-2-10 - 0;
#X floatatom 254 272 5 0 0 0 - pb-mixer-3-10 - 0;
#X floatatom 293 272 5 0 0 0 - pb-mixer-4-10 - 0;
#X floatatom 332 272 5 0 0 0 - pb-vocoder-in-10 - 0;
#X floatatom 371 272 5 0 0 0 - pb-delay-in-10 - 0;
#X floatatom 410 272 5 0 0 0 - pb-swelling-in-1-10 - 0;
#X floatatom 449 272 5 0 0 0 - pb-swelling-in-2-10 - 0;
#X floatatom 488 272 5 0 0 0 - pb-analyse-in-10 - 0;
#X floatatom 527 272 5 0 0 0 - pb-blur-in-10 - 0;
#X floatatom 566 272 5 0 0 0 - pb-grizzle-in-10 - 0;
#X floatatom 137 295 5 0 0 0 - pb-master-11 - 0;
#X floatatom 176 295 5 0 0 0 - pb-mixer-1-11 - 0;
#X floatatom 215 295 5 0 0 0 - pb-mixer-2-11 - 0;
#X floatatom 254 295 5 0 0 0 - pb-mixer-3-11 - 0;
#X floatatom 293 295 5 0 0 0 - pb-mixer-4-11 - 0;
#X floatatom 332 295 5 0 0 0 - pb-vocoder-in-11 - 0;
#X floatatom 371 295 5 0 0 0 - pb-delay-in-11 - 0;
#X floatatom 410 295 5 0 0 0 - pb-swelling-in-1-11 - 0;
#X floatatom 449 295 5 0 0 0 - pb-swelling-in-2-11 - 0;
#X floatatom 488 295 5 0 0 0 - pb-analyse-in-11 - 0;
#X floatatom 527 295 5 0 0 0 - pb-blur-in-11 - 0;
#X floatatom 566 295 5 0 0 0 - pb-grizzle-in-11 - 0;
#X text 136 316 mstr;
#X text 176 316 mxr1;
#X text 294 316 mxr4;
#X text 256 316 mxr3;
#X text 214 316 mxr2;
#X text 334 316 voc;
#X text 372 316 del;
#X text 410 316 swe1;
#X text 448 316 swe2;
#X text 487 316 anly;
#X text 525 316 blur;
#X text 567 316 grzl;
#X obj 114 337 cnv 15 1 1 empty empty INS 20 12 0 20 #ffffff #202020
0;
