#N canvas -97 -23 1920 997 12;
#X obj 7 6 r current-trigger;
#X msg 7 54 \; reset bang \;;
#X obj 613 56 route 10 11 12 13 14 15 16 17 18 19, f 90;
#X obj 7 30 route 0 1 2 3 4 5 6 7 8 9, f 87;
#X obj 30 145 r intro-noise;
#X obj 95 98 s intro-noise;
#X obj 27 421 r to-vocoder;
#X obj 156 70 s intro-swelling;
#X obj 28 335 r intro-swelling;
#X obj 273 125 s to-vocoder;
#X obj 385 97 s change-q;
#X msg 1629 787 \; reset-sample-1 \; reset-sample-2 \;;
#X msg 1617 870 \; patchbay audio-in analyse-in 1 \; patchbay vocoder-out
delay-in 10 \; patchbay delay-out-1 mixer-2 1 \; fader-2 0.9 \;;
#X msg 1569 699 \; sweller-1 line 0 \, line 1 1000 \, osc-freq 1 \;
;
#X text 448 228 \; \; \; \; \; \; \; \; \; \; \; \; \; \; \; \; \;
\; \; \; \; \; \; \; \; \; \; \; \; \; \; \; \; \; \; \; \; \; \; \;
\; \; \; \; \; \; \; \; \; \; \; \; \;;
#X obj 37 166 line_send 0 0.5 20000 fader-0;
#X msg 1240 791 \; patchbay swelling-out-1 delay-in 1 \; patchbay delay-out-2
swelling-in-2 1 \; patchbay delay-out-3 swelling-in-2 1 \; patchbay
delay-out-4 swelling-in-2 1 \; patchbay swelling-out-2 mixer-2 1 \;
sweller-2 line 1 \; sweller-1 line 1 \, line 0 20000 \, osc-freq 1
\, osc-amp 0 \, osc-amp 1 20000 \; fader-2 0.8 \; record 20 \;, f
52;
#X obj 411 125 s voc-fade-out;
#X obj 470 93 s voc-fade-in;
#X obj 463 229 cnv 19 1 1 empty empty 7 20 12 0 30 #e0e0e0 #404040
0;
#X obj 22 918 r voc-fade-out;
#X obj 23 940 line_send 0.7 0 5000 fader-1 1 1;
#X msg 30 187 \; patchbay rauschen vocoder-in 1 \; patchbay rauschen
swelling-in-2 1 \; patchbay vocoder-out swelling-in-1 1 \; patchbay
swelling-out-1 mixer-1 1 \; patchbay swelling-out-2 filter-in 1 \;
patchbay filter-out mixer-2 1 \; filter-freq 5000 \; sweller-2 line
1 \; fader-2 0.1 \;;
#X msg 28 357 \; sweller-2 line 1 \, line 0 20000 \, osc-freq 0.5 \,
osc-amp 0 \, osc-amp 1 20000 \; record 20 \;, f 52;
#X obj 35 442 line_send 0 0.7 20000 fader-1;
#X obj 22 962 line_send 0.7 0 5000 fader-2 1 1;
#X obj 36 485 line_send 5000 150 10000 filter-freq 0.25;
#X msg 27 528 \; patchbay audio-in analyse-in 1 \; patchbay replay-out
analyse-in 1 \; sweller-2 line 0 \, line 1 7000 \, osc-amp 1 \, osc-amp
0 7000 \; sweller-1 line 1 10000 \; record 20 \; vocoder-speed 1000
\; vocoder-speed-t 100 \; vocoder-q 1000 \; vocoder-mix 1 \;;
#X obj 36 506 line_send 0 4.5 15000 filter-q 2 1;
#X obj 35 463 line_send 0.1 0.8 10000 fader-2 1;
#X obj 24 749 r change-q;
#X obj 280 64 s change-filter-freq;
#X obj 25 677 r change-filter-freq;
#X msg 25 699 \; filter-freq 140 \; sweller-2 line 0 1000 \;;
#X obj 34 833 line_send 4.5 0 5000 filter-q 100 1;
#X obj 33 791 line_send 200 10 15000 vocoder-speed 1 1;
#X obj 33 770 line_send 1000 10 20000 vocoder-q 4 1;
#X obj 35 812 line_send 200 10 10000 vocoder-speed-t 1 1;
#X msg 24 854 \; record 20 \; sweller-1 line 0 20000 \, osc-freq 0.2
10000 \, osc-amp 0.4 1000 \;, f 47;
#X text 862 237 \; \; \; \; \; \; \; \; \; \; \; \; \; \; \; \; \;
\; \; \; \; \; \; \; \; \; \; \; \; \; \; \; \; \; \; \; \; \; \; \;
\; \; \; \; \; \; \; \; \; \; \; \; \;, f 2;
#X obj 877 238 cnv 19 1 1 empty empty 10 20 12 0 30 #e0e0e0 #404040
0;
#X obj 513 603 bang;
#X obj 513 624 del 20000;
#X msg 22 983 \; record 10 \;;
#X obj 609 588 del 10000;
#X obj 535 65 s morph-g;
#X obj 514 871 r morph-g;
#X obj 1558 319 vsl 15 128 0 1 0 0 empty empty empty 0 -9 0 10 #fcfcfc
#000000 #000000 0 1;
#X obj 1558 455 s blur-mix;
#X obj 1699 248 vsl 15 128 0 1 0 0 empty empty empty 0 -9 0 10 #fcfcfc
#000000 #000000 0 1;
#X obj 1699 384 s fader-4;
#X obj 1675 273 vsl 15 128 0 1 0 0 empty empty empty 0 -9 0 10 #fcfcfc
#000000 #000000 0 1;
#X obj 1675 409 s fader-3;
#X obj 1456 381 vsl 15 128 2 10 0 0 empty empty empty 0 -9 0 10 #fcfcfc
#000000 #000000 0 1;
#X obj 1456 517 s freq-1;
#X obj 1427 412 vsl 15 128 0 1 0 0 empty empty empty 0 -9 0 10 #fcfcfc
#000000 #000000 0 1;
#X obj 1427 548 s duty-cycle-1;
#X obj 1656 300 vsl 15 128 0 1 0 0 empty empty empty 0 -9 0 10 #fcfcfc
#000000 #000000 0 1;
#X obj 1656 436 s fader-1;
#X obj 514 913 line_send 0 0.6 30000 fader-3 2;
#X obj 514 892 line_send 0.6 0 30000 fader-4 2 1;
#X obj 567 277 line_send 0 0.7 2000 fader-1 1;
#X obj 568 298 line_send 10 1000 10000 vocoder-speed 2;
#X obj 544 112 s grizzle-blur;
#X obj 513 824 r grizzle-blur;
#X obj 513 801 line_send 0.7 0.3 35000 fader-1 3 1;
#X msg 609 610 \; replay-2 3 0 15 0.5 \;;
#X obj 513 779 line_send 500 2 35000 vocoder-q 1 1;
#X msg 513 646 \; sweller-1 line 1 \, line 0 16000 \, osc-amp 1 12000
\, osc-freq 0.125 \; vocoder-speed 100000 \; vocoder-speed-t 1000 \;
open-sample-1 buffer6.wav \; freq-1 2 \; vol-1 1 \; vol-2 0 \;, f
39;
#X obj 518 847 line_send 0 0.6 40000 fader-4 3;
#X obj 513 934 line_send 0.3 0 50000 fader-1 1 1;
#X obj 569 319 line_send 10 500 1000 vocoder-q 1 1;
#X obj 512 249 t b b;
#X obj 512 228 r voc-fade-in;
#X msg 1118 171 \; reset \; patchbay rauschen vocoder-in 1 \; patchbay
rauschen swelling-in-2 0 \; patchbay vocoder-out swelling-in-1 1 \;
patchbay swelling-out-1 mixer-1 1 \; patchbay swelling-out-2 filter-in
0 \; patchbay filter-out mixer-2 0 \; patchbay audio-in analyse-in
0 \; patchbay replay-out analyse-in 1 \; patchbay blur-out analyse-in
1 \; patchbay blur-out mixer-3 1 \; patchbay grizzle-out blur-in 1
\; patchbay grizzle-out mixer-4 1 \; reset-1 bang \; fader-0 0.5 \;
sweller-1 line 1 \, osc-freq 0 \, osc-amp 0 \; sweller-2 line 0 \,
osc-amp 0 \; vocoder-speed-t 20 \; vocoder-mix 1 \; replay-1 6 0 10
0.5 \;;
#X msg 512 342 \; reset \; patchbay rauschen vocoder-in 1 \; patchbay
vocoder-out swelling-in-1 1 \; patchbay swelling-out-1 mixer-1 1 \;
patchbay replay-out analyse-in 1 \; patchbay blur-out analyse-in 1
\; patchbay blur-out mixer-3 1 \; patchbay grizzle-out blur-in 1 \;
patchbay grizzle-out mixer-4 1 \; reset-1 bang \; fader-0 0.5 \; sweller-1
line 1 \, osc-freq 0 \, osc-amp 0 \; sweller-2 line 0 \, osc-amp 0
\; vocoder-speed-t 20 \; vocoder-mix 1 \; replay-1 6 0 10 0.5 \;;
#X connect 0 0 3 0;
#X connect 3 0 1 0;
#X connect 3 1 5 0;
#X connect 3 2 7 0;
#X connect 3 3 9 0;
#X connect 3 4 31 0;
#X connect 3 5 10 0;
#X connect 3 6 17 0;
#X connect 3 7 18 0;
#X connect 3 8 63 0;
#X connect 3 9 45 0;
#X connect 3 10 2 0;
#X connect 4 0 22 0;
#X connect 4 0 15 0;
#X connect 6 0 27 0;
#X connect 6 0 24 0;
#X connect 6 0 26 0;
#X connect 6 0 28 0;
#X connect 6 0 29 0;
#X connect 8 0 23 0;
#X connect 20 0 25 0;
#X connect 20 0 21 0;
#X connect 20 0 43 0;
#X connect 30 0 38 0;
#X connect 30 0 34 0;
#X connect 30 0 35 0;
#X connect 30 0 36 0;
#X connect 30 0 37 0;
#X connect 32 0 33 0;
#X connect 41 0 42 0;
#X connect 41 0 44 0;
#X connect 42 0 65 0;
#X connect 42 0 68 0;
#X connect 42 0 67 0;
#X connect 44 0 66 0;
#X connect 46 0 59 0;
#X connect 46 0 60 0;
#X connect 46 0 70 0;
#X connect 47 0 48 0;
#X connect 49 0 50 0;
#X connect 51 0 52 0;
#X connect 53 0 54 0;
#X connect 55 0 56 0;
#X connect 57 0 58 0;
#X connect 64 0 69 0;
#X connect 72 0 61 0;
#X connect 72 0 62 0;
#X connect 72 0 71 0;
#X connect 72 1 41 0;
#X connect 72 1 75 0;
#X connect 73 0 72 0;
