#N canvas 56 -14 1920 997 12;
#X obj 7 6 r current-trigger;
#X msg 7 54 \; reset bang \;;
#X obj 30 145 r intro-noise;
#X obj 95 98 s intro-noise;
#X obj 27 421 r to-vocoder;
#X obj 156 70 s intro-swelling;
#X obj 28 335 r intro-swelling;
#X obj 273 125 s to-vocoder;
#X obj 304 90 s change-q;
#X msg 2482 807 \; reset-sample-1 \; reset-sample-2 \;;
#X msg 2470 890 \; patchbay audio-in analyse-in 1 \; patchbay vocoder-out
delay-in 10 \; patchbay delay-out-1 mixer-2 1 \; fader-2 0.9 \;;
#X msg 2422 719 \; sweller-1 line 0 \, line 1 1000 \, osc-freq 1 \;
;
#X text 448 228 \; \; \; \; \; \; \; \; \; \; \; \; \; \; \; \; \;
\; \; \; \; \; \; \; \; \; \; \; \; \; \; \; \; \; \; \; \; \; \; \;
\; \; \; \; \; \; \; \; \; \; \; \; \;;
#X obj 37 166 line_send 0 0.5 20000 fader-0;
#X obj 411 125 s voc-fade-out;
#X obj 470 93 s voc-fade-in;
#X obj 463 229 cnv 19 1 1 empty empty 8 20 12 0 30 #e0e0e0 #404040
0;
#X obj 26 992 line_send 0.7 0 5000 fader-1 1 1;
#X msg 30 187 \; patchbay rauschen vocoder-in 1 \; patchbay rauschen
swelling-in-2 1 \; patchbay vocoder-out swelling-in-1 1 \; patchbay
swelling-out-1 mixer-1 1 \; patchbay swelling-out-2 filter-in 1 \;
patchbay filter-out mixer-2 1 \; filter-freq 5000 \; sweller-2 line
1 \; fader-2 0.1 \;;
#X msg 28 357 \; sweller-2 line 1 \, line 0 20000 \, osc-freq 0.5 \,
osc-amp 0 \, osc-amp 1 20000 \; record 20 \;, f 52;
#X obj 35 442 line_send 0 0.7 20000 fader-1;
#X obj 25 1014 line_send 0.7 0 5000 fader-2 1 1;
#X obj 36 485 line_send 5000 150 10000 filter-freq 0.25;
#X obj 36 506 line_send 0 4.5 15000 filter-q 2 1;
#X obj 35 463 line_send 0.1 0.8 10000 fader-2 1;
#X obj 24 733 r change-q;
#X obj 280 64 s change-filter-freq;
#X obj 25 661 r change-filter-freq;
#X msg 25 683 \; filter-freq 140 \; sweller-2 line 0 1000 \;;
#X obj 34 817 line_send 4.5 0 5000 filter-q 100 1;
#X obj 33 754 line_send 1000 10 20000 vocoder-q 4 1;
#X obj 35 796 line_send 200 10 10000 vocoder-speed-t 1 1;
#X text 862 237 \; \; \; \; \; \; \; \; \; \; \; \; \; \; \; \; \;
\; \; \; \; \; \; \; \; \; \; \; \; \; \; \; \; \; \; \; \; \; \; \;
\; \; \; \; \; \; \; \; \; \; \; \; \;, f 2;
#X obj 877 238 cnv 19 1 1 empty empty 11 20 12 0 30 #e0e0e0 #404040
0;
#X obj 513 574 bang;
#X obj 513 647 del 20000;
#X obj 609 612 del 10000;
#X obj 676 108 s morph-g;
#X obj 895 658 r morph-g;
#X obj 901 701 line_send 0 0.6 30000 fader-3 2;
#X obj 901 680 line_send 0.6 0 30000 fader-4 2 1;
#X obj 513 825 line_send 0.7 0.3 35000 fader-1 3 1;
#X msg 609 634 \; replay-2 3 0 15 0.5 \;;
#X obj 513 803 line_send 500 2 35000 vocoder-q 1 1;
#X msg 513 670 \; sweller-1 line 1 \, line 0 16000 \, osc-amp 1 12000
\, osc-freq 0.125 \; vocoder-speed 100000 \; vocoder-speed-t 1000 \;
open-sample-1 buffer6.wav \; freq-1 2 \; vol-1 1 \; vol-2 0 \;, f
39;
#X obj 899 293 line_send 0 0.6 40000 fader-4 3;
#X obj 512 249 t b b;
#X obj 512 228 r voc-fade-in;
#X obj 902 722 line_send 0.3 0 15000 fader-1 1 1;
#X text 1405 932 audio-in wieder in analyse \, um feedback vorzubereiten
;
#X obj 568 298 line_send 10 1000 13000 vocoder-speed 2;
#X obj 33 775 line_send 200 10 20000 vocoder-speed 2 1;
#X obj 703 578 del 0;
#X obj 548 130 s pedal-tones;
#X obj 513 851 r pedal-tones;
#X msg 513 898 \; patchbay rauschen swelling-in-2 1 \; patchbay swelling-out-2
filter-in 1 \; patchbay filter-out mixer-2 1 \; sweller-2 line 1 \;
filter-q 4.5 \; filter-freq 130 \;;
#X msg 894 337 \; filter-freq 146 \;;
#X obj 521 58 s new-pedal1;
#X obj 513 1005 r new-pedal1;
#X obj 894 270 r grizzle-fade-in;
#X obj 613 86 s grizzle-fade-in;
#X obj 894 315 del 5000;
#X msg 894 395 \; filter-freq 150 \;;
#X msg 895 453 \; filter-freq 143 \;;
#X obj 894 373 del 7000;
#X obj 895 431 del 2000;
#X obj 895 490 del 2000;
#X obj 895 549 del 2000;
#X msg 895 571 \; filter-freq 139 \;;
#X msg 895 512 \; filter-freq 133;
#X msg 513 1047 \; filter-freq 164 \; sweller-2 line 0 1000 \;;
#X obj 895 607 del 2000;
#X obj 895 631 line_send 139 92 15000 filter-freq 1;
#X obj 513 1026 del 1000;
#X obj 1010 920 r griz-chords-2;
#X obj 896 958 r griz-chords-3;
#X obj 1010 991 r griz-chords-4;
#X obj 896 1015 r griz-chords-5;
#X obj 1010 1048 r griz-chords-6;
#X obj 896 1085 r griz-chords-7;
#X obj 1011 1105 r griz-chords-8;
#X obj 897 1155 r griz-chords-9;
#X obj 1011 1162 r griz-chords-10;
#X obj 896 1260 r grizzle-out;
#X obj 1188 86 s griz-chords-2;
#X obj 1188 109 s griz-chords-3;
#X obj 1188 131 s griz-chords-4;
#X obj 1188 153 s griz-chords-5;
#X obj 1188 176 s griz-chords-6;
#X obj 1188 198 s griz-chords-7;
#X obj 1189 220 s griz-chords-8;
#X obj 1189 243 s griz-chords-9;
#X obj 1189 265 s griz-chords-10;
#X obj 1302 67 s grizzle-out;
#X obj 25 970 r voc-fade-out;
#X text 1199 309 \; \; \; \; \; \; \; \; \; \; \; \; \; \; \; \; \;
\; \; \; \; \; \; \; \; \; \; \; \; \; \; \; \; \; \; \; \; \; \; \;
\; \; \; \; \; \; \; \; \; \; \; \; \;, f 2;
#X obj 1214 310 cnv 19 1 1 empty empty 23 20 12 0 30 #e0e0e0 #404040
0;
#X obj 896 1284 line_send 0.7 0 50 fader-3 1 1;
#X msg 512 342 \; reset bang \; patchbay rauschen vocoder-in 1 \; patchbay
vocoder-out swelling-in-1 1 \; patchbay swelling-out-1 mixer-1 1 \;
patchbay replay-out analyse-in 1 \; patchbay blur-out analyse-in 1
\; patchbay blur-out mixer-3 1 \; patchbay grizzle-out-1 blur-in 1
\; patchbay grizzle-out-1 mixer-4 1 \; reset-1 bang \; fader-0 0.5
\; sweller-1 line 1 \, osc-freq 0 \, osc-amp 0 \; sweller-2 line 0
\, osc-amp 0 \; vocoder-speed-t 20 \; vocoder-mix 1 \;;
#X msg 1010 941 \; fader-2 0 \;;
#X msg 896 979 \; fader-2 1 \;;
#X msg 1010 1012 \; fader-2 0 \;;
#X msg 1010 1069 \; fader-2 0 \;;
#X msg 897 1177 \; fader-2 1 \;;
#X msg 1011 1127 \; fader-2 0 \;;
#X msg 1011 1183 \; fader-2 0 \; vol-2 0 \;;
#X msg 896 1036 \; fader-2 1 \; freq-2 -3.1 \;;
#X msg 896 1106 \; fader-2 1 \; freq-2 -3.25 \;;
#X obj 897 1236 line_send -3.25 -4.5 6000 freq-2 2 1;
#X obj 521 875 line_send 0 0.7 200 fader-2 1;
#X obj 34 838 line_send 0.7 0.9 3000 fader-1 1 1;
#X msg 895 744 \; patchbay audio-in grizzle-in 1 \; patchbay grizzle-out-2
filter-in 1 \; vol-2 4 \; freq-2 -3 \; width-2 1 \; pulse-2 bang \;
fader-2 1 \; sweller-2 line 1 \; filter-q 0 \; filter-freq 2500 \;
sweller-2 line 0.5 \;;
#X msg 24 864 \; sweller-1 line 0 20000 \, osc-freq 0.2 10000 \, osc-amp
0.4 1000 \;, f 47;
#X msg 25 934 \; record 20 \;;
#X obj 25 913 r record-6;
#X obj 613 56 route 11 12 13 14 15 16 17 18 19 20, f 90;
#X obj 1240 30 route 21 22 23 24 25 26 27 28 29 30, f 90;
#X obj 7 30 route 0 1 2 3 4 5 6 7 8 9 10, f 87;
#X obj 383 146 s record-6;
#X msg 27 528 \; patchbay audio-in analyse-in 1 \; patchbay replay-out
analyse-in 1 \; sweller-2 line 0 \, line 1 7000 \, osc-amp 1 \, osc-amp
0 7000 \; sweller-1 line 1 10000 \; vocoder-speed 1000 \; vocoder-speed-t
100 \; vocoder-q 1000 \; vocoder-mix 1 \;;
#X msg 679 598 \; replay-1 1008 0 10 0.5 \;;
#X obj 567 277 line_send 0 0.7 500 fader-1 0.5;
#X obj 569 319 line_send 10 200 500 vocoder-q 1 1;
#X text 1230 341 nice impulses:;
#X obj 2052 175 s feedback-standalone;
#X obj 1872 368 r feedback-standalone;
#X text 1356 342 plus modulation?;
#X msg 2032 985 \; patchbay audio-in swelling-in-1 1 \; patchbay audio-in
analyse-in 1 \; patchbay swelling-out-1 delay-in 1 \; patchbay delay-out-1
swelling-in-2 0 \; patchbay delay-out-2 swelling-in-2 1 \; patchbay
delay-out-3 swelling-in-2 1 \; patchbay delay-out-4 swelling-in-2 1
\; patchbay swelling-out-2 mixer-2 1 \; enable-stablizer 1 \; stablizer
0.1 \; sweller-2 line 1 \; sweller-1 line 1 \, line 0 20000 \, osc-freq
1 \, osc-amp 0 \, osc-amp 1 20000 \; fader-2 0.8 \;, f 52;
#X obj 2052 94 route 31 32 33 34 35;
#X msg 1872 728 \; hipass-freq 800 \;;
#X obj 1879 706 line_send 1 15 60000 del-line-mult 1;
#X obj 1872 766 del 20000;
#X msg 1872 790 \; delay-slider-automation 1 \;;
#X obj 2106 123 s feedback-sweep;
#X obj 1872 683 r feedback-sweep;
#X obj 1981 201 bng 15 250 50 0 empty empty empty 17 7 0 10 #fcfcfc
#000000 #000000;
#X obj 2083 237 bng 15 250 50 0 empty empty empty 17 7 0 10 #fcfcfc
#000000 #000000;
#X obj 1872 621 r feedback-pitch;
#X obj 2079 148 s feedback-pitch;
#X obj 2034 225 bng 15 250 50 0 empty empty empty 17 7 0 10 #fcfcfc
#000000 #000000;
#X msg 1872 394 \; reset bang \; patchbay audio-in delay-in 1 \; patchbay
delay-out-2 vocoder-in 1 \; patchbay vocoder-out mixer-2 1 \; del-line-mult
1 \; hipass-freq 1 \; delay-2-slider 1 \; delay-3-slider 1 \; delay-4-slider
1 \; fdbpitch 4000 \; enable-stablizer 1 \; stablizer 0.1 \; fader-2
0.8 \; fader-0 1 \;, f 52;
#X msg 1872 644 \; patchbay audio-in analyse-in 1 \;;
#X obj 2272 211 s feedback-voc;
#X obj 2126 258 bng 15 250 50 0 empty empty empty 17 7 0 10 #fcfcfc
#000000 #000000;
#X obj 1871 831 r feedback-voc;
#X obj 1871 855 line_send 0 1 10000 vocoder-mix 1 1;
#X obj 1870 878 line_send 0 1000 10000 vocoder-q 1 1;
#X text 2011 294 stage 3 sounds good with "vor tutti";
#X text 2044 320 vocoder für tutti rein;
#X obj 1245 387 line_send 0 0.8 10000 fader-4 1 1;
#X obj 1232 365 r start-impulses;
#X msg 1475 438 \; open-sample-1 test.wav \; open-sample-2 test.wav
\;;
#X obj 1233 613 r mod-impulses;
#X obj 1246 635 line_send 8 8.5 20000 freq-1 1 1;
#X obj 1246 657 line_send 8 8.2 20000 freq-2 1 1;
#X obj 1364 115 s start-impulses;
#X obj 1412 93 s mod-impulses;
#X obj 1245 681 line_send 0.5 0.49 20000 width-1 1 1;
#X msg 1232 408 \; reset bang \; patchbay grizzle-out-1 mixer-4 1 \;
patchbay grizzle-out-2 mixer-4 1 \; patchbay audio-in grizzle-in 1
\; freq-1 8 \; freq-2 8 \; width-1 0.5 \; width-2 0.5 \; pulse-1 bang
\; pulse-2 bang \; vol-1 1 \; vol-2 1 \; fader-0 0.5 \;;
#X connect 0 0 117 0;
#X connect 2 0 18 0;
#X connect 2 0 13 0;
#X connect 4 0 119 0;
#X connect 4 0 20 0;
#X connect 4 0 22 0;
#X connect 4 0 23 0;
#X connect 4 0 24 0;
#X connect 6 0 19 0;
#X connect 25 0 112 0;
#X connect 25 0 29 0;
#X connect 25 0 30 0;
#X connect 25 0 31 0;
#X connect 25 0 51 0;
#X connect 25 0 110 0;
#X connect 27 0 28 0;
#X connect 34 0 35 0;
#X connect 34 0 36 0;
#X connect 34 0 52 0;
#X connect 35 0 41 0;
#X connect 35 0 44 0;
#X connect 35 0 43 0;
#X connect 36 0 42 0;
#X connect 38 0 39 0;
#X connect 38 0 40 0;
#X connect 38 0 48 0;
#X connect 38 0 111 0;
#X connect 46 0 50 0;
#X connect 46 0 121 0;
#X connect 46 0 122 0;
#X connect 46 1 34 0;
#X connect 46 1 98 0;
#X connect 47 0 46 0;
#X connect 52 0 120 0;
#X connect 54 0 55 0;
#X connect 54 0 109 0;
#X connect 58 0 73 0;
#X connect 59 0 45 0;
#X connect 59 0 61 0;
#X connect 61 0 56 0;
#X connect 61 0 64 0;
#X connect 64 0 62 0;
#X connect 64 0 65 0;
#X connect 65 0 63 0;
#X connect 65 0 66 0;
#X connect 66 0 69 0;
#X connect 66 0 67 0;
#X connect 67 0 68 0;
#X connect 67 0 71 0;
#X connect 71 0 72 0;
#X connect 73 0 70 0;
#X connect 74 0 99 0;
#X connect 75 0 100 0;
#X connect 76 0 101 0;
#X connect 77 0 106 0;
#X connect 78 0 102 0;
#X connect 79 0 107 0;
#X connect 80 0 104 0;
#X connect 81 0 103 0;
#X connect 81 0 108 0;
#X connect 82 0 105 0;
#X connect 83 0 97 0;
#X connect 94 0 21 0;
#X connect 94 0 17 0;
#X connect 114 0 113 0;
#X connect 115 0 60 0;
#X connect 115 1 37 0;
#X connect 115 2 84 0;
#X connect 115 3 85 0;
#X connect 115 4 86 0;
#X connect 115 5 87 0;
#X connect 115 6 88 0;
#X connect 115 7 89 0;
#X connect 115 8 90 0;
#X connect 115 9 91 0;
#X connect 115 10 116 0;
#X connect 116 0 92 0;
#X connect 116 1 93 0;
#X connect 116 2 155 0;
#X connect 116 3 156 0;
#X connect 116 10 128 0;
#X connect 117 0 1 0;
#X connect 117 1 3 0;
#X connect 117 2 5 0;
#X connect 117 3 7 0;
#X connect 117 4 26 0;
#X connect 117 5 8 0;
#X connect 117 6 118 0;
#X connect 117 7 14 0;
#X connect 117 8 15 0;
#X connect 117 9 53 0;
#X connect 117 10 57 0;
#X connect 117 11 115 0;
#X connect 125 0 140 0;
#X connect 128 0 124 0;
#X connect 128 1 138 0;
#X connect 128 2 133 0;
#X connect 128 3 142 0;
#X connect 131 0 132 0;
#X connect 134 0 129 0;
#X connect 134 0 130 0;
#X connect 134 0 131 0;
#X connect 135 0 124 0;
#X connect 136 0 133 0;
#X connect 137 0 141 0;
#X connect 139 0 138 0;
#X connect 143 0 142 0;
#X connect 144 0 145 0;
#X connect 144 0 146 0;
#X connect 150 0 158 0;
#X connect 150 0 149 0;
#X connect 152 0 153 0;
#X connect 152 0 154 0;
#X connect 152 0 157 0;
