#N canvas 1951 -15 1920 997 12;
#X obj 7 6 r current-trigger;
#X obj 7 30 route 0 1 2 3 4 5 6 7, f 102;
#X msg 7 54 \; reset bang \;;
#X msg 96 532 \; patchbay delay-out-2 swelling-in-2 1 \; patchbay delay-out-3
swelling-in-2 1 \; patchbay delay-out-4 swelling-in-2 1 \; patchbay
swelling-out-2 mixer-2 1 \; fader-2 0.8 \;;
#X msg 96 426 \; patchbay rauschen vocoder-in 1 \; patchbay vocoder-out
swelling-in-1 1 \; patchbay swelling-out-1 mixer-1 1 \; fader-0 0.8
\; fader-1 0.5 \;;
#X obj 206 370 line;
#X obj 206 394 s vocoder-mix;
#X msg 504 468 \; fader-2 1 \; replay-2 0 3 7 \;;
#X msg 206 346 0 \, 1 10000;
#X msg 299 367 stop;
#X obj 299 345 delay 10000;
#X msg 299 324 bang;
#X obj 340 367 r reset;
#X obj 95 98 s trigger-one;
#X obj 96 164 r trigger-one;
#X obj 273 125 s trigger-three;
#X obj 504 438 r trigger-two;
#X obj 728 449 r trigger-three;
#X obj 170 67 s trigger-two;
#X msg 728 483 \; fader-4 0.8 \;;
#X obj 831 528 s grizzle_module;
#X msg 831 476 \; open-sample buffer0.wav \; freq 2 \;;
#X connect 0 0 1 0;
#X connect 1 0 2 0;
#X connect 1 1 13 0;
#X connect 1 2 18 0;
#X connect 1 3 15 0;
#X connect 5 0 6 0;
#X connect 8 0 5 0;
#X connect 8 0 11 0;
#X connect 9 0 5 0;
#X connect 10 0 9 0;
#X connect 11 0 10 0;
#X connect 12 0 9 0;
#X connect 14 0 4 0;
#X connect 14 0 3 0;
#X connect 14 0 8 0;
#X connect 16 0 7 0;
#X connect 17 0 19 0;
#X connect 17 0 21 0;
#X connect 21 0 20 0;
