#N canvas 77 -24 1920 997 12;
#X obj 7 6 r current-trigger;
#X msg 7 54 \; reset bang \;;
#X obj 613 56 route 10 11 12 13 14 15 16 17 18 19, f 90;
#X obj 7 30 route 0 1 2 3 4 5 6 7 8 9, f 87;
#X obj 30 239 r intro-noise;
#X obj 95 98 s intro-noise;
#X obj 29 589 r to-vocoder;
#X obj 170 67 s intro-swelling;
#X obj 27 403 r intro-swelling;
#X obj 28 728 r change-q;
#X obj 273 125 s to-vocoder;
#X obj 351 94 s change-q;
#X obj 481 235 r grizzle;
#X obj 418 71 s grizzle;
#X msg 1532 702 \; reset-sample-1 \; reset-sample-2 \;;
#X msg 1520 785 \; patchbay audio-in analyse-in 1 \; patchbay vocoder-out
delay-in 10 \; patchbay delay-out-1 mixer-2 1 \; fader-2 0.9 \;;
#X msg 481 260 \; patchbay grizzle-out blur-in 1 \; patchbay blur-out
mixer-4 1 \; open-sample-1 buffer4.wav \; freq-1 2 \; vol-1 1 \; vol-2
0 \; fader-4 0.6 \;;
#X msg 1472 614 \; sweller-1 line 0 \, line 1 1000 \, osc-freq 1 \;
;
#X obj 37 263 line_send 0 0.8 20000 fader-0;
#X msg 30 287 \; patchbay rauschen vocoder-in 1 \; patchbay vocoder-out
swelling-in-1 1 \; patchbay swelling-out-1 mixer-1 1 \; sweller-1 line
1 \; fader-1 0.4 \;;
#X msg 27 430 \; patchbay swelling-out-1 delay-in 1 \; patchbay delay-out-2
swelling-in-2 1 \; patchbay delay-out-3 swelling-in-2 1 \; patchbay
delay-out-4 swelling-in-2 1 \; patchbay swelling-out-2 mixer-2 1 \;
sweller-1 line 1 \, line 0 20000 \, osc-freq 1 \, osc-amp 0 \, osc-amp
1 20000 \; fader-2 0.8 \; record 20 \;;
#X obj 36 612 line_send 0 1 30000 vocoder-mix;
#X obj 37 751 line_send 1 1000 10000 vocoder-q;
#X text 428 228 \; \; \; \; \; \; \; \; \; \; \; \; \; \; \; \; \;
\; \; \; \; \; \; \; \; \; \; \; \; \; \; \; \; \; \; \; \; \; \; \;
\; \; \; \; \; \; \; \; \; \; \; \; \;;
#X obj 37 773 line_send 130 10 20000 vocoder-speed;
#X msg 29 635 \; patchbay audio-in analyse-in 1 \; patchbay replay-out
analyse-in 1 \; record 20 \; vocoder-q 1 \; vocoder-speed 130 \;;
#X msg 28 806 \; record 20 \; replay-1 3 0 20 \; sweller-1 line 1 10000
\, osc-amp 0 1000 \;;
#X connect 0 0 3 0;
#X connect 3 0 1 0;
#X connect 3 1 5 0;
#X connect 3 2 7 0;
#X connect 3 3 10 0;
#X connect 3 4 11 0;
#X connect 3 5 13 0;
#X connect 3 10 2 0;
#X connect 4 0 19 0;
#X connect 4 0 18 0;
#X connect 6 0 25 0;
#X connect 6 0 21 0;
#X connect 8 0 20 0;
#X connect 9 0 26 0;
#X connect 9 0 22 0;
#X connect 9 0 24 0;
#X connect 12 0 16 0;
