#N canvas 202 -18 1920 976 12;
#X obj 7 6 r current-trigger;
#X obj 7 30 route 0 1 2 3 4 5 6 7, f 102;
#X msg 7 54 \; reset bang \;;
#X msg 171 345 \; patchbay delay-out-2 swelling-in-2 1 \; patchbay delay-out-3 swelling-in-2 1 \; patchbay delay-out-4 swelling-in-2 1 \; patchbay swelling-out-2 mixer-2 1 \; fader-2 0.8 \;;
#X msg 96 209 \; patchbay rauschen vocoder-in 1 \; patchbay vocoder-out swelling-in-1 1 \; patchbay swelling-out-1 mixer-1 1 \; fader-0 0.8 \; fader-1 0.5 \;;
#X obj 141 157 line;
#X obj 141 181 s vocoder-mix;
#X msg 194 54 \; fader-2 1 \; replay-2 0 3 7 \;;
#X msg 141 133 0 \, 1 10000;
#X msg 234 154 stop;
#X obj 234 132 delay 10000;
#X msg 234 111 bang;
#X obj 275 154 r reset;
#X connect 0 0 1 0;
#X connect 1 0 2 0;
#X connect 1 1 4 0;
#X connect 1 1 3 0;
#X connect 1 1 8 0;
#X connect 1 2 7 0;
#X connect 5 0 6 0;
#X connect 8 0 5 0;
#X connect 8 0 11 0;
#X connect 9 0 5 0;
#X connect 10 0 9 0;
#X connect 11 0 10 0;
#X connect 12 0 9 0;
