#N canvas -45 -16 1920 997 12;
#X obj 7 6 r current-trigger;
#X msg 7 54 \; reset bang \;;
#X obj 613 56 route 10 11 12 13 14 15 16 17 18 19, f 90;
#X obj 7 30 route 0 1 2 3 4 5 6 7 8 9, f 87;
#X obj 30 239 r intro-noise;
#X obj 95 98 s intro-noise;
#X obj 27 531 r to-vocoder;
#X obj 156 70 s intro-swelling;
#X obj 27 403 r intro-swelling;
#X obj 26 714 r change-q;
#X obj 273 125 s to-vocoder;
#X obj 305 91 s change-q;
#X obj 486 112 s grizzle;
#X msg 1532 702 \; reset-sample-1 \; reset-sample-2 \;;
#X msg 1520 785 \; patchbay audio-in analyse-in 1 \; patchbay vocoder-out
delay-in 10 \; patchbay delay-out-1 mixer-2 1 \; fader-2 0.9 \;;
#X msg 1472 614 \; sweller-1 line 0 \, line 1 1000 \, osc-freq 1 \;
;
#X text 448 228 \; \; \; \; \; \; \; \; \; \; \; \; \; \; \; \; \;
\; \; \; \; \; \; \; \; \; \; \; \; \; \; \; \; \; \; \; \; \; \; \;
\; \; \; \; \; \; \; \; \; \; \; \; \;;
#X obj 35 759 line_send 130 10 20000 vocoder-speed;
#X obj 37 263 line_send 0 0.5 20000 fader-0;
#X msg 30 287 \; patchbay rauschen vocoder-in 1 \; patchbay vocoder-out
swelling-in-1 1 \; patchbay swelling-out-1 mixer-1 1 \; sweller-1 line
1 \; fader-1 0.1 \;;
#X msg 1074 683 \; patchbay swelling-out-1 delay-in 1 \; patchbay delay-out-2
swelling-in-2 1 \; patchbay delay-out-3 swelling-in-2 1 \; patchbay
delay-out-4 swelling-in-2 1 \; patchbay swelling-out-2 mixer-2 1 \;
sweller-2 line 1 \; sweller-1 line 1 \, line 0 20000 \, osc-freq 1
\, osc-amp 0 \, osc-amp 1 20000 \; fader-2 0.8 \; record 20 \;, f
52;
#X msg 26 792 \; record 20 \; replay-1 3 0 20 \; sweller-1 line 0.6
10000 \, osc-freq 0.2 10000 \, osc-amp 0.4 1000 \;;
#X obj 34 554 line_send 0 1 30000 vocoder-mix 0.5;
#X obj 35 575 line_send 0.1 0.7 30000 fader-1;
#X msg 27 626 \; patchbay audio-in analyse-in 1 \; patchbay replay-out
analyse-in 1 \; record 20 \; vocoder-speed 130 \;;
#X obj 35 737 line_send 10 1000 10000 vocoder-q 4;
#X obj 34 596 line_send 1 10 15000 vocoder-q;
#X obj 370 116 s voc-fade-out;
#X obj 401 85 s voc-fade-in;
#X obj 463 229 cnv 19 1 1 empty empty 5 20 12 0 30 #e0e0e0 #404040
0;
#X obj 501 513 r grizzle;
#X msg 501 538 \; patchbay grizzle-out blur-in 1 \; patchbay blur-out
mixer-4 1 \; open-sample-1 buffer4.wav \; freq-1 2 \; vol-1 1 \; vol-2
0 \; fader-4 0.6 \;;
#X obj 501 265 r voc-fade-out;
#X obj 501 316 r voc-fade-in;
#X msg 28 430 \; patchbay swelling-out-1 mixer-2 0 \; sweller-1 line
1 \, line 0 20000 \, osc-freq 0.5 \, osc-amp 0 \, osc-amp 1 20000 \;
fader-2 0.8 \; record 20 \;, f 52;
#X obj 501 289 line_send 0.7 0 5000 fader-1 1 1;
#X obj 507 338 line_send 0 0.7 5000 fader-1 1;
#X text 478 422 !;
#X msg 502 360 \; patchbay rauschen vocoder-in 1 \; patchbay vocoder-out
swelling-in-1 1 \; patchbay swelling-out-1 mixer-1 1 \; patchbay audio-in
analyse-in 1 \; patchbay replay-out analyse-in 1 \; fader-2 0.8 \;
sweller-1 line 0.6 \, osc-freq 0.2 \, osc-amp 0.4 \; vocoder-speed
10 \; vocoder-q 1000 \;;
#X connect 0 0 3 0;
#X connect 3 0 1 0;
#X connect 3 1 5 0;
#X connect 3 2 7 0;
#X connect 3 3 10 0;
#X connect 3 4 11 0;
#X connect 3 5 27 0;
#X connect 3 6 28 0;
#X connect 3 7 12 0;
#X connect 3 10 2 0;
#X connect 4 0 19 0;
#X connect 4 0 18 0;
#X connect 6 0 24 0;
#X connect 6 0 22 0;
#X connect 6 0 23 0;
#X connect 6 0 26 0;
#X connect 8 0 34 0;
#X connect 9 0 21 0;
#X connect 9 0 25 0;
#X connect 9 0 17 0;
#X connect 30 0 31 0;
#X connect 32 0 35 0;
#X connect 33 0 38 0;
#X connect 33 0 36 0;
