#N canvas 379 -26 1920 997 12;
#X obj 141 7 r current-trigger;
#X msg 141 55 \; reset bang \;;
#X obj 164 146 r intro-noise;
#X obj 229 99 s intro-noise;
#X obj 161 434 r to-vocoder;
#X obj 290 71 s intro-swelling;
#X obj 162 349 r intro-swelling;
#X obj 407 126 s to-vocoder;
#X obj 438 91 s change-q;
#X msg 2920 875 \; reset-sample-1 \; reset-sample-2 \;;
#X text 582 224 \; \; \; \; \; \; \; \; \; \; \; \; \; \; \; \; \;
\; \; \; \; \; \; \; \; \; \; \; \; \; \; \; \; \; \; \; \; \; \; \;
\; \; \; \; \; \; \; \; \; \; \; \; \;;
#X obj 545 126 s voc-fade-out;
#X obj 604 94 s voc-fade-in;
#X obj 597 225 cnv 19 1 1 empty empty 8 20 12 0 30 #e0e0e0 #404040
0;
#X obj 170 1074 line_send 0.7 0 5000 fader-1 1 1;
#X msg 162 371 \; sweller-2 line 1 \, line 0 20000 \, osc-freq 0.5
\, osc-amp 0 \, osc-amp 1 20000 \; record 20 \;, f 52;
#X obj 170 1096 line_send 0.7 0 5000 fader-2 1 1;
#X obj 174 519 line_send 5000 150 10000 filter-freq 0.25;
#X obj 174 540 line_send 0 4.5 15000 filter-q 2 1;
#X obj 158 793 r change-q;
#X obj 414 65 s change-filter-freq;
#X obj 159 723 r change-filter-freq;
#X msg 159 744 \; filter-freq 140 \; sweller-2 line 0 1000 \;;
#X obj 168 877 line_send 4.5 0 5000 filter-q 100 1;
#X obj 167 814 line_send 1000 10 20000 vocoder-q 4 1;
#X obj 169 856 line_send 200 10 10000 vocoder-speed-t 1 1;
#X text 996 238 \; \; \; \; \; \; \; \; \; \; \; \; \; \; \; \; \;
\; \; \; \; \; \; \; \; \; \; \; \; \; \; \; \; \; \; \; \; \; \; \;
\; \; \; \; \; \; \; \; \; \; \; \; \;, f 2;
#X obj 1011 239 cnv 19 1 1 empty empty 11 20 12 0 30 #e0e0e0 #404040
0;
#X obj 647 576 bang;
#X obj 647 643 del 20000;
#X obj 743 608 del 10000;
#X obj 810 109 s morph-g;
#X obj 1029 659 r morph-g;
#X obj 647 821 line_send 0.7 0.3 35000 fader-1 3 1;
#X msg 743 630 \; replay-2 3 0 15 0.5 \;;
#X obj 647 799 line_send 500 2 35000 vocoder-q 1 1;
#X obj 1033 294 line_send 0 0.6 40000 fader-4 3;
#X obj 646 245 t b b;
#X obj 646 224 r voc-fade-in;
#X obj 702 285 line_send 10 1000 13000 vocoder-speed 2;
#X obj 167 835 line_send 200 10 20000 vocoder-speed 2 1;
#X obj 837 574 del 0;
#X obj 682 131 s pedal-tones;
#X obj 647 844 r pedal-tones;
#X msg 647 891 \; patchbay rauschen swelling-in-2 1 \; patchbay swelling-out-2
filter-in 1 \; patchbay filter-out mixer-2 1 \; sweller-2 line 1 \;
filter-q 4.5 \; filter-freq 130 \;;
#X msg 1028 338 \; filter-freq 146 \;;
#X obj 655 59 s new-pedal1;
#X obj 647 998 r new-pedal1;
#X obj 1028 271 r grizzle-fade-in;
#X obj 747 87 s grizzle-fade-in;
#X obj 1028 316 del 5000;
#X msg 1028 396 \; filter-freq 150 \;;
#X msg 1029 454 \; filter-freq 143 \;;
#X obj 1028 374 del 7000;
#X obj 1029 432 del 2000;
#X obj 1029 491 del 2000;
#X obj 1029 550 del 2000;
#X msg 1029 572 \; filter-freq 139 \;;
#X msg 1029 513 \; filter-freq 133;
#X msg 647 1040 \; filter-freq 164 \; sweller-2 line 0 1000 \;;
#X obj 1029 608 del 2000;
#X obj 1029 632 line_send 139 92 15000 filter-freq 1;
#X obj 647 1019 del 1000;
#X obj 1184 1047 r griz-chords-2;
#X obj 1011 1085 r griz-chords-3;
#X obj 1184 1118 r griz-chords-4;
#X obj 1011 1156 r griz-chords-5;
#X obj 1011 1240 r griz-chords-7;
#X obj 1185 1261 r griz-chords-8;
#X obj 1012 1310 r griz-chords-9;
#X obj 1185 1318 r griz-chords-10;
#X obj 1011 1415 r grizzle-out;
#X obj 1322 87 s griz-chords-2;
#X obj 1322 110 s griz-chords-3;
#X obj 1322 132 s griz-chords-4;
#X obj 1322 154 s griz-chords-5;
#X obj 1322 177 s griz-chords-6;
#X obj 1322 199 s griz-chords-7;
#X obj 1323 221 s griz-chords-8;
#X obj 1323 244 s griz-chords-9;
#X obj 1323 266 s griz-chords-10;
#X obj 1436 68 s grizzle-out;
#X obj 159 1053 r voc-fade-out;
#X text 1333 310 \; \; \; \; \; \; \; \; \; \; \; \; \; \; \; \; \;
\; \; \; \; \; \; \; \; \; \; \; \; \; \; \; \; \; \; \; \; \; \; \;
\; \; \; \; \; \; \; \; \; \; \; \; \;, f 2;
#X obj 1348 311 cnv 19 1 1 empty empty 23 20 12 0 30 #e0e0e0 #404040
0;
#X obj 1011 1439 line_send 0.7 0 50 fader-3 1 1;
#X msg 1185 1283 \; fader-2 0 \;;
#X msg 1185 1339 \; fader-2 0 \; vol-2 0 \;;
#X msg 1011 1261 \; fader-2 1 \; freq-2 -3.25 \;;
#X obj 1012 1391 line_send -3.25 -4.5 6000 freq-2 2 1;
#X obj 655 868 line_send 0 0.7 200 fader-2 1;
#X obj 168 898 line_send 0.7 0.9 3000 fader-1 1 1;
#X obj 159 997 r record-6;
#X obj 747 57 route 11 12 13 14 15 16 17 18 19 20, f 90;
#X obj 1374 31 route 21 22 23 24 25 26 27 28 29 30, f 90;
#X obj 141 31 route 0 1 2 3 4 5 6 7 8 9 10, f 87;
#X obj 517 147 s record-6;
#X msg 813 594 \; replay-1 1008 0 10 0.5 \;;
#X obj 701 264 line_send 0 0.7 500 fader-1 0.5;
#X obj 703 306 line_send 10 200 500 vocoder-q 1 1;
#X text 1364 342 nice impulses:;
#X obj 2186 176 s feedback-standalone;
#X text 1490 343 plus modulation?;
#X obj 2240 124 s feedback-sweep;
#X obj 2115 202 bng 15 250 50 0 empty empty empty 17 7 0 10 #fcfcfc
#000000 #000000;
#X obj 2217 238 bng 15 250 50 0 empty empty empty 17 7 0 10 #fcfcfc
#000000 #000000;
#X obj 2213 149 s feedback-pitch;
#X obj 2168 226 bng 15 250 50 0 empty empty empty 17 7 0 10 #fcfcfc
#000000 #000000;
#X obj 2663 225 s feedback-voc;
#X obj 2666 197 bng 15 250 50 0 empty empty empty 17 7 0 10 #fcfcfc
#000000 #000000;
#X obj 2880 655 r feedback-voc;
#X obj 2880 679 line_send 0 1 10000 vocoder-mix 1 1;
#X obj 2879 702 line_send 0 1000 10000 vocoder-q 1 1;
#X obj 1366 366 r start-impulses;
#X msg 1612 439 \; open-sample-1 test.wav \; open-sample-2 test.wav
\;;
#X obj 1366 683 r mod-impulses;
#X obj 1379 705 line_send 8 8.5 20000 freq-1 1 1;
#X obj 1379 727 line_send 8 8.2 20000 freq-2 1 1;
#X obj 1498 116 s start-impulses;
#X obj 1546 94 s mod-impulses;
#X obj 1378 749 line_send 0.5 0.49 20000 width-1 1 1;
#X obj 2377 227 s fdb-break;
#X obj 2377 207 bng 15 250 50 0 empty empty empty 17 7 0 10 #fcfcfc
#000000 #000000;
#X obj 2462 207 bng 15 250 50 0 empty empty empty 17 7 0 10 #fcfcfc
#000000 #000000;
#X obj 2462 227 s fdb-tutti;
#X obj 2007 369 r feedback-standalone;
#X msg 1990 851 \; hipass-freq 800 \;;
#X obj 2014 807 line_send 1 15 60000 del-line-mult 1;
#X obj 2007 889 del 20000;
#X msg 2007 913 \; delay-slider-automation 1 \;;
#X obj 2007 784 r feedback-sweep;
#X obj 2007 653 r feedback-pitch;
#X obj 2014 829 line_send 400 1 60000 highpass-freq 1 1;
#X obj 2007 949 r fdb-break;
#X obj 2007 997 r fdb-tutti;
#X obj 2016 676 line_send 800 200 10000 highpass-freq 1 1;
#X msg 2313 672 0;
#X obj 2388 513 unsig~ 100;
#X floatatom 2489 605 5 0 0 0 - - - 0;
#X obj 2388 560 expr (($f1 + 1) * 0.5) * 1000 + 300;
#X obj 2388 584 s hipass-freq;
#X obj 2389 492 r~ sweller-val-2;
#X obj 2466 518 r auto-hipass;
#X obj 2388 537 spigot;
#X msg 2007 720 \; patchbay audio-in analyse-in 1 \; auto-hipass 0
\; fdbspeed 2000 \;;
#X obj 2016 698 line_send 2000 200 15000 fdbspeed 1 1;
#X obj 174 456 del 2000;
#X obj 174 498 line_send 0.2 0.8 10000 fader-2 1 1;
#X obj 174 477 line_send 0 0.7 20000 fader-1 1 1;
#X msg 159 1018 \; replay-1 1006 0 27 0.3 \;;
#X obj 1501 188 bng 15 250 50 0 empty empty empty 17 7 0 10 #fcfcfc
#000000 #000000;
#X obj 1561 185 bng 15 250 50 0 empty empty empty 17 7 0 10 #fcfcfc
#000000 #000000;
#X obj 1658 161 s moood-griz;
#X obj 1617 159 bng 15 250 50 0 empty empty empty 17 7 0 10 #fcfcfc
#000000 #000000;
#X obj 1366 776 r moood-griz;
#X msg 1379 848 1;
#X obj 1379 870 s moood1;
#X msg 1379 916 1;
#X obj 1379 940 s moood2;
#X obj 1379 892 del 5000;
#X obj 1367 1062 s moood1;
#X obj 1367 1083 s moood2;
#X msg 1367 1040 0;
#X obj 1367 1169 line_send 8 8.5 20000 freq-1 1 1;
#X obj 1367 1191 line_send 8 8.2 20000 freq-2 1 1;
#X obj 1367 1016 r impulses-2;
#X obj 1716 205 s impulses-2;
#X obj 1734 251 bng 15 250 50 0 empty empty empty 17 7 0 10 #fcfcfc
#000000 #000000;
#X text 1957 310 \; \; \; \; \; \; \; \; \; \; \; \; \; \; \; \; \;
\; \; \; \; \; \; \; \; \; \; \; \; \; \; \; \; \; \; \; \; \; \; \;
\; \; \; \; \; \; \; \; \; \; \; \; \;, f 2;
#X obj 1972 311 cnv 19 1 1 empty empty 29 20 12 0 30 #e0e0e0 #404040
0;
#X obj 1368 1215 r grizzle-fdb;
#X obj 1742 104 s grizzle-fdb;
#X obj 1782 153 bng 15 250 50 0 empty empty empty 17 7 0 10 #fcfcfc
#000000 #000000;
#X obj 1378 1260 line_send 0.49 1 10000 width-1 1 1;
#X obj 1379 1238 line_send 0.5 1 20000 width-2 1 1;
#X obj 1379 1281 line_send 0.8 1 10000 fader-4 1 1;
#X obj 1379 388 line_send 0 0.8 20000 fader-4 1 1;
#N canvas 3056 19 450 332 griz-mod 0;
#X obj 15 101 line;
#X obj 15 56 / 64;
#X obj 15 124 expr 1 / $f1;
#X obj 112 102 line;
#X obj 113 34 r~ mic-in;
#X obj 112 57 env~;
#X obj 112 124 expr 100 /$f1;
#X obj 15 34 r fdbpitch;
#X text 21 10 grizzle modulation:;
#X obj 15 181 spigot 0;
#X obj 94 181 spigot 0;
#X obj 181 181 spigot 0;
#X obj 260 180 spigot 0;
#X obj 92 153 r moood1;
#X obj 256 154 r moood2;
#X msg 94 203 \; freq-1 \$1 \;;
#X msg 15 203 \; vol-1 \$1 \;;
#X msg 181 203 \; vol-2 \$1 \;;
#X msg 259 203 \; freq-2 \$1 \;;
#X msg 112 80 \$1 1000;
#X msg 15 79 \$1 1000;
#X obj 209 102 line;
#X obj 209 124 expr 100 /$f1;
#X msg 209 80 \$1 1300;
#X connect 0 0 2 0;
#X connect 1 0 20 0;
#X connect 2 0 9 0;
#X connect 2 0 11 0;
#X connect 3 0 6 0;
#X connect 4 0 5 0;
#X connect 5 0 19 0;
#X connect 5 0 23 0;
#X connect 6 0 10 0;
#X connect 7 0 1 0;
#X connect 9 0 16 0;
#X connect 10 0 15 0;
#X connect 11 0 17 0;
#X connect 12 0 18 0;
#X connect 13 0 10 1;
#X connect 13 0 9 1;
#X connect 14 0 12 1;
#X connect 14 0 11 1;
#X connect 19 0 3 0;
#X connect 20 0 0 0;
#X connect 21 0 22 0;
#X connect 22 0 12 0;
#X connect 23 0 21 0;
#X restore 1521 887 pd griz-mod;
#X text 1449 870 live modulation(moood1 + moood2):;
#X obj 1377 800 line_send 0 1 7000 blur-mix 1 1;
#X obj 1366 821 del 7000;
#X msg 1380 964 \; gauss-1 bang \; gauss-2 bang \;;
#X obj 1421 847 line_send 1 0 15000 blur-mix 1 1;
#X msg 1429 1104 \; pulse-1 bang \; pulse-2 bang \; delay-time-1-0
bang \;;
#X msg 647 666 \; sweller-1 line 1 \, line 0 16000 \, osc-amp 1 12000
\, osc-freq 0.125 \; vocoder-speed 100000 \; vocoder-speed-t 1000 \;
open-sample-1 buffer1006.wav \; freq-1 2 \; vol-1 1 \; vol-2 0 \;,
f 39;
#X obj 1035 702 line_send 0 0.8 30000 fader-3 2;
#X obj 1035 681 line_send 0.5 0 30000 fader-4 2 1;
#X obj 1036 723 line_send 0.3 0.3 15000 fader-1 1 1;
#X obj 1011 1461 line_send 0.7 0 50 fader-1 1 1;
#X obj 1693 1421 line_send 8.5 1 15000 freq-1 1 1;
#X obj 1693 1442 line_send 8.2 1 15000 freq-2 1 1;
#X obj 2016 412 line_send 1 0 10000 fader-1 1 1;
#X obj 1681 1464 del 20000;
#X obj 1843 213 bng 15 250 50 0 empty empty empty 17 7 0 10 #fcfcfc
#000000 #000000;
#N canvas 521 249 693 356 filter-mod 0;
#X obj 155 114 unsig~ 10;
#X obj 273 200 s filter-freq;
#X obj 273 176 expr ($f1 + 1) * 3000 + 130;
#X obj 77 200 s filter-q;
#X obj 77 176 expr (2 - ($f1 + 1)) * 2.25;
#X obj 156 91 r~ sweller-val-1;
#X obj 263 119 r filter-mod;
#X obj 155 138 spigot 0;
#X connect 0 0 7 0;
#X connect 2 0 1 0;
#X connect 4 0 3 0;
#X connect 5 0 0 0;
#X connect 6 0 7 1;
#X connect 7 0 4 0;
#X connect 7 0 2 0;
#X restore 1772 869 pd filter-mod;
#X obj 1413 1040 line_send 0.5 0 10000 fader-3 1 1;
#X obj 1659 682 line_send 0 0.5 20000 fader-3 1 1;
#X msg 1184 1068 \; fader-2 0 \; stop-replay-1 bang \;;
#X msg 1011 1106 \; fader-2 1 \; replay-1 1008 1 10 0.5 \;;
#X obj 1184 1189 r griz-chords-6;
#X msg 1184 1139 \; fader-2 0 \; stop-replay-1 bang \;;
#X msg 1184 1210 \; fader-2 0 \; stop-replay-1 bang \;;
#X msg 1011 1177 \; fader-2 1 \; freq-2 -3.1 \; replay-1 1008 1 10
1 \;;
#X obj 1681 1399 del 30000;
#X obj 1368 1380 r texture;
#X obj 1831 165 s texture;
#X obj 2553 228 s fdb-break;
#X obj 2553 208 bng 15 250 50 0 empty empty empty 17 7 0 10 #fcfcfc
#000000 #000000;
#X obj 2186 95 route 31 32 33 34;
#X obj 1378 1444 line_send 1 4.5 7000 filter-q 1;
#X obj 1429 1083 del 3000;
#X obj 1378 1402 line_send 0 1 13000 fader-3 1 1;
#X obj 1681 1488 line_send 1 0 20000 fader-4 1 0.2;
#X obj 1681 1510 line_send 1 0 20000 fader-3 1 0.2;
#X obj 1368 1517 del 20000;
#X msg 1368 1538 \; filter-freq 136 \;;
#X obj 1612 1561 r fdbpitch;
#X floatatom 1612 1583 5 0 0 0 - - - 0;
#X msg 1368 1594 \; patchbay audio-in analyse-in 1 \;;
#X obj 1612 1626 + 100;
#X obj 1612 1671 s filter-freq;
#X obj 1378 1423 line_send 3000 130 10000 filter-freq 1 0.5;
#X obj 1612 1604 mod 100;
#X obj 1368 1573 del 5000;
#X obj 1612 1650 spigot 0;
#X msg 1368 1631 1;
#X msg 1691 1631 0;
#X obj 1691 1605 r reset;
#X obj 2015 391 line_send 0 1 10000 fader-2 1 1;
#X obj 2007 973 line_send 1 0 4000 fader-2 2 1;
#X obj 2007 1021 line_send 0 1 500 fader-2 1 1;
#X obj 171 167 line_send 0 0.2 20000 fader-2;
#X floatatom 40 45 7 0 0 2 done\ in program-countdown - 0;
#X obj 5 117 metro 1000;
#X obj 5 94 loadbang;
#X obj 5 145 r set-pcd;
#X obj 5 167 f;
#X obj 10 189 moses 1;
#X obj 5 214 s program-countdown;
#X text 142 99 \; \; \; \; \; \; \; \; \; \; \; \; \; \; \; \; \; \;
\; \; \; \; \; \; \; \; \; \; \; \; \; \; \; \; \; \; \; \; \; \; \;
\; \; \; \; \; \; \; \; \; \; \; \; \; \; \; \; \; \; \; \; \; \; \;
\; \; \; \; \; \; \; \;;
#X obj 5 237 == 0;
#X obj 5 261 s program-ready;
#X msg 164 188 \; init-master bang \; patchbay rauschen vocoder-in
1 \; patchbay rauschen swelling-in-2 1 \; patchbay vocoder-out swelling-in-1
1 \; patchbay swelling-out-1 mixer-1 1 \; patchbay swelling-out-2 filter-in
1 \; patchbay filter-out mixer-2 1 \; filter-freq 5000 \; sweller-2
line 1 \; set-pcd 20 \;;
#X msg 161 561 \; patchbay audio-in analyse-in 1 \; patchbay replay-out
analyse-in 1 \; sweller-2 line 0 \, line 1 7000 \, osc-amp 1 \, osc-amp
0 7000 \; sweller-1 line 1 10000 \; vocoder-speed 1000 \; vocoder-speed-t
100 \; vocoder-q 1000 \; vocoder-mix 1 \; replay-1 1003 0 32 0.2 \;
set-pcd 20 \;;
#X msg 158 920 \; sweller-1 line 0 20000 \, osc-freq 0.2 10000 \, osc-amp
0.4 1000 \; replay-2 1005 0 29 0.25 \; set-pcd 20 \;, f 47;
#X msg 159 1117 \; set-pcd 5000 \;;
#X msg 1161 338 \; set-pcd 40 \;;
#X msg 1029 745 \; patchbay audio-in grizzle-in 1 \; patchbay grizzle-out-2
filter-in 1 \; patchbay swelling-out-1 mixer-1 0 \; patchbay swelling-out-1
mixer-2 1 \; patchbay blur-out analyse-in 0 \; patchbay grizzle-out-1
analyse-in 1 \; patchbay grizzle-out-2 analyse-in 1 \; patchbay replay-out
analyse-in 1 \; vol-2 4 \; freq-2 -3 \; width-2 1 \; pulse-2 bang \;
fader-2 1 \; sweller-2 line 1 \; filter-q 0 \; filter-freq 2500 \;
sweller-2 line 0.5 \; vocoder-speed 1000 \; replay-1 1008 0 10 0.5
\; set-pcd 30 \;;
#X msg 1012 1332 \; fader-2 1 \; set-pcd 6 \;;
#X msg 1366 409 \; reset bang \; init-master bang \; delay-time-1-1000
bang \; patchbay grizzle-out-1 blur-in 1 \; patchbay grizzle-out-2
blur-in 1 \; patchbay blur-out mixer-4 1 \; patchbay audio-in delay-in
1 \; patchbay delay-out-1 grizzle-in 1 \; freq-1 8 \; freq-2 8 \; width-1
0.5 \; width-2 0.5 \; pulse-1 bang \; pulse-2 bang \; vol-1 1 \; vol-2
1 \; blur-mix 0 \; set-pcd 20 \;;
#X msg 1639 703 \; patchbay rauschen filter-in 1 \; patchbay filter-out
mixer-3 1 \; sweller-1 line 0 \, osc-amp 1 \, osc-freq 25 \; filter-q
4.5 \; filter-mod 1 \; set-pcd 20 \;;
#X msg 1497 930 \; sweller-1 osc-freq 0.19 23000 \; set-pcd 22 \;;
#X msg 1493 1065 \; set-pcd 20 \;;
#X msg 1368 1303 \; patchbay grizzle-out-1 grizzle-in 1 \; patchbay
grizzle-out-2 grizzle-in 1 \; patchbay delay-out-1 grizzle-in 1 \;
set-pcd 20 \;;
#X msg 1368 1466 \; filter-mod 0 \; set-pcd 70 \;, f 32;
#X msg 646 329 \; reset bang \; init-master bang \; patchbay rauschen
vocoder-in 1 \; patchbay vocoder-out swelling-in-1 1 \; patchbay swelling-out-1
mixer-1 1 \; patchbay replay-out analyse-in 1 \; patchbay blur-out
analyse-in 1 \; patchbay blur-out mixer-3 1 \; patchbay grizzle-out-1
blur-in 1 \; patchbay grizzle-out-1 mixer-4 1 \; reset-1 bang \; sweller-1
line 1 \, osc-freq 0 \, osc-amp 0 \; sweller-2 line 0 \, osc-amp 0
\; vocoder-speed-t 20 \; vocoder-mix 1 \; set-pcd 55 \;;
#X msg 2007 433 \; patchbay audio-in delay-in 1 \; patchbay delay-out-2
vocoder-in 1 \; patchbay vocoder-out mixer-2 1 \; del-line-mult 1 \;
hipass-freq 1300 \; delay-2-slider 1 \; delay-3-slider 1 \; delay-4-slider
1 \; fdbpitch 40 \; enable-stablizer 1 \; stablizer 0.1 \; sweller-2
line 0 \, osc-amp 1 \, osc-freq 0.02 \; auto-hipass 1 \; set-pcd 10
\;, f 52;
#X msg 2295 803 \; set-pcd 60 \;;
#X obj 33 167 - 1;
#X text 36 62 (ignore);
#X connect 0 0 95 0;
#X connect 2 0 231 0;
#X connect 2 0 242 0;
#X connect 4 0 243 0;
#X connect 4 0 146 0;
#X connect 6 0 15 0;
#X connect 19 0 244 0;
#X connect 19 0 25 0;
#X connect 19 0 91 0;
#X connect 19 0 23 0;
#X connect 19 0 40 0;
#X connect 19 0 24 0;
#X connect 21 0 22 0;
#X connect 28 0 29 0;
#X connect 28 0 30 0;
#X connect 28 0 41 0;
#X connect 29 0 33 0;
#X connect 29 0 184 0;
#X connect 29 0 35 0;
#X connect 30 0 34 0;
#X connect 32 0 247 0;
#X connect 32 0 185 0;
#X connect 32 0 186 0;
#X connect 32 0 187 0;
#X connect 37 0 39 0;
#X connect 37 0 98 0;
#X connect 37 0 99 0;
#X connect 37 1 28 0;
#X connect 37 1 255 0;
#X connect 38 0 37 0;
#X connect 41 0 97 0;
#X connect 43 0 44 0;
#X connect 43 0 90 0;
#X connect 47 0 62 0;
#X connect 48 0 36 0;
#X connect 48 0 50 0;
#X connect 48 0 246 0;
#X connect 50 0 45 0;
#X connect 50 0 53 0;
#X connect 53 0 51 0;
#X connect 53 0 54 0;
#X connect 54 0 52 0;
#X connect 54 0 55 0;
#X connect 55 0 58 0;
#X connect 55 0 56 0;
#X connect 56 0 57 0;
#X connect 56 0 60 0;
#X connect 60 0 61 0;
#X connect 62 0 59 0;
#X connect 63 0 197 0;
#X connect 64 0 198 0;
#X connect 65 0 200 0;
#X connect 66 0 202 0;
#X connect 67 0 88 0;
#X connect 68 0 86 0;
#X connect 69 0 248 0;
#X connect 69 0 89 0;
#X connect 70 0 87 0;
#X connect 71 0 85 0;
#X connect 71 0 188 0;
#X connect 82 0 16 0;
#X connect 82 0 14 0;
#X connect 82 0 245 0;
#X connect 92 0 149 0;
#X connect 93 0 49 0;
#X connect 93 1 31 0;
#X connect 93 2 72 0;
#X connect 93 3 73 0;
#X connect 93 4 74 0;
#X connect 93 5 75 0;
#X connect 93 6 76 0;
#X connect 93 7 77 0;
#X connect 93 8 78 0;
#X connect 93 9 79 0;
#X connect 93 10 94 0;
#X connect 94 0 80 0;
#X connect 94 1 81 0;
#X connect 94 2 118 0;
#X connect 94 3 119 0;
#X connect 94 4 152 0;
#X connect 94 5 166 0;
#X connect 94 6 171 0;
#X connect 94 7 205 0;
#X connect 94 8 101 0;
#X connect 94 9 106 0;
#X connect 94 10 208 0;
#X connect 95 0 1 0;
#X connect 95 1 3 0;
#X connect 95 2 5 0;
#X connect 95 3 7 0;
#X connect 95 4 20 0;
#X connect 95 5 8 0;
#X connect 95 6 96 0;
#X connect 95 7 11 0;
#X connect 95 8 12 0;
#X connect 95 9 42 0;
#X connect 95 10 46 0;
#X connect 95 11 93 0;
#X connect 104 0 101 0;
#X connect 105 0 103 0;
#X connect 107 0 106 0;
#X connect 109 0 108 0;
#X connect 110 0 111 0;
#X connect 110 0 112 0;
#X connect 113 0 249 0;
#X connect 113 0 176 0;
#X connect 115 0 116 0;
#X connect 115 0 117 0;
#X connect 115 0 120 0;
#X connect 115 0 250 0;
#X connect 115 0 196 0;
#X connect 122 0 121 0;
#X connect 123 0 124 0;
#X connect 125 0 256 0;
#X connect 125 0 191 0;
#X connect 125 0 228 0;
#X connect 128 0 129 0;
#X connect 130 0 127 0;
#X connect 130 0 128 0;
#X connect 130 0 132 0;
#X connect 130 0 257 0;
#X connect 131 0 144 0;
#X connect 131 0 136 0;
#X connect 131 0 135 0;
#X connect 131 0 145 0;
#X connect 133 0 229 0;
#X connect 134 0 230 0;
#X connect 137 0 143 0;
#X connect 139 0 138 0;
#X connect 139 0 140 0;
#X connect 141 0 137 0;
#X connect 142 0 143 1;
#X connect 143 0 139 0;
#X connect 146 0 18 0;
#X connect 146 0 17 0;
#X connect 146 0 147 0;
#X connect 146 0 148 0;
#X connect 150 0 118 0;
#X connect 151 0 119 0;
#X connect 153 0 152 0;
#X connect 154 0 179 0;
#X connect 154 0 180 0;
#X connect 154 0 251 0;
#X connect 155 0 156 0;
#X connect 157 0 158 0;
#X connect 159 0 157 0;
#X connect 159 0 181 0;
#X connect 162 0 160 0;
#X connect 162 0 161 0;
#X connect 165 0 162 0;
#X connect 165 0 163 0;
#X connect 165 0 164 0;
#X connect 165 0 195 0;
#X connect 165 0 210 0;
#X connect 165 0 252 0;
#X connect 167 0 166 0;
#X connect 170 0 253 0;
#X connect 170 0 173 0;
#X connect 170 0 174 0;
#X connect 170 0 175 0;
#X connect 172 0 171 0;
#X connect 180 0 155 0;
#X connect 180 0 159 0;
#X connect 180 0 182 0;
#X connect 192 0 212 0;
#X connect 192 0 213 0;
#X connect 193 0 205 0;
#X connect 199 0 201 0;
#X connect 203 0 189 0;
#X connect 203 0 190 0;
#X connect 203 0 192 0;
#X connect 204 0 254 0;
#X connect 204 0 203 0;
#X connect 204 0 209 0;
#X connect 204 0 211 0;
#X connect 204 0 214 0;
#X connect 204 0 221 0;
#X connect 207 0 206 0;
#X connect 208 0 103 0;
#X connect 208 1 121 0;
#X connect 208 2 124 0;
#X connect 208 3 206 0;
#X connect 210 0 183 0;
#X connect 214 0 215 0;
#X connect 214 0 223 0;
#X connect 216 0 217 0;
#X connect 217 0 222 0;
#X connect 219 0 224 0;
#X connect 222 0 219 0;
#X connect 223 0 218 0;
#X connect 223 0 225 0;
#X connect 224 0 220 0;
#X connect 225 0 224 1;
#X connect 226 0 224 1;
#X connect 227 0 226 0;
#X connect 233 0 236 0;
#X connect 234 0 233 0;
#X connect 235 0 236 0;
#X connect 236 0 237 0;
#X connect 236 0 238 0;
#X connect 236 0 240 0;
#X connect 237 1 258 0;
#X connect 240 0 241 0;
#X connect 258 0 236 1;
#X coords 0 -1 1 1 115 70 1 10 10;
