#N canvas 986 420 668 393 12;
#X msg 341 99 set \$1;
#X obj 341 283 writesf~ 1;
#X msg 341 231 stop;
#X msg 341 208 start;
#X msg 341 144 0;
#X obj 162 84 bng 15 250 50 0 empty empty empty 17 7 0 10 #fcfcfc #000000 #000000;
#X obj 215 148 r rec-length;
#X msg 341 177 open -bytes 4 buffer\$1.wav;
#X obj 162 212 del 2000;
#X obj 341 59 r current-trigger;
#X obj 162 125 t b b;
#X obj 162 15 r record;
#X obj 162 39 t b l;
#X obj 194 90 s rec-length;
#X obj 194 65 unpack f;
#X text 261 65 dauer;
#X obj 386 250 r~ mic-in;
#X obj 215 169 * 1000;
#X obj 215 190 int;
#X msg 101 113 0;
#X msg 101 141 1;
#X obj 101 46 tgl 19 0 empty empty empty 0 -10 0 12 #fcfcfc #000000 #000000 0 1;
#X text 16 46 recording:;
#X connect 0 0 4 0;
#X connect 2 0 1 0;
#X connect 3 0 1 0;
#X connect 4 0 7 0;
#X connect 5 0 10 0;
#X connect 6 0 17 0;
#X connect 7 0 1 0;
#X connect 8 0 2 0;
#X connect 8 0 19 0;
#X connect 9 0 0 0;
#X connect 10 0 8 0;
#X connect 10 0 3 0;
#X connect 10 0 20 0;
#X connect 10 1 4 0;
#X connect 11 0 12 0;
#X connect 12 0 5 0;
#X connect 12 1 14 0;
#X connect 14 0 13 0;
#X connect 16 0 1 0;
#X connect 17 0 18 0;
#X connect 18 0 8 1;
#X connect 19 0 21 0;
#X connect 20 0 21 0;
#X coords 0 -1 1 1 115 70 1 10 10;
