#N canvas 809 134 778 610 12;
#X obj 22 26 inlet;
#X obj 22 50 t l b, f 60;
#X obj 166 565 outlet~;
#X obj 216 519 line~;
#X obj 167 539 *~;
#X obj 22 74 unpack f f f f, f 30;
#X text 247 74 number start duration amp;
#X obj 229 103 outlet;
#X msg 54 249 read -resize \$1 buffertable-\$2;
#X obj 54 270 soundfiler;
#X msg 54 207 buffer\$1.wav;
#X msg 22 292 \; buffertable-\$1 normalize;
#X obj 137 103 r samplerate;
#X obj 91 127 * 48000;
#X obj 91 149 pack f f, f 9;
#X obj 160 127 * 48000;
#X msg 91 170 set \$1 \$2;
#X msg 166 339 0 240000;
#X obj 324 355 r reset;
#X obj 324 376 t b b;
#X obj 356 476 delay;
#X obj 388 369 expr ($f1 * 1000) -20;
#X msg 356 500 0 20;
#X obj 270 320 t b b;
#X msg 396 500 1 20;
#X obj 247 417 delay 20;
#X msg 247 438 stop;
#X obj 270 199 delay;
#X msg 339 141 0;
#X msg 340 164 20;
#X obj 22 170 t b f;
#X obj 372 203 s r\$1p;
#X obj 247 394 spigot;
#X msg 439 500 0 2;
#X floatatom 359 547 5 0 0 0 - - - 0;
#X obj 43 413 print;
#X obj 22 270 f \$0;
#X obj 54 228 pack s \$0;
#X obj 166 488 tabplay~ buffertable-\$0;
#X obj 544 274 array define buffertable-\$0;
#X obj 324 333 r stop-replay-\$1;
#X connect 0 0 1 0;
#X connect 1 0 5 0;
#X connect 1 1 33 0;
#X connect 1 1 32 0;
#X connect 3 0 4 1;
#X connect 4 0 2 0;
#X connect 5 0 30 0;
#X connect 5 1 13 0;
#X connect 5 2 15 0;
#X connect 5 2 21 0;
#X connect 5 3 7 0;
#X connect 8 0 35 0;
#X connect 8 0 9 0;
#X connect 10 0 37 0;
#X connect 12 0 13 1;
#X connect 12 0 15 1;
#X connect 13 0 14 0;
#X connect 14 0 16 0;
#X connect 15 0 14 1;
#X connect 16 0 17 0;
#X connect 17 0 38 0;
#X connect 18 0 19 0;
#X connect 19 0 32 0;
#X connect 19 1 22 0;
#X connect 20 0 22 0;
#X connect 21 0 20 1;
#X connect 22 0 3 0;
#X connect 22 0 34 0;
#X connect 23 0 24 0;
#X connect 23 0 20 0;
#X connect 23 1 17 0;
#X connect 24 0 3 0;
#X connect 24 0 34 0;
#X connect 25 0 26 0;
#X connect 26 0 28 0;
#X connect 26 0 38 0;
#X connect 27 0 23 0;
#X connect 27 0 29 0;
#X connect 28 0 27 1;
#X connect 28 0 31 0;
#X connect 28 0 32 1;
#X connect 29 0 27 1;
#X connect 29 0 31 0;
#X connect 29 0 32 1;
#X connect 30 0 27 0;
#X connect 30 0 36 0;
#X connect 30 1 10 0;
#X connect 32 0 25 0;
#X connect 33 0 3 0;
#X connect 36 0 11 0;
#X connect 37 0 8 0;
#X connect 38 0 4 0;
#X connect 38 1 26 0;
#X connect 40 0 19 0;
