#N canvas 923 288 769 642 12;
#X obj 46 38 t b l;
#X msg 185 433 1 10;
#X obj 185 456 line~;
#X msg 225 433 0 10;
#X obj 137 475 *~;
#X msg 294 360 0;
#X msg 294 382 1;
#X obj 137 499 outlet~;
#X obj 46 14 inlet;
#X obj 228 362 * 1000;
#X obj 182 189 r samplerate;
#X obj 136 210 * 48000;
#X msg 78 137 read -resize \$1 buffertable-\$2;
#X obj 78 116 pack s \$0;
#X obj 78 158 soundfiler;
#X obj 136 335 tabplay~ buffertable-\$0;
#X obj 264 234 r reset;
#X msg 264 272 stop;
#X obj 136 234 pack f f, f 9;
#X msg 78 95 buffer\$1.wav;
#X obj 257 384 - 10;
#X obj 225 405 delay;
#X obj 476 222 array define buffertable-\$0;
#X obj 196 211 * 48000;
#X msg 48 530 \; buffertable-\$1 normalize;
#X obj 48 508 f \$0;
#X msg 136 259 set \$1 \$2;
#X msg 136 305 0 480000;
#X obj 46 358 t b b b;
#X obj 62 286 delay;
#X obj 94 264 * 10;
#X obj 78 61 unpack f f f f, f 25;
#X text 272 59 number start duration amp;
#X obj 294 409 s r\$1p;
#X obj 250 95 outlet;
#X connect 0 0 28 0;
#X connect 0 1 31 0;
#X connect 1 0 2 0;
#X connect 2 0 4 1;
#X connect 3 0 2 0;
#X connect 4 0 7 0;
#X connect 5 0 30 0;
#X connect 5 0 33 0;
#X connect 6 0 30 0;
#X connect 6 0 33 0;
#X connect 8 0 0 0;
#X connect 9 0 20 0;
#X connect 10 0 11 1;
#X connect 10 0 23 1;
#X connect 11 0 18 0;
#X connect 12 0 14 0;
#X connect 13 0 12 0;
#X connect 15 0 4 0;
#X connect 15 1 5 0;
#X connect 16 0 17 0;
#X connect 16 0 5 0;
#X connect 17 0 15 0;
#X connect 18 0 26 0;
#X connect 19 0 13 0;
#X connect 20 0 21 1;
#X connect 21 0 3 0;
#X connect 23 0 18 1;
#X connect 25 0 24 0;
#X connect 26 0 27 0;
#X connect 27 0 15 0;
#X connect 28 0 29 0;
#X connect 28 1 1 0;
#X connect 28 1 21 0;
#X connect 28 2 25 0;
#X connect 29 0 27 0;
#X connect 29 0 6 0;
#X connect 30 0 29 1;
#X connect 31 0 19 0;
#X connect 31 1 11 0;
#X connect 31 2 9 0;
#X connect 31 2 23 0;
#X connect 31 3 34 0;
