#N canvas 538 219 840 653 12;
#X obj 22 26 inlet;
#X obj 22 50 t l b, f 60;
#X obj 141 485 line~;
#X obj 92 505 *~;
#X obj 22 74 unpack f f f f, f 30;
#X text 247 74 number start duration amp;
#X obj 229 103 outlet;
#X obj 137 103 r samplerate;
#X obj 91 127 * 48000;
#X obj 160 127 * 48000;
#X msg 91 324 0 960000 20000;
#X obj 509 394 r reset;
#X obj 166 373 t b b;
#X obj 363 442 delay;
#X msg 363 466 0 20;
#X obj 150 244 t b b;
#X msg 401 466 1 20;
#X obj 166 349 r stop-replay-\$1;
#X obj 91 432 line~;
#X obj 124 150 +;
#X obj 91 174 pack f f f;
#X msg 91 196 set \$1 \$2 \$3;
#X obj 159 151 * 1000;
#X obj 395 316 expr $f1 -20;
#X msg 91 348 \$1 \, \$2 \$3;
#X msg 439 413 stop;
#X obj 166 394 del 20;
#X msg 238 262 0;
#X obj 238 284 s r\$1p;
#X obj 395 340 del 20;
#X msg 238 240 1;
#X obj 439 390 del 2;
#X msg 439 466 0 2;
#X obj 91 531 outlet~;
#X obj 150 221 del 2;
#X obj 91 454 tabread4~ buffertable-1003;
#X obj 22 202 t b f;
#X msg 54 403 set buffertable-\$1;
#X connect 0 0 1 0;
#X connect 1 0 4 0;
#X connect 1 1 32 0;
#X connect 1 1 31 0;
#X connect 2 0 3 1;
#X connect 3 0 33 0;
#X connect 4 0 36 0;
#X connect 4 1 8 0;
#X connect 4 2 9 0;
#X connect 4 2 22 0;
#X connect 4 3 6 0;
#X connect 7 0 8 1;
#X connect 7 0 9 1;
#X connect 8 0 20 0;
#X connect 8 0 19 1;
#X connect 9 0 19 0;
#X connect 10 0 24 0;
#X connect 11 0 25 0;
#X connect 11 0 32 0;
#X connect 12 0 26 0;
#X connect 12 1 14 0;
#X connect 13 0 14 0;
#X connect 14 0 2 0;
#X connect 15 0 13 0;
#X connect 15 0 16 0;
#X connect 15 1 10 0;
#X connect 16 0 2 0;
#X connect 17 0 12 0;
#X connect 18 0 35 0;
#X connect 19 0 20 1;
#X connect 20 0 21 0;
#X connect 21 0 10 0;
#X connect 22 0 20 2;
#X connect 22 0 23 0;
#X connect 23 0 13 1;
#X connect 23 0 29 0;
#X connect 24 0 18 0;
#X connect 25 0 18 0;
#X connect 25 0 27 0;
#X connect 26 0 25 0;
#X connect 27 0 28 0;
#X connect 29 0 25 0;
#X connect 30 0 28 0;
#X connect 31 0 25 0;
#X connect 32 0 2 0;
#X connect 34 0 30 0;
#X connect 34 0 15 0;
#X connect 35 0 3 0;
#X connect 36 0 34 0;
#X connect 36 1 37 0;
#X connect 37 0 35 0;
