#N canvas 721 147 975 749 12;
#X obj 22 26 inlet;
#X obj 22 50 t l b, f 60;
#X obj 166 594 outlet~;
#X obj 216 548 line~;
#X obj 167 568 *~;
#X obj 22 74 unpack f f f f, f 30;
#X text 247 74 number start duration amp;
#X obj 229 103 outlet;
#X msg 54 278 read -resize \$1 buffertable-\$2;
#X obj 54 299 soundfiler;
#X msg 54 236 buffer\$1.wav;
#X msg 22 321 \; buffertable-\$1 normalize;
#X obj 137 103 r samplerate;
#X obj 91 127 * 48000;
#X obj 160 127 * 48000;
#X msg 166 368 0 96000 2000;
#X obj 324 384 r reset;
#X obj 324 405 t b b;
#X obj 356 505 delay;
#X msg 356 529 0 20;
#X obj 270 349 t b b;
#X msg 396 529 1 20;
#X obj 247 446 delay 20;
#X msg 247 467 stop;
#X obj 270 222 delay;
#X msg 339 141 0;
#X msg 340 164 20;
#X obj 22 198 t b f;
#X obj 372 214 s r\$1p;
#X obj 247 423 spigot;
#X msg 439 529 0 2;
#X floatatom 359 576 5 0 0 0 - - - 0;
#X obj 22 299 f \$0;
#X obj 54 257 pack s \$0;
#X obj 544 274 array define buffertable-\$0;
#X obj 324 362 r stop-replay-\$1;
#X obj 166 517 tabread4~ buffertable-\$0;
#X obj 166 495 line~;
#X obj 124 150 +;
#X obj 91 174 pack f f f;
#X msg 91 196 set \$1 \$2 \$3;
#X msg 166 392 \$1 \, \$2 \$3;
#X obj 159 151 * 1000;
#X obj 388 398 expr $f1 -20;
#X connect 0 0 1 0;
#X connect 1 0 5 0;
#X connect 1 1 30 0;
#X connect 1 1 29 0;
#X connect 3 0 4 1;
#X connect 4 0 2 0;
#X connect 5 0 27 0;
#X connect 5 1 13 0;
#X connect 5 2 14 0;
#X connect 5 2 42 0;
#X connect 5 3 7 0;
#X connect 8 0 9 0;
#X connect 10 0 33 0;
#X connect 12 0 13 1;
#X connect 12 0 14 1;
#X connect 13 0 39 0;
#X connect 13 0 38 1;
#X connect 14 0 38 0;
#X connect 15 0 41 0;
#X connect 16 0 17 0;
#X connect 17 0 29 0;
#X connect 17 1 19 0;
#X connect 18 0 19 0;
#X connect 18 0 22 0;
#X connect 19 0 3 0;
#X connect 19 0 31 0;
#X connect 20 0 21 0;
#X connect 20 0 18 0;
#X connect 20 1 15 0;
#X connect 21 0 3 0;
#X connect 21 0 31 0;
#X connect 22 0 23 0;
#X connect 23 0 25 0;
#X connect 23 0 37 0;
#X connect 24 0 20 0;
#X connect 24 0 26 0;
#X connect 25 0 24 1;
#X connect 25 0 28 0;
#X connect 25 0 29 1;
#X connect 26 0 24 1;
#X connect 26 0 28 0;
#X connect 26 0 29 1;
#X connect 27 0 24 0;
#X connect 27 0 32 0;
#X connect 27 1 10 0;
#X connect 29 0 22 0;
#X connect 30 0 3 0;
#X connect 32 0 11 0;
#X connect 33 0 8 0;
#X connect 35 0 17 0;
#X connect 36 0 4 0;
#X connect 37 0 36 0;
#X connect 38 0 39 1;
#X connect 39 0 40 0;
#X connect 40 0 15 0;
#X connect 41 0 37 0;
#X connect 42 0 39 2;
#X connect 42 0 43 0;
#X connect 43 0 18 1;
