#N canvas 747 197 840 653 12;
#X obj 22 26 inlet;
#X obj 22 50 t l b, f 60;
#X obj 237 494 line~;
#X obj 188 514 *~;
#X obj 22 74 unpack f f f f, f 30;
#X text 247 74 number start duration amp;
#X obj 229 103 outlet;
#X msg 54 310 read -resize \$1 buffertable-\$2;
#X obj 54 331 soundfiler;
#X msg 54 268 buffer\$1.wav;
#X msg 22 388 \; buffertable-\$1 normalize;
#X obj 137 103 r samplerate;
#X obj 91 127 * 48000;
#X obj 160 127 * 48000;
#X msg 187 333 0 960000 20000;
#X obj 509 403 r reset;
#X obj 262 382 t b b;
#X obj 363 451 delay;
#X msg 363 475 0 20;
#X obj 276 244 t b b;
#X msg 401 475 1 20;
#X obj 22 180 t b f;
#X obj 22 366 f \$0;
#X obj 54 289 pack s \$0;
#X obj 529 207 array define buffertable-\$0;
#X obj 262 358 r stop-replay-\$1;
#X obj 187 463 tabread4~ buffertable-\$0;
#X obj 187 441 line~;
#X obj 124 150 +;
#X obj 91 174 pack f f f;
#X msg 91 196 set \$1 \$2 \$3;
#X obj 159 151 * 1000;
#X obj 395 325 expr $f1 -20;
#X msg 187 357 \$1 \, \$2 \$3;
#X msg 439 422 stop;
#X obj 262 403 del 20;
#X msg 364 262 0;
#X obj 364 284 s r\$1p;
#X obj 395 349 del 20;
#X msg 364 240 1;
#X obj 439 399 del 2;
#X msg 439 475 0 2;
#X obj 187 540 outlet~;
#X obj 22 224 t b b;
#X obj 54 246 f;
#X obj 276 221 del 1;
#X obj 22 202 del 4;
#X connect 0 0 1 0;
#X connect 1 0 4 0;
#X connect 1 1 41 0;
#X connect 1 1 40 0;
#X connect 2 0 3 1;
#X connect 3 0 42 0;
#X connect 4 0 21 0;
#X connect 4 1 12 0;
#X connect 4 2 13 0;
#X connect 4 2 31 0;
#X connect 4 3 6 0;
#X connect 7 0 8 0;
#X connect 9 0 23 0;
#X connect 11 0 12 1;
#X connect 11 0 13 1;
#X connect 12 0 29 0;
#X connect 12 0 28 1;
#X connect 13 0 28 0;
#X connect 14 0 33 0;
#X connect 15 0 34 0;
#X connect 15 0 41 0;
#X connect 16 0 35 0;
#X connect 16 1 18 0;
#X connect 17 0 18 0;
#X connect 18 0 2 0;
#X connect 19 0 17 0;
#X connect 19 0 20 0;
#X connect 19 1 14 0;
#X connect 20 0 2 0;
#X connect 21 0 46 0;
#X connect 21 1 44 1;
#X connect 22 0 10 0;
#X connect 23 0 7 0;
#X connect 25 0 16 0;
#X connect 26 0 3 0;
#X connect 27 0 26 0;
#X connect 28 0 29 1;
#X connect 29 0 30 0;
#X connect 30 0 14 0;
#X connect 31 0 29 2;
#X connect 31 0 32 0;
#X connect 32 0 17 1;
#X connect 32 0 38 0;
#X connect 33 0 27 0;
#X connect 34 0 27 0;
#X connect 34 0 36 0;
#X connect 35 0 34 0;
#X connect 36 0 37 0;
#X connect 38 0 34 0;
#X connect 39 0 37 0;
#X connect 40 0 34 0;
#X connect 41 0 2 0;
#X connect 43 0 22 0;
#X connect 43 1 44 0;
#X connect 44 0 9 0;
#X connect 45 0 39 0;
#X connect 45 0 19 0;
#X connect 46 0 43 0;
#X connect 46 0 45 0;
