#N canvas 160 160 1920 976 12;
#X obj 34 36 t b l;
#X msg 66 99 set \$1;
#X msg 66 123 0;
#X obj 66 245 readsf~;
#X obj 21 104 t b b;
#X msg 21 184 start;
#X obj 66 59 unpack f f f;
#X text 163 57 number start duration;
#X msg 217 184 stop;
#X obj 172 123 delay;
#X obj 217 161 delay 10;
#X msg 132 226 1 10;
#X obj 132 252 line~;
#X msg 172 226 0 10;
#X obj 66 271 *~;
#X msg 217 208 0;
#X msg 217 229 1;
#X obj 217 257 outlet;
#X obj 66 295 outlet~;
#X obj 34 12 inlet;
#X obj 204 99 * 1000;
#X obj 66 147 pack f f;
#X msg 66 184 open buffer\$1.wav \$2;
#X obj 194 395 print;
#X obj 204 75 r samplerate;
#X obj 119 99 * 48000;
#X connect 0 0 4 0;
#X connect 0 1 6 0;
#X connect 1 0 2 0;
#X connect 2 0 21 0;
#X connect 3 0 14 0;
#X connect 4 0 5 0;
#X connect 4 0 9 0;
#X connect 4 0 11 0;
#X connect 4 1 2 0;
#X connect 5 0 3 0;
#X connect 5 0 16 0;
#X connect 6 0 1 0;
#X connect 6 1 25 0;
#X connect 6 2 20 0;
#X connect 8 0 3 0;
#X connect 8 0 15 0;
#X connect 9 0 10 0;
#X connect 9 0 13 0;
#X connect 10 0 8 0;
#X connect 11 0 12 0;
#X connect 12 0 14 1;
#X connect 13 0 12 0;
#X connect 14 0 18 0;
#X connect 15 0 17 0;
#X connect 16 0 17 0;
#X connect 19 0 0 0;
#X connect 20 0 9 1;
#X connect 21 0 22 0;
#X connect 22 0 3 0;
#X connect 22 0 23 0;
#X connect 24 0 25 1;
#X connect 25 0 21 1;
