#N canvas 362 300 931 504 12;
#X obj 44 40 tgl 19 0 empty r1p empty 0 -10 0 12 #fcfcfc #000000 #000000
0 1;
#X obj 68 40 tgl 19 0 empty r2p empty 0 -10 0 12 #fcfcfc #000000 #000000
0 1;
#X text 183 34 send message to replay-$ with three floats: index \,
start in seconds and duration in seconds;
#X obj 102 135 r replay-1;
#X obj 190 184 s r1p;
#X obj 265 135 r replay-2;
#X obj 353 184 s r2p;
#X obj 102 159 replay-buffer;
#X obj 265 159 replay-buffer;
#X obj 149 332 dynamics~;
#A saved;
#A saved;
#A saved;
#A saved;
#A saved;
#A saved;
#A saved;
#A saved;
#A saved;
#A saved;
#A saved;
#A saved;
#A saved;
#A saved;
#A saved;
#A saved;
#A saved;
#A saved;
#A saved;
#A saved;
#A saved;
#X obj 353 270 loadbang;
#X msg 353 293 threshold-compress -35 \, smooth 100 \, compression
55 \, threshold-expand -44 \, expansion 50 \, lookahead 64 \, gain
30 \;;
#X obj 148 373 s~ replay-out;
#X connect 3 0 7 0;
#X connect 5 0 8 0;
#X connect 7 0 9 0;
#X connect 7 1 4 0;
#X connect 8 0 9 0;
#X connect 8 1 6 0;
#X connect 9 0 12 0;
#X connect 10 0 11 0;
#X connect 11 0 9 1;
#X coords 0 -1 1 1 115 70 1 10 10;
