#N canvas 362 300 931 504 12;
#X obj 165 297 s~ replay-out;
#X obj 102 159 replay-instance;
#X obj 102 135 r replay-1;
#X obj 204 184 s r1p;
#X obj 44 40 tgl 19 0 empty r1p empty 0 -10 0 12 #fcfcfc #000000 #000000
0 1;
#X obj 265 159 replay-instance;
#X obj 265 135 r replay-2;
#X obj 367 184 s r2p;
#X obj 68 40 tgl 19 0 empty r2p empty 0 -10 0 12 #fcfcfc #000000 #000000
0 1;
#X text 183 34 send message to replay-$ with three floats: index \,
start in seconds and duration in seconds;
#X connect 1 0 0 0;
#X connect 1 1 3 0;
#X connect 2 0 1 0;
#X connect 5 0 0 0;
#X connect 5 1 7 0;
#X connect 6 0 5 0;
#X coords 0 -1 1 1 115 70 1 10 10;
