#N canvas 224 224 749 357 12;
#X obj 16 35 *~;
#X obj 16 83 sqrt~;
#X msg 100 90 \$1 10;
#X obj 100 111 line;
#X obj 16 59 lop~ 1;
#X obj 16 7 inlet~;
#X obj 16 107 outlet~;
#X obj 100 49 expr ( 1 / $f1);
#X floatatom 100 70 5 0 0 0 - - - 0;
#X obj 100 26 f \$1;
#X obj 100 4 loadbang;
#X obj 198 17 inlet;
#X connect 0 0 4 0;
#X connect 1 0 6 0;
#X connect 2 0 3 0;
#X connect 3 0 4 1;
#X connect 4 0 1 0;
#X connect 5 0 0 0;
#X connect 5 0 0 1;
#X connect 7 0 8 0;
#X connect 8 0 2 0;
#X connect 9 0 7 0;
#X connect 10 0 9 0;
#X connect 11 0 7 0;
#X coords 0 0 0.5 0.5 0 0 0;
