#N canvas 1400 237 453 595 12;
#X obj 77 298 -;
#X floatatom 38 171 5 0 0 0 - - -;
#X obj 191 355 r grenze-links;
#X floatatom 78 323 5 0 0 0 - - -;
#X obj 77 265 * 96000;
#X obj 123 209 r sample-länge;
#X obj 190 406 * 96000;
#X obj 190 380 t b f b;
#X obj 144 28 r wheel;
#X floatatom 144 103 5 0 0 0 - - -;
#X obj 144 149 +;
#X floatatom 190 432 5 0 0 0 - - -;
#X obj 78 370 line~;
#X msg 190 455 \$1 10;
#X obj 190 479 line~;
#X obj 77 410 outlet~;
#X obj 190 505 outlet~;
#X obj 221 75 r mod;
#X obj 144 74 +;
#X obj 221 123 t b f;
#X obj 13 328 line;
#X msg 13 302 \$1 250;
#X msg 78 346 \$1 250;
#X obj 144 51 expr pow($f1 \, 3);
#X obj 221 99 * 0.05;
#X obj 123 235 t b f;
#X floatatom 32 222 5 0 0 0 - - -;
#X text 267 63 wheel and mod input;
#X obj 13 382 s abstand;
#X connect 0 0 3 0;
#X connect 1 0 26 0;
#X connect 2 0 7 0;
#X connect 3 0 22 0;
#X connect 4 0 0 0;
#X connect 5 0 6 1;
#X connect 5 0 25 0;
#X connect 6 0 11 0;
#X connect 6 0 0 1;
#X connect 7 0 9 0;
#X connect 7 1 6 0;
#X connect 7 1 10 1;
#X connect 7 1 1 0;
#X connect 8 0 23 0;
#X connect 9 0 10 0;
#X connect 10 0 1 0;
#X connect 11 0 13 0;
#X connect 12 0 15 0;
#X connect 13 0 14 0;
#X connect 14 0 16 0;
#X connect 17 0 24 0;
#X connect 18 0 9 0;
#X connect 19 0 18 0;
#X connect 19 1 18 1;
#X connect 20 0 28 0;
#X connect 21 0 20 0;
#X connect 22 0 12 0;
#X connect 23 0 18 0;
#X connect 24 0 19 0;
#X connect 25 0 1 0;
#X connect 25 1 4 1;
#X connect 26 0 4 0;
#X connect 26 0 21 0;
