#N canvas 514 261 670 392 12;
#X obj 99 35 tgl 15 0 speaker-test empty empty 17 7 0 10 #fcfcfc #000000
#000000 0 1;
#X obj 99 60 tgl 15 0 speaker-test-pad empty empty 17 7 0 10 #fcfcfc
#000000 #000000 0 1;
#X obj 365 139 r speaker-test-pad;
#X obj 96 140 *~;
#X obj 287 99 loadbang;
#X msg 245 78 0;
#X obj 96 218 throw~ master;
#X msg 438 72 \; enable-stablizer 0 \; fader-0 1 \;;
#X msg 190 97 \$1 10;
#X obj 190 121 line~;
#X obj 392 44 moses 1;
#X obj 96 188 *~;
#X msg 246 126 1;
#X obj 365 163 moses 1;
#X msg 190 145 \$1 10;
#X obj 190 169 line~;
#X text 14 32 test:;
#X obj 96 116 phasor~ 40;
#X text 16 57 Pad;
#X msg 361 200 0.25;
#X obj 190 25 r speaker-test;
#X connect 2 0 13 0;
#X connect 3 0 11 0;
#X connect 4 0 5 0;
#X connect 4 0 12 0;
#X connect 5 0 8 0;
#X connect 8 0 9 0;
#X connect 9 0 3 1;
#X connect 10 1 7 0;
#X connect 11 0 6 0;
#X connect 12 0 14 0;
#X connect 13 0 12 0;
#X connect 13 1 19 0;
#X connect 14 0 15 0;
#X connect 15 0 11 1;
#X connect 17 0 3 0;
#X connect 19 0 14 0;
#X connect 20 0 8 0;
#X connect 20 0 10 0;
#X coords 0 -1 1 1 115 70 1 10 10;
