#N canvas 6 -20 1920 976 12;
#X obj 336 299 swelling 1;
#X obj 502 403 swelling 2;
#X obj 520 39 r current-trigger;
#X obj 520 66 route 0 1 2;
#X msg 360 190 0 1000;
#X msg 336 213 1 10;
#X msg 502 308 0 1000;
#X obj 573 299 osc~;
#X msg 614 340 0;
#X msg 614 316 1;
#X msg 614 229 1;
#X msg 614 253 55;
#X obj 336 275 line~;
#X obj 502 332 line~;
#X obj 576 346 *~;
#X connect 2 0 3 0;
#X connect 3 1 5 0;
#X connect 3 1 10 0;
#X connect 3 2 4 0;
#X connect 3 2 11 0;
#X connect 3 3 6 0;
#X connect 4 0 12 0;
#X connect 5 0 12 0;
#X connect 6 0 8 0;
#X connect 6 0 13 0;
#X connect 7 0 14 0;
#X connect 8 0 14 1;
#X connect 9 0 14 1;
#X connect 10 0 9 0;
#X connect 10 0 7 0;
#X connect 11 0 9 0;
#X connect 11 0 7 0;
#X connect 12 0 0 0;
#X connect 13 0 1 0;
#X connect 14 0 1 0;
