#N canvas 819 346 485 388 12;
#X obj 35 255 *~;
#X obj 34 74 catch~ swelling-in-\$1;
#X obj 35 280 s~ swelling-out-\$1;
#X obj 53 97 r sweller-\$1;
#X obj 54 226 +~;
#X obj 53 121 route line osc-freq osc-amp, f 30;
#X obj 53 142 line~;
#X obj 122 142 line~;
#X obj 191 142 line~;
#X obj 260 163 print sweller-\$1;
#X msg 260 142 got a weird message;
#X obj 122 163 osc~;
#X obj 122 207 *~;
#X obj 122 185 abs~;
#X obj 173 256 s~ sweller-val-\$1;
#X obj 172 181 *~;
#X obj 172 205 +~;
#X connect 0 0 2 0;
#X connect 1 0 0 0;
#X connect 3 0 5 0;
#X connect 4 0 0 1;
#X connect 5 0 6 0;
#X connect 5 1 7 0;
#X connect 5 2 8 0;
#X connect 5 3 10 0;
#X connect 6 0 4 0;
#X connect 6 0 16 1;
#X connect 7 0 11 0;
#X connect 8 0 12 1;
#X connect 8 0 15 1;
#X connect 10 0 9 0;
#X connect 11 0 13 0;
#X connect 11 0 15 0;
#X connect 12 0 4 1;
#X connect 13 0 12 0;
#X connect 15 0 16 0;
#X connect 16 0 14 0;
