#N canvas -17 -15 1920 976 12;
#X obj 51 418 *~;
#X obj 51 443 s~ swelling-out;
#X obj 51 32 catch~ swelling-in;
#X obj 303 54 r current-trigger;
#X obj 303 81 route 0 1 2;
#X obj 147 325 log 2;
#X obj 147 302 /;
#X obj 109 253 select 0;
#X msg 147 279 1;
#X msg 109 278 0;
#X msg 109 373 \$1 10;
#X msg 328 179 0 1000;
#X msg 303 202 1 10;
#X obj 109 232 line;
#X obj 147 348 expr pow(10 \, -(($f1 * 10) / 20));
#X obj 109 399 line~;
#X floatatom 67 256 5 0 0 0 - - - 0;
#X connect 0 0 1 0;
#X connect 2 0 0 0;
#X connect 3 0 4 0;
#X connect 4 0 12 0;
#X connect 4 1 11 0;
#X connect 5 0 14 0;
#X connect 6 0 5 0;
#X connect 7 0 9 0;
#X connect 7 1 6 1;
#X connect 7 1 8 0;
#X connect 8 0 6 0;
#X connect 9 0 10 0;
#X connect 10 0 15 0;
#X connect 11 0 13 0;
#X connect 12 0 13 0;
#X connect 13 0 7 0;
#X connect 13 0 16 0;
#X connect 14 0 10 0;
#X connect 15 0 0 1;
