#N canvas -2 172 1920 976 12;
#X obj 338 63 f 0;
#X obj 534 68 r next-trigger;
#X obj 534 92 bng 19 250 50 0 empty empty empty 0 -10 0 12 #fcfcfc #000000 #000000;
#X obj 367 63 + 1;
#X floatatom 338 139 5 0 0 0 - - - 0;
#X obj 33 54 bng 19 250 50 0 next-trigger next-trigger empty 0 -10 0 12 #fcfcfc #000000 #000000;
#X text 27 28 next;
#X obj 338 162 s current-trigger;
#X floatatom 147 55 5 0 0 0 - - current-trigger 0;
#X obj 657 68 r last-trigger;
#X obj 421 63 - 1;
#X msg 421 87 set \$1;
#X msg 367 87 set \$1;
#X msg 367 111 3;
#X msg 421 111 1;
#X obj 657 92 bng 19 250 50 0 empty empty empty 0 -10 0 12 #fcfcfc #000000 #000000;
#X obj 489 7 r reset-trigger;
#X obj 489 31 bng 19 250 50 0 empty empty empty 0 -10 0 12 #fcfcfc #000000 #000000;
#X msg 489 111 0;
#X obj 264 54 bng 19 250 50 0 reset-trigger reset-trigger empty 0 -10 0 12 #fcfcfc #000000 #000000;
#X text 253 28 reset;
#X text 136 29 current / set;
#X text 83 29 last;
#X obj 91 54 bng 19 250 50 0 last-trigger last-trigger empty 0 -10 0 12 #fcfcfc #000000 #000000;
#X msg 205 54 1;
#X connect 0 0 3 0;
#X connect 0 0 4 0;
#X connect 0 0 10 0;
#X connect 1 0 2 0;
#X connect 2 0 13 0;
#X connect 3 0 12 0;
#X connect 4 0 7 0;
#X connect 9 0 15 0;
#X connect 10 0 11 0;
#X connect 11 0 14 0;
#X connect 12 0 13 0;
#X connect 13 0 0 0;
#X connect 14 0 0 0;
#X connect 15 0 14 0;
#X connect 16 0 17 0;
#X connect 17 0 18 0;
#X connect 18 0 0 0;
#X connect 24 0 8 0;
#X coords 0 -1 1 1 300 70 1 10 10;
