#N canvas 243 276 832 463 12;
#X obj 37 237 f 0;
#X obj 233 242 r next-trigger;
#X obj 233 266 bng 19 250 50 0 empty empty empty 0 -10 0 12 #fcfcfc
#000000 #000000;
#X obj 66 237 + 1;
#X floatatom 37 313 5 0 0 0 - - - 0;
#X obj 22 54 bng 19 250 50 0 next-trigger next-trigger empty 0 -10
0 12 #fcfcfc #000000 #000000;
#X text 17 29 next;
#X floatatom 110 55 5 0 0 0 - current-trigger - 0;
#X obj 356 242 r last-trigger;
#X obj 120 237 - 1;
#X msg 120 261 set \$1;
#X msg 66 261 set \$1;
#X msg 66 285 1;
#X msg 120 285 -1;
#X obj 356 266 bng 19 250 50 0 empty empty empty 0 -10 0 12 #fcfcfc
#000000 #000000;
#X obj 188 181 r reset-trigger;
#X obj 188 205 bng 19 250 50 0 empty empty empty 0 -10 0 12 #fcfcfc
#000000 #000000;
#X msg 188 285 0;
#X obj 215 54 bng 19 250 50 0 reset-trigger reset-trigger empty 0 -10
0 12 #fcfcfc #000000 #000000;
#X text 204 29 reset;
#X text 99 29 current / set;
#X text 60 29 last;
#X obj 68 54 bng 19 250 50 0 last-trigger last-trigger empty 0 -10
0 12 #fcfcfc #000000 #000000;
#X obj 37 336 s current-trigger;
#X obj 367 110 key;
#X obj 367 188 select 32;
#X text 363 208 space bar;
#X obj 436 188 select 48;
#X text 445 210 "0";
#X obj 367 134 spigot;
#X obj 406 105 r enable-keys;
#X obj 268 54 tgl 19 0 enable-keys empty empty 17 7 0 10 #fcfcfc #000000
#000000 0 1;
#X text 252 29 key-ctl;
#X floatatom 162 55 5 0 0 0 - - - 0;
#X obj 37 181 loadbang;
#X msg 37 205 0;
#X connect 0 0 3 0;
#X connect 0 0 4 0;
#X connect 0 0 9 0;
#X connect 1 0 2 0;
#X connect 2 0 12 0;
#X connect 3 0 11 0;
#X connect 4 0 23 0;
#X connect 8 0 14 0;
#X connect 9 0 10 0;
#X connect 10 0 13 0;
#X connect 11 0 12 0;
#X connect 12 0 0 0;
#X connect 13 0 0 0;
#X connect 14 0 13 0;
#X connect 15 0 16 0;
#X connect 16 0 17 0;
#X connect 17 0 0 0;
#X connect 24 0 29 0;
#X connect 25 0 2 0;
#X connect 27 0 16 0;
#X connect 29 0 25 0;
#X connect 29 0 27 0;
#X connect 30 0 29 1;
#X connect 33 0 3 0;
#X connect 34 0 35 0;
#X connect 35 0 0 0;
#X coords 0 -1 1 1 300 70 1 10 10;
