#N canvas 287 368 1111 428 12;
#X obj 88 258 f 0;
#X obj 264 263 r next-trigger;
#X obj 117 258 + 1;
#X floatatom 88 334 5 0 0 0 - - - 0;
#X obj 17 54 bng 19 250 50 0 next-trigger next-trigger empty 0 -10
0 12 #fcfcfc #000000 #000000;
#X text 12 29 next;
#X floatatom 94 55 5 0 0 0 - current-trigger - 0;
#X obj 293 305 r last-trigger;
#X obj 171 258 - 1;
#X msg 171 282 set \$1;
#X msg 117 282 set \$1;
#X msg 117 306 1;
#X msg 171 306 -1;
#X obj 261 204 r reset-trigger;
#X msg 261 225 0;
#X obj 153 54 bng 19 250 50 0 reset-trigger reset-trigger empty 0 -10
0 12 #ffc7c6 #000000 #000000;
#X text 142 29 reset;
#X text 48 29 last;
#X obj 56 54 bng 19 250 50 0 last-trigger last-trigger empty 0 -10
0 12 #fcfcfc #000000 #000000;
#X obj 88 357 s current-trigger;
#X floatatom 199 25 5 0 0 0 - - - 0;
#N canvas 417 378 877 469 trigger-input 1;
#X obj 4 48 bng 20 250 50 0 empty empty empty 17 7 0 10 #fcfcfc #000000
#000000;
#X text 1 30 set;
#X obj 276 84 key;
#X obj 339 84 ctlin, f 15;
#X obj 390 119 spigot;
#X obj 441 119 spigot;
#X obj 500 119 spigot;
#X obj 553 119 spigot;
#X obj 289 154 spigot;
#X obj 397 154 spigot;
#X obj 448 154 spigot;
#X obj 560 154 spigot;
#X obj 507 154 spigot;
#X msg 161 205 1;
#X msg 191 205 1;
#X msg 221 205 1;
#X obj 390 200 select;
#X obj 441 200 select;
#X obj 500 200 select;
#X obj 553 200 select;
#X obj 81 224 del 1;
#X msg 94 135 0;
#X msg 30 100 1;
#X msg 63 135 1;
#X obj 143 100 f;
#X obj 173 100 f;
#X obj 203 100 f;
#X msg 173 68 0;
#X obj 276 200 select 48;
#X obj 276 119 spigot 1;
#X obj 500 84 notein, f 8;
#X obj 500 177 moses 1;
#X obj 339 154 moses 1;
#X obj 385 281 bang;
#X obj 385 328 outlet;
#X obj 385 305 spigot 0;
#X obj 438 281 r enable-trigger-input;
#X obj 48 48 tgl 20 0 enable-trigger-input empty empty 17 7 0 10 #fcfcfc
#000000 #000000 0 1;
#X text 38 30 enable;
#X obj 210 300 s trigger-input-check;
#X obj 93 48 bng 20 250 50 0 empty trigger-input-check empty 17 7 0
10 #fcfcfc #000000 #000000;
#X text 93 30 in;
#X text 136 10 - press 'set' and then a midi-input or keyboard key
to set this as the trigger for "next" \; - enable toggles \, wheter
the input is used to go to the next trigger \; - in shows the input
\, independant of enable \;, f 93;
#N canvas 130 130 450 300 &&& 0;
#X msg 64 80 1;
#X obj 33 30 inlet;
#X msg 33 80 0;
#X obj 33 54 del 1;
#X msg 131 79 1;
#X obj 100 29 inlet;
#X msg 100 79 0;
#X obj 100 53 del 1;
#X obj 72 134 &&;
#X obj 100 103 t b f;
#X obj 108 196 change;
#X obj 108 220 sel 1;
#X obj 108 244 outlet;
#X msg 200 79 1;
#X obj 169 29 inlet;
#X msg 169 79 0;
#X obj 169 53 del 1;
#X obj 169 103 t b f;
#X obj 108 170 &&;
#X connect 0 0 8 0;
#X connect 1 0 0 0;
#X connect 1 0 3 0;
#X connect 2 0 8 0;
#X connect 3 0 2 0;
#X connect 4 0 9 0;
#X connect 5 0 4 0;
#X connect 5 0 7 0;
#X connect 6 0 9 0;
#X connect 7 0 6 0;
#X connect 8 0 18 0;
#X connect 9 0 8 0;
#X connect 9 1 8 1;
#X connect 10 0 11 0;
#X connect 11 0 12 0;
#X connect 13 0 17 0;
#X connect 14 0 13 0;
#X connect 14 0 16 0;
#X connect 15 0 17 0;
#X connect 16 0 15 0;
#X connect 17 0 18 0;
#X connect 17 1 18 1;
#X connect 18 0 10 0;
#X restore 527 226 pd &&&;
#N canvas 130 130 450 300 &&& 0;
#X msg 64 80 1;
#X obj 33 30 inlet;
#X msg 33 80 0;
#X obj 33 54 del 1;
#X msg 131 79 1;
#X obj 100 29 inlet;
#X msg 100 79 0;
#X obj 100 53 del 1;
#X obj 72 134 &&;
#X obj 100 103 t b f;
#X obj 108 196 change;
#X obj 108 220 sel 1;
#X obj 108 244 outlet;
#X msg 200 79 1;
#X obj 169 29 inlet;
#X msg 169 79 0;
#X obj 169 53 del 1;
#X obj 169 103 t b f;
#X obj 108 170 &&;
#X connect 0 0 8 0;
#X connect 1 0 0 0;
#X connect 1 0 3 0;
#X connect 2 0 8 0;
#X connect 3 0 2 0;
#X connect 4 0 9 0;
#X connect 5 0 4 0;
#X connect 5 0 7 0;
#X connect 6 0 9 0;
#X connect 7 0 6 0;
#X connect 8 0 18 0;
#X connect 9 0 8 0;
#X connect 9 1 8 1;
#X connect 10 0 11 0;
#X connect 11 0 12 0;
#X connect 13 0 17 0;
#X connect 14 0 13 0;
#X connect 14 0 16 0;
#X connect 15 0 17 0;
#X connect 16 0 15 0;
#X connect 17 0 18 0;
#X connect 17 1 18 1;
#X connect 18 0 10 0;
#X restore 385 226 pd &&&;
#X connect 0 0 22 0;
#X connect 0 0 27 0;
#X connect 2 0 29 0;
#X connect 3 0 32 0;
#X connect 3 1 4 0;
#X connect 3 2 5 0;
#X connect 4 0 9 0;
#X connect 4 0 16 0;
#X connect 5 0 10 0;
#X connect 5 0 17 0;
#X connect 6 0 12 0;
#X connect 6 0 18 0;
#X connect 7 0 11 0;
#X connect 7 0 19 0;
#X connect 8 0 13 0;
#X connect 8 0 28 1;
#X connect 9 0 16 1;
#X connect 9 0 14 0;
#X connect 10 0 17 1;
#X connect 11 0 19 1;
#X connect 12 0 15 0;
#X connect 12 0 18 1;
#X connect 13 0 20 0;
#X connect 13 0 24 1;
#X connect 14 0 20 0;
#X connect 14 0 25 1;
#X connect 15 0 20 0;
#X connect 15 0 26 1;
#X connect 16 0 44 1;
#X connect 17 0 44 2;
#X connect 18 0 43 0;
#X connect 19 0 43 2;
#X connect 20 0 21 0;
#X connect 20 0 24 0;
#X connect 20 0 25 0;
#X connect 20 0 26 0;
#X connect 21 0 8 1;
#X connect 21 0 9 1;
#X connect 21 0 10 1;
#X connect 21 0 12 1;
#X connect 21 0 11 1;
#X connect 22 0 4 1;
#X connect 22 0 5 1;
#X connect 22 0 6 1;
#X connect 22 0 7 1;
#X connect 22 0 23 0;
#X connect 22 0 29 1;
#X connect 23 0 8 1;
#X connect 23 0 9 1;
#X connect 23 0 10 1;
#X connect 23 0 12 1;
#X connect 23 0 11 1;
#X connect 24 0 29 1;
#X connect 25 0 5 1;
#X connect 25 0 4 1;
#X connect 26 0 7 1;
#X connect 26 0 6 1;
#X connect 27 0 24 1;
#X connect 27 0 25 1;
#X connect 27 0 26 1;
#X connect 28 0 33 0;
#X connect 29 0 8 0;
#X connect 29 0 28 0;
#X connect 30 0 6 0;
#X connect 30 1 31 0;
#X connect 30 2 7 0;
#X connect 31 1 43 1;
#X connect 32 1 44 0;
#X connect 33 0 35 0;
#X connect 33 0 39 0;
#X connect 35 0 34 0;
#X connect 36 0 35 1;
#X connect 43 0 33 0;
#X connect 44 0 33 0;
#X coords 0 -1 1 1 115 60 1 1 10;
#X restore 253 15 pd trigger-input;
#X text 401 18 - press 'set' and then a midi-input or keyboard key
to set this as the trigger for "next" \; - enable toggles \, wheter
the input is used to go to the next trigger \; - in shows the input
\, independant of enable \;, f 95;
#X text 87 29 current;
#X text 205 9 set;
#X obj 88 149 f;
#X obj 201 44 bng 15 250 50 0 empty empty empty 17 7 0 10 #fcfcfc #000000
#000000;
#X obj 218 44 bng 15 250 50 0 empty empty empty 17 7 0 10 #fcfcfc #000000
#000000;
#X obj 208 59 bng 20 250 50 0 empty empty empty 17 7 0 10 #fcfcfc #000000
#000000;
#X obj 106 116 f;
#X obj 133 116 + 1;
#X obj 160 116 - 1;
#X obj 253 287 bang;
#X msg 186 138 set \$1;
#X msg 132 138 set \$1;
#X msg 132 159 16;
#X msg 186 159 14;
#X text 5 114 set current \; to a specific \; cue:;
#X connect 0 0 2 0;
#X connect 0 0 3 0;
#X connect 0 0 8 0;
#X connect 1 0 32 0;
#X connect 2 0 10 0;
#X connect 3 0 19 0;
#X connect 7 0 12 0;
#X connect 8 0 9 0;
#X connect 9 0 12 0;
#X connect 10 0 11 0;
#X connect 11 0 0 0;
#X connect 12 0 0 0;
#X connect 13 0 14 0;
#X connect 14 0 0 0;
#X connect 20 0 29 0;
#X connect 21 0 32 0;
#X connect 25 0 0 0;
#X connect 26 0 36 0;
#X connect 27 0 35 0;
#X connect 28 0 25 0;
#X connect 29 0 30 0;
#X connect 29 0 31 0;
#X connect 29 0 25 1;
#X connect 30 0 34 0;
#X connect 31 0 33 0;
#X connect 32 0 11 0;
#X connect 33 0 36 0;
#X connect 34 0 35 0;
#X connect 35 0 29 0;
#X connect 35 0 20 0;
#X connect 36 0 29 0;
#X connect 36 0 20 0;
#X coords 0 -1 1 1 364 70 1 10 10;
