#N canvas 865 159 518 467 12;
#X obj 7 18 inlet~;
#X obj 7 156 snapshot~;
#X obj 36 40 loadbang;
#X obj 36 64 t b b;
#X obj 7 180 outlet;
#X obj 72 91 f \$1;
#X obj 72 113 sel 0;
#X obj 105 40 bng 19 250 50 0 empty empty empty 0 -10 0 12 #fcfcfc
#000000 #000000;
#X obj 36 135 metro 300;
#X connect 0 0 1 0;
#X connect 1 0 4 0;
#X connect 2 0 3 0;
#X connect 3 0 8 0;
#X connect 3 1 5 0;
#X connect 5 0 6 0;
#X connect 6 1 8 1;
#X connect 7 0 3 0;
#X connect 8 0 1 0;
#X coords 0 467 1 466 50 50 0;
