#N canvas 405 374 497 413 12;
#X obj 43 105 unpack f f;
#X obj 110 220 line~;
#X obj 20 240 *~;
#X obj 156 31 r vocoder-q;
#X obj 20 287 throw~ vocoder-out-wet;
#X msg 156 84 \$1 10;
#X obj 21 55 r~ voc-in;
#X obj 43 80 r peak-\$1;
#X obj 96 9 r vocoder-speed;
#X obj 43 148 pack f f;
#X msg 43 169 \$1 \$2;
#X obj 20 265 *~;
#X obj 156 223 line~;
#X obj 155 245 pow~ 0.6;
#X obj 156 105 line;
#X obj 43 127 expr max(50 \, min(5000 \, $f1));
#X obj 20 215 vcf~, f 7;
#X obj 43 190 line~;
#X obj 156 55 * 100;
#X obj 273 144 r vocoder-speed-t;
#X obj 110 181 pack f 10;
#X connect 0 0 15 0;
#X connect 0 1 20 0;
#X connect 1 0 2 1;
#X connect 2 0 11 0;
#X connect 3 0 18 0;
#X connect 5 0 12 0;
#X connect 5 0 14 0;
#X connect 6 0 16 0;
#X connect 7 0 0 0;
#X connect 8 0 9 1;
#X connect 9 0 10 0;
#X connect 10 0 17 0;
#X connect 11 0 4 0;
#X connect 12 0 13 0;
#X connect 13 0 11 1;
#X connect 14 0 16 2;
#X connect 15 0 9 0;
#X connect 16 0 2 0;
#X connect 17 0 16 1;
#X connect 18 0 5 0;
#X connect 19 0 20 1;
#X connect 20 0 1 0;
#X coords 0 0 1 1 85 60 0;
