#N canvas 114 427 933 505 12;
#X obj 516 79 s vocoder-q;
#X text 20 56 Q;
#X text 15 33 Mix;
#X obj 170 263 catch~ vocoder-out-wet;
#X obj 147 311 drywet~;
#X obj 74 36 hsl 140 15 0.01 1 0 0 vocoder-mix vocoder-mix empty -2
-10 0 12 #fcfcfc #000000 #000000 0 1;
#X obj 193 286 r vocoder-mix;
#X obj 147 415 s~ vocoder-out;
#X obj 74 60 hsl 140 15 1 1000 1 0 vocoder-q vocoder-q empty -2 -10
0 12 #fcfcfc #000000 #000000 0 1;
#X obj 366 28 catch~ vocoder-in;
#X obj 366 77 s~ voc-in;
#X obj 147 241 r~ voc-in;
#X obj 607 7 r init;
#X floatatom 607 55 5 0 0 0 - - - 0;
#X obj 607 78 s vocoder-speed;
#X msg 516 57 50;
#X msg 607 31 130;
#X obj 32 146 vocoder_bp 0;
#X obj 122 146 vocoder_bp 1;
#X obj 212 146 vocoder_bp 2;
#X obj 302 146 vocoder_bp 3;
#X obj 392 146 vocoder_bp 4;
#X obj 32 167 vocoder_bp 5;
#X obj 122 167 vocoder_bp 6;
#X obj 212 167 vocoder_bp 7;
#X obj 302 167 vocoder_bp 8;
#X obj 392 167 vocoder_bp 9;
#X obj 147 335 dynamics~;
#A saved;
#A saved;
#A saved;
#A saved;
#A saved;
#A saved;
#A saved;
#A saved;
#A saved;
#A saved;
#A saved;
#A saved;
#A saved;
#A saved;
#A saved;
#A saved;
#A saved;
#A saved;
#A saved;
#A saved;
#A saved;
#X msg 400 294 threshold-compress -35 \, smooth 100 \, compression
55 \, threshold-expand -44 \, expansion 50 \, lookahead 64 \, gain
20 \;;
#X connect 3 0 4 1;
#X connect 4 0 27 0;
#X connect 6 0 4 2;
#X connect 9 0 10 0;
#X connect 11 0 4 0;
#X connect 12 0 16 0;
#X connect 12 0 15 0;
#X connect 13 0 14 0;
#X connect 15 0 0 0;
#X connect 16 0 13 0;
#X connect 27 0 7 0;
#X connect 28 0 27 1;
#X coords 0 -1 1 1 232 70 1 10 10;
