#N canvas 192 192 1920 976 12;
#X obj 380 11 r mic-peaks;
#X obj 380 35 route 0 1 2 3 4 5 6 7 8 9;
#X obj 47 344 unpack f f;
#X obj 24 373 r~ input-signal;
#X obj 137 44 s~ input-signal;
#X obj 137 13 r~ mic-in;
#X obj 24 397 bp~, f 7;
#X obj 146 402 line~;
#X msg 146 377 \$1 10;
#X obj 24 421 *~;
#X obj 47 319 r peak-0;
#X obj 137 343 r vocoder-q;
#X obj 265 21 s vocoder-q;
#X obj 380 59 s peak-0;
#X obj 481 248 s peak-9;
#X obj 471 227 s peak-8;
#X obj 461 206 s peak-7;
#X obj 451 185 s peak-6;
#X obj 437 164 s peak-5;
#X obj 427 143 s peak-4;
#X obj 414 122 s peak-3;
#X obj 404 101 s peak-2;
#X obj 390 80 s peak-1;
#X obj 234 344 unpack f f;
#X obj 211 373 r~ input-signal;
#X obj 211 397 bp~, f 7;
#X obj 333 402 line~;
#X msg 333 377 \$1 10;
#X obj 211 421 *~;
#X obj 324 343 r vocoder-q;
#X obj 419 344 unpack f f;
#X obj 396 373 r~ input-signal;
#X obj 396 397 bp~, f 7;
#X obj 518 402 line~;
#X msg 518 377 \$1 10;
#X obj 396 421 *~;
#X obj 509 343 r vocoder-q;
#X obj 606 344 unpack f f;
#X obj 583 373 r~ input-signal;
#X obj 583 397 bp~, f 7;
#X obj 705 402 line~;
#X msg 705 377 \$1 10;
#X obj 583 421 *~;
#X obj 696 343 r vocoder-q;
#X obj 795 344 unpack f f;
#X obj 772 373 r~ input-signal;
#X obj 772 397 bp~, f 7;
#X obj 894 402 line~;
#X msg 894 377 \$1 10;
#X obj 772 421 *~;
#X obj 885 343 r vocoder-q;
#X obj 47 507 unpack f f;
#X obj 24 536 r~ input-signal;
#X obj 24 560 bp~, f 7;
#X obj 146 565 line~;
#X msg 146 540 \$1 10;
#X obj 24 584 *~;
#X obj 137 506 r vocoder-q;
#X obj 234 507 unpack f f;
#X obj 211 536 r~ input-signal;
#X obj 211 560 bp~, f 7;
#X obj 333 565 line~;
#X msg 333 540 \$1 10;
#X obj 211 584 *~;
#X obj 324 506 r vocoder-q;
#X obj 419 507 unpack f f;
#X obj 396 536 r~ input-signal;
#X obj 396 560 bp~, f 7;
#X obj 518 565 line~;
#X msg 518 540 \$1 10;
#X obj 396 584 *~;
#X obj 509 506 r vocoder-q;
#X obj 606 507 unpack f f;
#X obj 583 536 r~ input-signal;
#X obj 583 560 bp~, f 7;
#X obj 705 565 line~;
#X msg 705 540 \$1 10;
#X obj 583 584 *~;
#X obj 696 506 r vocoder-q;
#X obj 795 507 unpack f f;
#X obj 772 536 r~ input-signal;
#X obj 772 560 bp~, f 7;
#X obj 894 565 line~;
#X msg 894 540 \$1 10;
#X obj 772 584 *~;
#X obj 885 506 r vocoder-q;
#X obj 234 319 r peak-1;
#X obj 419 319 r peak-2;
#X obj 606 319 r peak-3;
#X obj 795 319 r peak-4;
#X obj 795 482 r peak-9;
#X obj 606 482 r peak-8;
#X obj 419 482 r peak-7;
#X obj 234 482 r peak-6;
#X obj 47 482 r peak-5;
#X floatatom 74 56 5 0 0 0 - vocoder-q - 0;
#X text 74 34 Q;
#X text 22 35 Mix;
#X floatatom 18 56 5 0 0 0 - vocoder-mix - 0;
#X obj 24 446 throw~ vocoder-out-wet;
#X obj 211 446 throw~ vocoder-out-wet;
#X obj 396 446 throw~ vocoder-out-wet;
#X obj 583 446 throw~ vocoder-out-wet;
#X obj 772 446 throw~ vocoder-out-wet;
#X obj 772 609 throw~ vocoder-out-wet;
#X obj 583 609 throw~ vocoder-out-wet;
#X obj 396 610 throw~ vocoder-out-wet;
#X obj 211 609 throw~ vocoder-out-wet;
#X obj 24 609 throw~ vocoder-out-wet;
#X text 59 157 comment;
#X connect 0 0 1 0;
#X connect 1 0 13 0;
#X connect 1 1 22 0;
#X connect 1 2 21 0;
#X connect 1 3 20 0;
#X connect 1 4 19 0;
#X connect 1 5 18 0;
#X connect 1 6 17 0;
#X connect 1 7 16 0;
#X connect 1 8 15 0;
#X connect 1 9 14 0;
#X connect 2 0 6 1;
#X connect 2 1 8 0;
#X connect 3 0 6 0;
#X connect 5 0 4 0;
#X connect 6 0 9 0;
#X connect 7 0 9 1;
#X connect 8 0 7 0;
#X connect 9 0 99 0;
#X connect 10 0 2 0;
#X connect 11 0 6 2;
#X connect 23 0 25 1;
#X connect 23 1 27 0;
#X connect 24 0 25 0;
#X connect 25 0 28 0;
#X connect 26 0 28 1;
#X connect 27 0 26 0;
#X connect 28 0 100 0;
#X connect 29 0 25 2;
#X connect 30 0 32 1;
#X connect 30 1 34 0;
#X connect 31 0 32 0;
#X connect 32 0 35 0;
#X connect 33 0 35 1;
#X connect 34 0 33 0;
#X connect 35 0 101 0;
#X connect 36 0 32 2;
#X connect 37 0 39 1;
#X connect 37 1 41 0;
#X connect 38 0 39 0;
#X connect 39 0 42 0;
#X connect 40 0 42 1;
#X connect 41 0 40 0;
#X connect 42 0 102 0;
#X connect 43 0 39 2;
#X connect 44 0 46 1;
#X connect 44 1 48 0;
#X connect 45 0 46 0;
#X connect 46 0 49 0;
#X connect 47 0 49 1;
#X connect 48 0 47 0;
#X connect 49 0 103 0;
#X connect 50 0 46 2;
#X connect 51 0 53 1;
#X connect 51 1 55 0;
#X connect 52 0 53 0;
#X connect 53 0 56 0;
#X connect 54 0 56 1;
#X connect 55 0 54 0;
#X connect 56 0 108 0;
#X connect 57 0 53 2;
#X connect 58 0 60 1;
#X connect 58 1 62 0;
#X connect 59 0 60 0;
#X connect 60 0 63 0;
#X connect 61 0 63 1;
#X connect 62 0 61 0;
#X connect 63 0 107 0;
#X connect 64 0 60 2;
#X connect 65 0 67 1;
#X connect 65 1 69 0;
#X connect 66 0 67 0;
#X connect 67 0 70 0;
#X connect 68 0 70 1;
#X connect 69 0 68 0;
#X connect 70 0 106 0;
#X connect 71 0 67 2;
#X connect 72 0 74 1;
#X connect 72 1 76 0;
#X connect 73 0 74 0;
#X connect 74 0 77 0;
#X connect 75 0 77 1;
#X connect 76 0 75 0;
#X connect 77 0 105 0;
#X connect 78 0 74 2;
#X connect 79 0 81 1;
#X connect 79 1 83 0;
#X connect 80 0 81 0;
#X connect 81 0 84 0;
#X connect 82 0 84 1;
#X connect 83 0 82 0;
#X connect 84 0 104 0;
#X connect 85 0 81 2;
#X connect 86 0 23 0;
#X connect 87 0 30 0;
#X connect 88 0 37 0;
#X connect 89 0 44 0;
#X connect 90 0 79 0;
#X connect 91 0 72 0;
#X connect 92 0 65 0;
#X connect 93 0 58 0;
#X connect 94 0 51 0;
#X coords 0 -1 1 1 115 70 1 10 10;
