#N canvas 91 201 1920 976 12;
#X obj 43 33 unpack f f;
#X obj 20 146 bp~, f 7;
#X obj 142 128 line~;
#X msg 142 103 \$1 10;
#X obj 20 170 *~;
#X obj 133 33 r vocoder-q;
#X obj 20 194 throw~ vocoder-out-wet;
#X obj 43 101 line;
#X msg 133 57 \$1 10;
#X obj 133 78 line;
#X obj 20 122 r~ voc-in;
#X obj 43 8 r peak-\$1;
#X obj 245 38 r vocoder-speed;
#X obj 43 57 pack f f;
#X msg 43 80 \$1 \$2;
#X connect 0 0 13 0;
#X connect 0 1 3 0;
#X connect 1 0 4 0;
#X connect 2 0 4 1;
#X connect 3 0 2 0;
#X connect 4 0 6 0;
#X connect 5 0 8 0;
#X connect 7 0 1 1;
#X connect 8 0 9 0;
#X connect 9 0 1 2;
#X connect 10 0 1 0;
#X connect 11 0 0 0;
#X connect 12 0 13 1;
#X connect 13 0 14 0;
#X connect 14 0 7 0;
