#N canvas 707 13 1036 961 12;
#X obj 218 330 phasor~;
#X obj 217 846 hip~ 5;
#X floatatom 218 248 5 0 0 0 - - - 0;
#X obj 218 498 *~;
#X obj 218 524 +~;
#X msg 218 271 \$1 10;
#X obj 218 297 line~;
#X obj 218 823 *~;
#X obj 217 893 outlet~;
#X obj 218 118 +;
#X obj 249 67 *;
#X obj 249 91 t b f;
#X obj 217 766 *~;
#X obj 367 772 *~;
#X obj 217 792 +~;
#X text 325 249 Frequency -> phasor speed;
#X text 426 517 read and interpolatae;
#X obj 218 460 wrap~;
#X obj 218 67 f 1;
#X msg 314 311 0;
#X msg 371 481 \$1 10;
#X obj 371 504 line~;
#X obj 313 478 line~;
#X msg 313 455 \$1 250;
#X obj 53 743 *~ 10000;
#X obj 218 381 *~ 10000;
#X msg 488 304 \$1 10;
#X obj 488 328 line~;
#X obj 219 354 expr~ min($v1 / max($v2 \, 0.0000001) \, 1);
#X obj 219 403 tabread4~ phase-distortion-\$1;
#X obj 52 780 tabread4~ table-env-\$1;
#X obj 526 569 s pos-\$1;
#X obj 526 544 unsig~ 10;
#X obj 376 565 r current-buffer-\$1;
#X obj 217 697 tabread4~ buffer1-\$1;
#X obj 367 697 tabread4~ buffer1-\$1;
#X msg 242 672 set \$1;
#X obj 376 586 symbol;
#X msg 376 673 set \$1;
#X obj 217 869 *~ 1;
#X msg 376 607 set \$1;
#X obj 242 591 r load1-\$1;
#X obj 376 652 symbol;
#X obj 242 651 symbol;
#X obj 485 604 r load-\$1;
#X obj 384 723 receive~ interpol-\$1;
#X obj 218 19 r freq-\$1;
#X obj 314 285 r reset-phase-\$1;
#X obj 371 458 r left-limit-\$1;
#X obj 313 432 r phasor-mult-\$1;
#X obj 234 743 expr~ 1 - $v1;
#X obj 249 43 r bend-\$1;
#X obj 488 280 r duty-\$1;
#X obj 236 143 r sample-länge-\$1;
#X obj 218 192 / 2;
#X obj 364 148 r samplerate;
#X obj 236 167 / 48000;
#X msg 242 630;
#X msg 376 631;
#X connect 0 0 28 0;
#X connect 1 0 39 0;
#X connect 2 0 5 0;
#X connect 3 0 4 0;
#X connect 4 0 32 0;
#X connect 4 0 34 0;
#X connect 4 0 35 0;
#X connect 5 0 6 0;
#X connect 6 0 0 0;
#X connect 7 0 1 0;
#X connect 9 0 54 0;
#X connect 10 0 11 0;
#X connect 11 0 18 0;
#X connect 11 1 9 1;
#X connect 12 0 14 0;
#X connect 13 0 14 1;
#X connect 14 0 7 0;
#X connect 17 0 3 0;
#X connect 17 0 24 0;
#X connect 18 0 9 0;
#X connect 19 0 0 1;
#X connect 20 0 21 0;
#X connect 21 0 4 1;
#X connect 22 0 3 1;
#X connect 23 0 22 0;
#X connect 24 0 30 0;
#X connect 25 0 29 0;
#X connect 26 0 27 0;
#X connect 27 0 28 1;
#X connect 28 0 25 0;
#X connect 29 0 17 0;
#X connect 30 0 7 1;
#X connect 32 0 31 0;
#X connect 33 0 37 0;
#X connect 34 0 12 0;
#X connect 35 0 13 0;
#X connect 36 0 34 0;
#X connect 37 0 40 0;
#X connect 38 0 35 0;
#X connect 39 0 8 0;
#X connect 40 0 58 0;
#X connect 40 0 57 0;
#X connect 41 0 57 0;
#X connect 42 0 38 0;
#X connect 43 0 36 0;
#X connect 44 0 58 0;
#X connect 45 0 13 1;
#X connect 45 0 50 0;
#X connect 46 0 10 1;
#X connect 46 0 18 0;
#X connect 47 0 19 0;
#X connect 48 0 20 0;
#X connect 49 0 23 0;
#X connect 50 0 12 1;
#X connect 51 0 10 0;
#X connect 52 0 26 0;
#X connect 53 0 56 0;
#X connect 54 0 2 0;
#X connect 55 0 56 1;
#X connect 56 0 54 1;
#X connect 57 0 43 0;
#X connect 58 0 42 0;
