#N canvas 590 6 1036 988 12;
#X obj 218 330 phasor~;
#X obj 217 813 hip~ 5;
#X obj 526 595 s pos;
#N canvas 48 321 345 391 unsig 0;
#X obj 43 22 inlet~;
#X obj 43 167 snapshot~;
#X obj 57 45 loadbang;
#X obj 57 68 t b b;
#X obj 89 90 f \$1;
#X obj 89 113 sel 0;
#X obj 43 190 outlet;
#X obj 138 53 bng 15 250 50 0 empty empty empty 17 7 0 10 #fcfcfc #000000
#000000;
#X obj 57 139 metro 10;
#X connect 0 0 1 0;
#X connect 1 0 6 0;
#X connect 2 0 3 0;
#X connect 3 0 8 0;
#X connect 3 1 4 0;
#X connect 4 0 5 0;
#X connect 5 1 8 1;
#X connect 7 0 3 0;
#X connect 8 0 1 0;
#X restore 526 544 pd unsig;
#X floatatom 218 248 5 0 0 0 - - - 0;
#X obj 218 498 *~;
#X obj 218 524 +~;
#X msg 218 271 \$1 10;
#X obj 218 297 line~;
#X obj 67 654 tabread4~ table-env;
#X obj 218 742 *~;
#X obj 217 942 outlet~;
#X obj 218 118 +;
#X obj 249 67 *;
#X obj 249 43 r bend;
#X obj 249 91 t b f;
#N canvas 189 189 404 182 volume-control 0;
#X floatatom 25 59 5 0 0 0 - - - 0;
#X obj 25 33 r amp;
#X obj 80 112 s amp-ctl;
#X obj 80 38 * 2;
#N canvas 0 50 279 135 ramp 0;
#X obj 12 63 line~;
#X msg 12 39 \$1 20;
#X obj 12 11 inlet;
#X obj 12 87 outlet~;
#X connect 0 0 3 0;
#X connect 1 0 0 0;
#X connect 2 0 1 0;
#X restore 25 84 pd ramp;
#X obj 80 9 r vol;
#X obj 25 112 outlet~;
#X connect 0 0 4 0;
#X connect 1 0 0 0;
#X connect 3 0 2 0;
#X connect 3 0 0 0;
#X connect 4 0 6 0;
#X connect 5 0 3 0;
#X restore 303 674 pd volume-control;
#X obj 217 640 *~;
#X obj 367 646 *~;
#X obj 217 666 +~;
#X obj 405 644 hsl 128 15 0 1 0 0 empty show-interpol empty -2 -8 0
10 #fcfcfc #000000 #000000 0 1;
#X obj 234 617 cyclone/rminus~ 1;
#X obj 218 192 * 1;
#X text 313 152 Frequency -> phasor speed;
#X text 426 517 read and interpolatae;
#X text 438 674 Amp;
#X obj 218 460 wrap~;
#X obj 218 67 f 1;
#X obj 384 597 receive~ interpol;
#X obj 314 285 r reset-phase;
#X msg 314 311 0;
#X obj 313 432 r phasor-mult;
#X msg 371 481 \$1 10;
#X obj 371 504 line~;
#X obj 313 478 line~;
#X msg 313 455 \$1 250;
#X obj 371 458 r left-limit;
#X obj 217 914 *~ 0.5;
#X obj 488 280 r duty;
#X obj 68 617 *~ 10000;
#X obj 218 381 *~ 10000;
#X obj 219 403 tabread4~ phase-distortion;
#X obj 217 839 *~ 1;
#X msg 488 304 \$1 10;
#X obj 488 328 line~;
#X obj 219 354 expr~ min($v1 / max($v2 \, 0.0000001) \, 1);
#X obj 217 568 tabread4~ sampler;
#X obj 367 568 tabread4~ sampler1;
#X obj 218 19 r freq;
#X connect 0 0 45 0;
#X connect 1 0 42 0;
#X connect 3 0 2 0;
#X connect 4 0 7 0;
#X connect 5 0 6 0;
#X connect 6 0 3 0;
#X connect 6 0 46 0;
#X connect 6 0 47 0;
#X connect 7 0 8 0;
#X connect 8 0 0 0;
#X connect 9 0 10 1;
#X connect 10 0 1 0;
#X connect 12 0 22 0;
#X connect 13 0 15 0;
#X connect 14 0 13 0;
#X connect 15 0 27 0;
#X connect 15 1 12 1;
#X connect 17 0 19 0;
#X connect 18 0 19 1;
#X connect 19 0 10 0;
#X connect 21 0 17 1;
#X connect 22 0 4 0;
#X connect 26 0 5 0;
#X connect 26 0 39 0;
#X connect 27 0 12 0;
#X connect 28 0 21 0;
#X connect 28 0 18 1;
#X connect 29 0 30 0;
#X connect 30 0 0 1;
#X connect 31 0 35 0;
#X connect 32 0 33 0;
#X connect 33 0 6 1;
#X connect 34 0 5 1;
#X connect 35 0 34 0;
#X connect 36 0 32 0;
#X connect 37 0 11 0;
#X connect 38 0 43 0;
#X connect 39 0 9 0;
#X connect 40 0 41 0;
#X connect 41 0 26 0;
#X connect 42 0 37 0;
#X connect 43 0 44 0;
#X connect 44 0 45 1;
#X connect 45 0 40 0;
#X connect 46 0 17 0;
#X connect 47 0 18 0;
#X connect 48 0 13 1;
#X connect 48 0 27 0;
